<?xml version="1.0" encoding="utf-8"?>
<!-- Generator: Adobe Illustrator 16.0.0, SVG Export Plug-In . SVG Version: 6.00 Build 0)  -->
<!DOCTYPE svg PUBLIC "-//W3C//DTD SVG 1.1//EN" "http://www.w3.org/Graphics/SVG/1.1/DTD/svg11.dtd">
<svg version="1.1" id="Layer_1" xmlns="http://www.w3.org/2000/svg" xmlns:xlink="http://www.w3.org/1999/xlink" x="0px" y="0px"
	 width="900px" height="367.918px" viewBox="-83.071 -33.959 900 367.918" enable-background="new -83.071 -33.959 900 367.918"
	 xml:space="preserve">
<g>
	<path fill="#E0E0E0" d="M421.428-15.705l-2.313,0.04c49.169,4.751,97.976,13.008,145.914,24.697
		c30.613,7.949,60.056,19.952,87.472,35.709c12.124,7.097,22.927,16.278,31.946,27.042c5.578,6.854,9.359,14.931,11.092,23.614
		c1.637,10.912-0.889,22.098-7.065,31.315c-6.901,10.355-15.71,19.177-25.958,26.088c-21.85,14.813-45.715,26.322-70.85,34.239
		c-82.34,25.021-167.942,37.595-254.067,37.541c-9.604,0.162-19.302,0.211-28.887,0.014c10.728,1.627,21.589,2.895,32.455,3.621
		c108.573,8.598,217.923-0.675,323.599-27.46c30.359-8.119,59.454-20.594,86.351-36.763c10.13-6.424,19.312-14.241,27.243-23.256
		c8.186-9.091,12.98-20.778,13.57-33.057l-0.346-5.172c-1.641-10.312-6.172-19.913-13.051-27.714
		c-10.412-11.788-22.827-21.643-36.682-29.061c-35.314-18.661-73.135-32.191-112.319-40.145
		C561.087-8.712,491.431-15.846,421.428-15.705"/>
	<path fill="#E0E0E0" d="M413.436-13.716l-1.329-0.192c-13.074-1.468-25.941-2.563-39.086-3.237
		c-87.683-4.573-175.692,2.015-261.772,19.594C71.609,10.307,33.273,23.668-2.65,42.122c-14.018,7.37-26.667,17.084-37.367,28.759
		c-7.194,7.766-11.943,17.476-13.674,27.968l-0.364,5.231c0.25,10.28,3.811,20.16,10.121,28.226
		c7.544,9.714,16.633,18.113,26.937,24.847c20.763,13.424,43.161,23.961,66.653,31.535c82.25,25.024,167.75,37.844,253.761,37.86
		c-45.727-4.827-90.932-13.824-134.984-26.992c-28.31-8.206-55.291-20.418-80.072-36.247c-10.302-6.888-19.376-15.349-26.824-25.096
		c-5.199-7.034-8.558-15.139-9.769-23.793l-0.275-4.823c0.395-11.281,4.549-22.143,11.806-30.824
		c8.86-10.719,19.491-19.873,31.431-26.978c26.981-15.803,55.983-27.854,86.204-35.879C257.017-2.984,335.042-12.915,413.436-13.716
		"/>
	<path fill="#E0E0E0" d="M517.88,112.22l9.213-0.002c4.277-0.295,8.562,0.122,12.768,1.058c3.222,0.914,5.733,3.39,6.695,6.622
		l1.22-8.496l0.492-4.443l2.236-16.981c-2.644,0.599-5.303,0.96-7.974,1.006l-22.315,0.011l3.943-34.567
		c0.15-0.016,0.298-0.019,0.329-0.022c6.502-0.138,12.839-0.121,19.333,0.028c6.358,0.601,12.289,3.733,16.456,8.704l3.773-30.764
		c-2.363,0.666-4.762,0.998-7.294,0.992l-79.69,0.061c-0.344,0-0.717,0.01-1.197,0.027c5.147,5.25,7.786,12.417,7.434,19.783
		c-0.64,3.287-1,6.597-1.319,9.9l-9.375,82.642c-0.466,4.364-0.972,8.644-1.79,12.951c-1.328,6.227-5.161,11.586-10.549,14.88
		l98.627,0.28l12.613-32.062c-16.474,12.041-37.818,15.371-57.227,8.973l-0.965-0.511c0.052-0.473,0.13-0.807,0.222-1.139
		L517.88,112.22"/>
	<path fill="#E0E0E0" d="M432.284,59.564l0.329-0.041c5.526-1.283,11.106-1.613,16.568-0.992c5.164,1.033,9.486,4.455,11.868,9.13
		l11.085-31.917l0.124-0.25c-0.228-0.028-0.486-0.054-0.804-0.062h-95.474c-3.751,0.237-7.569,0.039-11.44-0.62l-12.345,32.611
		l-0.13,0.319l0.292-0.142c10.859-7.713,24.282-10.677,37.453-8.229l1.104,0.23c-0.037,0.348-0.079,0.695-0.115,1.033l-8.891,78.811
		c-0.329,7.126-1.505,14.116-3.609,20.927c-1.66,5.926-4.952,11.195-9.561,15.169l-0.327,0.306l34.239,0.108l25.273,0.219
		c0.388,0.002,0.731,0,1.062,0l-0.166-0.393c-4.421-4.792-6.824-10.8-7.073-17.285c0-4.934,0.341-9.852,1.089-14.681L432.284,59.564
		"/>
	<path fill="#E0E0E0" d="M344.763,89.902c1.051-11.265,2.329-22.521,3.812-33.794c0.33-2.148,0.781-4.289,1.317-6.428
		c1.33-5.875,5.104-10.892,10.371-13.926l-59.104-0.315l-0.97-0.013c5.755,4.753,8.534,12.258,7.209,19.609l-10.517,93.564
		c-0.191,5.558-1.304,11.115-3.159,16.382c-1.792,4.608-5.091,8.432-9.355,10.865l59.929,0.108l-0.058-0.68l-0.268-0.089
		c-3.137-2.303-5.437-5.597-6.277-9.333c-0.328-1.62-0.532-3.309-0.61-4.992c-0.031-1.477-0.031-2.794,0.125-4.261L344.763,89.902"
		/>
	<path fill="#E0E0E0" d="M197.072,111.981h39.973l-4.492,40.142c-0.221,4.105-1.091,8.249-2.535,12.199
		c-1.672,4.938-5.084,8.889-9.556,11.524l59.778,0.329c-3.723-3.289-6.097-7.573-6.786-12.448c-0.286-2.368-0.316-4.992-0.115-7.317
		l6.436-57.443c1.289-13.253,2.774-26.531,4.445-39.74c0.273-5.677,1.807-11.225,4.588-16.237c1.833-3.045,4.487-5.528,7.688-7.221
		l-1.596-0.044l-57.635-0.287l-0.945-0.016c1.654,1.533,3.135,3.22,4.422,5.053c0.821,1.261,1.475,2.582,1.941,3.943
		c0.731,3.172,1.045,6.419,0.882,9.688l-0.178,1.58l-3.918,34.659H199.52l3.31-29.681c0.191-2.746,0.542-5.41,1.067-8.057
		l0.332-1.758c0.942-4.173,2.971-8.083,5.926-11.232c1-1.104,2.136-2.065,3.375-2.906c0.455-0.323,0.928-0.617,1.411-0.902
		c-0.434-0.04-0.888-0.075-1.35-0.086l-57.637-0.29l-0.826-0.012c1.925,1.884,3.604,3.981,4.997,6.251
		c1.098,1.9,1.752,4.033,1.917,6.197c0.376,2.597,0.414,5.205,0.139,7.75l-11.084,98.166c-0.29,3.487-1.03,6.915-2.231,10.207
		c-1.633,4.938-5.097,9.218-9.7,11.854l57.492,0.322c0.423-0.009,0.83,0,1.258,0.005c0.416,0,0.854-0.005,1.284-0.033
		c-2.035-1.939-3.747-3.92-5.152-6.269c-2.159-4.894-2.768-10.487-1.738-15.755L197.072,111.981"/>
	<path fill="#E0E0E0" d="M756.159,209.102l-0.504,0.324c-1.236,0.994-2.652,1.797-4.214,2.312l-9.051,2.963l0.322,0.312
		c1.072,0.348,1.959,1.147,2.612,2.071c0.438,0.758,0.771,1.562,1.007,2.241c1.954,6.514,3.798,12.83,5.587,19.348
		c0.317,1.019,0.623,2.024,0.835,3.021c0.254,0.995,0.254,2.079-0.023,3.168c-0.188,0.783-0.513,1.45-0.955,2.128l16.463-5.189
		l-0.325-0.139c-1.053-0.579-1.944-1.279-2.574-2.265c-0.466-0.661-0.807-1.343-1.044-2.267c-0.226-0.699-0.452-1.39-0.658-2.265
		l-3.474-11.937l-0.162-0.655c-0.284-0.738-0.468-1.651-0.536-2.622c-0.204-1.684,0.745-3.537,2.382-4.296
		c1.555-0.666,3.344-0.369,4.569,0.663c0.31,0.326,0.593,0.646,0.823,0.964c0.404,0.496,0.719,1.107,0.933,1.796
		c0.108,0.264,0.198,0.534,0.302,0.861l0.162,0.651l3.478,11.863c0.311,1.004,0.571,2.045,0.835,3.12
		c0.232,1.101,0.23,2.14-0.028,3.132c-0.214,0.82-0.534,1.627-0.955,2.295l16.465-5.258l-0.329-0.306
		c-1.053-0.362-1.959-1.062-2.603-2.013c-0.442-0.717-0.783-1.597-1.005-2.3c-0.234-0.769-0.463-1.606-0.66-2.297l-3.402-11.699
		c-0.365-1.472-0.828-2.808-1.336-4.305c-1.533-4.165-5.634-7.008-10.116-6.719c-2.721,0.003-5.368,0.885-7.71,2.303
		c-1.764,0.992-3.125,2.641-3.925,4.606C756.928,211.408,756.519,210.291,756.159,209.102"/>
	<path fill="#E0E0E0" d="M727.831,256.177c4.658-1.26,8.757-3.964,11.553-7.91c3.77-6.238,3.715-14.11-0.188-20.1
		c-3.419-5.66-9.926-8.665-16.446-7.549c-4.978,0.556-9.591,2.893-13.003,6.561c-3.617,4.095-5.075,9.806-3.885,15.184
		c0.712,4.656,3.267,8.891,7.11,11.825c4.104,2.657,9.166,3.462,13.923,2.218C727.217,256.26,727.527,256.188,727.831,256.177
		 M726.911,249.264c-1.333,0.357-2.805,0.329-4.051-0.329c-1.129-0.656-2.056-1.637-2.719-2.638
		c-1.218-2.011-2.133-4.269-2.688-6.572c-0.471-1.645-0.76-3.293-0.8-4.948c-0.07-1.305,0.142-2.445,0.638-3.611
		c0.557-1.317,1.672-2.307,3.019-2.711c1.224-0.581,2.624-0.588,3.896-0.247c1.112,0.571,2.076,1.305,2.791,2.29
		c1.308,1.658,2.268,3.631,2.853,5.681c0.219,0.767,0.426,1.538,0.623,2.223c0.419,1.644,0.661,3.302,0.658,4.961
		c-0.004,1.254-0.286,2.293-0.797,3.278c-0.578,1.107-1.538,1.973-2.701,2.323C727.394,249.13,727.18,249.25,726.911,249.264"/>
	<path fill="#E0E0E0" d="M680.137,233.615l0.329,0.406c1.004,0.438,1.811,1.329,2.4,2.295c0.386,0.765,0.68,1.439,0.896,2.39
		c1.559,6.442,3.055,12.897,4.473,19.458c0.263,0.99,0.488,2.004,0.66,3.06c0.202,1.141,0.144,2.201-0.188,3.193
		c-0.237,0.759-0.6,1.582-1.044,2.255l16.688-4.242l-0.294-0.312c-1.03-0.494-1.864-1.319-2.485-2.31
		c-0.372-0.675-0.68-1.521-0.88-2.309c-0.169-0.696-0.364-1.555-0.517-2.298l-6.175-26.254l-0.304,0.242
		c-0.727,0.668-1.618,1.308-2.587,1.632c-0.531,0.122-1.081,0.337-1.655,0.374L680.137,233.615"/>
	<path fill="#E0E0E0" d="M687.421,230.193c2.761-0.604,4.877-2.791,5.296-5.612c0.284-1.651-0.033-3.312-0.88-4.912
		c-1.481-2.664-4.682-3.979-7.653-3.003c-1.317,0.339-2.435,1.121-3.302,2.29c-1.209,1.441-1.712,3.377-1.432,5.293
		c0.242,1.976,1.283,3.713,2.826,4.936c1.415,0.99,3.144,1.343,4.837,1.155L687.421,230.193"/>
	<path fill="#E0E0E0" d="M657.574,262.86c0.259,1.432,0.591,2.826,0.972,4.162c0.42,1.345,1.188,2.645,2.193,3.651
		c1.035,0.974,2.316,1.644,3.701,1.961c2.956,0.621,5.989,0.341,8.82-0.66c1.101-0.412,2.246-0.85,3.349-1.254l1.759-6.748
		l0.021-0.16c0.014-0.05-0.005-0.059-0.04-0.07l-0.043-0.135l-0.049-0.105l-0.03-0.052l-0.05-0.017h-0.035h-0.055l-0.099-0.002
		l-0.059,0.002h-0.061l-0.024,0.003l-0.079,0.061l-0.076,0.11l-0.023,0.087l-0.035,0.052l-0.016,0.01l-0.003,0.002v0.005
		l-0.014,0.033l-0.01,0.105l-0.054,0.15l-0.017,0.024l-0.035,0.007l-0.102,0.009h-0.047h-0.035
		c-1.019,0.302-2.064,0.315-3.073,0.275c-1.019-0.224-2.006-0.6-2.874-1.171c-0.665-0.439-1.164-1.147-1.427-2.064
		c-0.247-0.603-0.421-1.181-0.553-1.797l-0.17-0.898l-2.821-13.527l1.717-0.461c0.839-0.132,1.61-0.421,2.476-0.454
		c0.835-0.167,1.752,0.01,2.51,0.426c0.484,0.242,0.896,0.564,1.29,0.882l-1.712-8.877l-7.658,1.655l-2.178-10.219l-4.733,0.997
		l0.012,0.326c0.567,5.855-2.589,11.349-7.877,13.836c-0.337,0.187-0.673,0.317-1.016,0.379l1.046,5.037l4.162-0.873L657.574,262.86
		"/>
	<path fill="#E0E0E0" d="M652.303,271.045c-1.005,0.28-2.027,0.285-3.024,0.078c-1.258-0.167-2.297-1.096-2.859-2.121
		c-0.433-0.955-0.75-1.824-0.9-2.704c-0.137-0.506-0.2-0.887-0.261-1.239c-0.144-0.642-0.252-1.296-0.332-1.874l-1.051-5.717
		c-0.155-0.653-0.254-1.307-0.417-1.954c-0.366-1.859-0.982-3.602-1.829-5.145c-1.279-2.091-3.311-3.685-5.766-4.169
		c-2.654-0.603-5.378-0.626-8.027-0.08c-2.973,0.52-5.877,1.495-8.566,2.812l-1.769,8.896l0.451-0.337
		c2.303-1.918,4.98-3.19,7.887-3.844c1.044-0.123,2.109-0.1,3.163,0.223c0.52,0.139,1.019,0.454,1.383,0.974
		c0.696,0.856,0.691,2.056-0.028,2.993c-0.292,0.369-0.685,0.736-1.127,1.007c-0.936,0.663-1.939,1.296-2.979,1.745
		c-1.792,0.854-3.633,1.7-5.359,2.574c-1.662,0.922-3.227,2.091-4.503,3.527c-1.555,1.987-2.333,4.411-2.098,6.948
		c0.127,2.605,1.317,4.929,3.106,6.604c1.599,1.634,3.765,2.598,5.971,2.659c1.655,0.207,3.327-0.014,4.936-0.334l3.529-0.867
		l1.881-6.906l-0.369,0.146c-0.564,0.219-1.156,0.336-1.73,0.348c-2.008-0.005-3.731-1.331-4.204-3.292
		c-0.24-0.656-0.271-1.316-0.2-1.975c0.125-0.656,0.396-1.254,0.854-1.67c0.478-0.651,1.077-1.284,1.73-1.644l0.628-0.574
		l2.016-1.427l0.386,2.34c0.263,1.505,0.576,2.975,0.931,4.46c0.381,1.755,1.291,3.248,2.479,4.459
		c2.345,2.267,5.477,3.339,8.698,3.222c0.985-0.08,1.978-0.275,2.96-0.402l2.704-0.852L652.303,271.045"/>
	<path fill="#E0E0E0" d="M598.723,252.238l-0.471,0.297c-1.159,0.813-2.596,1.352-4.012,1.652l-9.819,1.675l0.311,0.326
		c1.081,0.659,1.966,1.675,2.407,2.961c0.285,0.805,0.534,1.648,0.607,2.532l2.993,19.217c0.226,1.06,0.341,2.172,0.513,3.242
		c0.068,1.019-0.03,2.034-0.456,3.033c-0.247,0.807-0.696,1.526-1.152,2.107l16.824-2.822l-0.312-0.314
		c-1.056-0.676-1.964-1.682-2.373-2.961c-0.314-0.792-0.571-1.648-0.646-2.549c-0.072-0.511-0.228-1.091-0.282-1.729l-1.702-11.035
		c-0.117-0.562-0.252-1.174-0.299-1.817c-0.035-0.569-0.028-0.993,0.033-1.585c0.144-0.407,0.336-1.025,0.651-1.381
		c1.316-1.979,3.562-3.28,5.931-3.304c0.947-0.025,1.916,0,2.856,0.023l-1.43-8.897l-2.603,0.247l-0.344,0.075
		c-2.158,0.341-4.094,1.627-5.352,3.329c-0.447,0.927-0.81,1.722-1.035,2.624C599.251,255.533,598.953,253.882,598.723,252.238"/>
	<path fill="#E0E0E0" d="M565.755,294.661c4.8-0.606,9.185-2.876,12.433-6.347c4.56-5.732,5.483-13.38,2.297-19.959
		c-2.664-6.034-8.705-9.869-15.339-9.688c-5.041-0.169-9.838,1.52-13.697,4.758c-4.197,3.628-6.252,9.098-5.756,14.518
		c0.157,4.891,2.143,9.41,5.578,12.737c3.785,3.17,8.721,4.682,13.596,4.033C565.169,294.698,565.464,294.687,565.755,294.661
		 M565.713,287.727c-1.393,0.167-2.768-0.153-4.01-0.936c-0.997-0.793-1.749-1.867-2.323-2.966
		c-0.985-2.269-1.622-4.566-1.883-6.895c-0.242-1.644-0.369-3.312-0.139-4.973c0.051-1.279,0.383-2.441,1.032-3.539
		c0.698-1.117,1.961-2.024,3.312-2.35c1.306-0.334,2.667-0.202,3.908,0.36c1.03,0.628,1.961,1.594,2.565,2.599
		c1.049,1.949,1.733,3.952,2.061,6.123c0.104,0.762,0.289,1.448,0.331,2.133c0.272,1.724,0.282,3.518,0.019,5.218
		c-0.08,1.022-0.521,2.116-1.112,3.019c-0.771,1.005-1.848,1.729-3.012,1.959C566.256,287.555,565.979,287.661,565.713,287.727"/>
	<path fill="#E0E0E0" d="M519.561,288.141c0.165,1.446,0.315,2.901,0.616,4.246c0.277,1.357,0.828,2.712,1.682,3.948
		c0.969,1.012,2.257,1.877,3.586,2.307c2.861,0.967,5.921,1.017,8.846,0.337c1.065-0.315,2.293-0.581,3.37-0.731l2.542-6.599
		c0.047-0.197,0.047-0.249-0.005-0.308c-0.085-0.19-0.217-0.247-0.264-0.259c-0.073-0.012-0.271-0.007-0.312,0.012l-0.023,0.012
		l-0.033,0.05l-0.082,0.147l-0.038,0.071l-0.028,0.021l-0.042,0.021l-0.037,0.017l-0.04,0.105l-0.021,0.082l-0.012,0.057
		l-0.09,0.033l-0.07,0.012h-0.07c-1.034,0.03-2.041,0.005-3.055-0.284c-0.985-0.162-1.952-0.675-2.657-1.338
		c-0.64-0.643-1.098-1.334-1.293-2.239c-0.186-0.6-0.297-1.228-0.32-1.859l-0.061-0.948l-1.411-13.737l1.787-0.291
		c0.738-0.035,1.653-0.075,2.38-0.13c0.938-0.079,1.883,0.146,2.567,0.753c0.364,0.317,0.773,0.63,1.194,0.967l-0.834-9.065
		l-7.821,0.868l-1.062-10.535l-4.833,0.626v0.237c-0.049,5.742-3.736,10.983-9.278,12.921c-0.357,0.045-0.705,0.102-1.044,0.28
		l0.583,5.034l4.152-0.411L519.561,288.141"/>
	<path fill="#E0E0E0" d="M480.543,302.658c4.416,0.9,8.976,0.99,13.34,0.614c3.603-0.322,7.16-1.354,10.193-3.191
		c2.056-1.11,3.673-2.89,4.658-5.037c1.902-3.95,0.903-8.59-2.4-11.52c-1.949-1.646-4.239-2.777-6.587-3.379
		c-0.687-0.249-1.387-0.402-2.106-0.581l-3.085-0.663c-0.522-0.092-1.054-0.326-1.679-0.642c-0.372-0.177-0.813-0.541-1.068-0.997
		c-0.289-0.384-0.533-0.995-0.453-1.623c0.108-0.359,0.207-0.707,0.533-1.024c0.377-0.339,0.943-0.651,1.321-0.823
		c1.268-0.433,2.383-0.501,3.612-0.487c2.699,0.013,5.418,0.812,7.835,2.236l-0.609-7.769l-0.66-0.063
		c-5.082-0.795-10.21-0.671-15.177,0.329c-2.981,0.646-5.791,2.13-7.854,4.291c-2.307,2.627-3.057,6.238-2.036,9.535
		c0.397,1.472,1.378,2.751,2.681,3.671c1.363,1.229,3,2.043,4.815,2.657l6.229,2.245c0.818,0.32,1.575,0.673,2.412,1.234
		c0.381,0.2,0.72,0.579,1.047,1.035c0.306,0.343,0.357,0.748,0.343,1.31c0.02,0.769-0.343,1.66-1.009,2.123
		c-0.625,0.499-1.276,0.805-1.963,0.885c-1.486,0.353-3.029,0.553-4.633,0.322c-3.558-0.327-6.896-1.326-9.876-2.984
		L480.543,302.658"/>
	<path fill="#E0E0E0" d="M471.14,294.713c-2.968,1.975-6.269,3.332-9.869,4.216c-2.521,0.478-5.253,0.104-7.578-1.022
		c-2.859-1.745-4.666-4.769-4.962-8.117c-0.082-0.349-0.144-0.694-0.172-1.056l21.921-1.199l-0.012-0.424
		c-0.23-3.468-1.068-6.821-2.648-9.831c-2.021-3.546-5.582-5.956-9.594-6.615c-6.161-1.333-12.443,0.342-16.857,4.631
		c-4.146,4.328-5.799,10.479-4.783,16.265c0.638,5.006,3.474,9.415,7.666,12.051c2.826,1.588,5.812,2.316,8.926,2.441
		c5.43,0.513,10.721-0.469,15.645-2.806L471.14,294.713 M448.305,282.436c0.099-1.488,0.452-2.85,1.416-3.877
		c1.335-1.773,3.87-2.307,5.928-1.329c0.995,0.396,1.665,1.338,2.024,2.345c0.294,0.748,0.504,1.604,0.553,2.302L448.305,282.436"/>
	<path fill="#E0E0E0" d="M409.485,286.055l8.408,15.9c0.581,1.274,1.538,2.307,2.492,3.267c1.028,0.949,2.338,1.42,3.664,1.622
		c1.098,0.057,2.307,0.057,3.429-0.017l9.744-0.922l-0.306-0.232c-2.072-1.897-3.977-4.124-5.54-6.678
		c-0.404-0.649-0.738-1.256-1.07-1.832l-8.625-14.612l0.396-0.105c2.965-1.491,5.448-3.873,6.908-6.854
		c2.29-5.573,0.336-11.875-4.597-15.428c-1.453-1.014-3.3-1.672-5.107-1.907c-1.437-0.113-2.801-0.207-4.12-0.12l-1.314,0.015
		l-20.984,0.341l0.179,0.322c1.356,0.879,2.243,2.28,2.629,3.773c0.217,1.167,0.397,2.366,0.397,3.482v2.281l0.421,28.22
		c0.015,0.449,0.033,0.94,0.063,1.428c0.057,0.64,0.09,1.263,0.094,1.834c0.05,1.143-0.207,2.384-0.418,3.44
		c-0.348,1.604-1.15,2.93-2.467,3.78l19.087-0.192l-0.15-0.312c-1.362-0.938-2.258-2.281-2.655-3.861
		c-0.214-1.084-0.47-2.34-0.47-3.424l-0.008-2.243v-0.685L409.485,286.055 M409.87,265.395c0.795-0.014,1.67,0.017,2.65,0.306
		c1.653,0.452,2.973,1.688,3.628,3.33c1.648,4.044,0.339,8.767-2.97,11.482c-1.199,0.717-2.432,1.345-3.809,1.641l-0.264-16.754
		L409.87,265.395"/>
	<path fill="#E0E0E0" d="M332.936,277.284c1.353-1.035,2.634-2.345,3.786-3.713c2.496-3.222,2.963-7.514,1.147-11.128
		c-1.641-2.751-4.437-4.7-7.569-5.297c-3.923-0.958-7.926-0.614-11.591,1.018c-2.233,0.985-4.038,2.782-5.019,4.952
		c-1.08,2.814-1.004,5.893,0.222,8.543c0.664,1.455,1.48,2.918,2.417,4.188c0.641,0.763,1.294,1.682,1.952,2.401l-0.491,0.331
		c-2.63,1.68-4.944,3.89-6.959,6.243c-1.753,1.989-2.784,4.562-3.124,7.187c-0.455,4.371,1.476,8.822,5.063,11.533
		c3.197,2.326,6.994,3.598,10.941,3.631c2.97,0.125,6.006-0.272,8.889-1.268c2.383-0.978,4.529-2.53,6.185-4.573l0.406,0.498
		c2.963,3.066,6.914,4.972,11.195,5.343c1.014,0.055,2.14,0.09,3.173,0.125l12.091-0.729l-0.942-0.644
		c-9.348-5.632-17.751-12.787-24.859-21.062L332.936,277.284 M334.142,296.366c-1.294,1.975-3.509,3.264-5.822,3.292
		c-2.437,0.082-4.667-0.995-6.089-2.871c-1.317-1.79-1.96-4.083-1.643-6.375c0.228-2.298,1.319-4.369,3.01-5.921L334.142,296.366
		 M327.52,271.647c-0.528-0.663-1.167-1.336-1.664-2.088c-0.491-0.551-0.828-1.204-1.149-1.867
		c-0.167-0.534-0.264-0.983-0.171-1.578c0.054-0.889,0.688-1.697,1.649-2.018c1.319-0.351,2.802,0.233,3.61,1.376
		c0.533,0.945,0.672,2.225,0.18,3.23c-0.18,0.64-0.55,1.162-0.991,1.627C328.494,270.756,328.023,271.297,327.52,271.647"/>
	<path fill="#E0E0E0" d="M263.391,290.224l-4.58-14.32l-0.549-1.799c-0.141-0.486-0.308-1.107-0.493-1.533
		c-0.242-0.813-0.426-1.565-0.569-2.245l-0.014-0.344l-15.534-1.263l0.07,0.311c1.145,0.987,2.026,2.227,2.652,3.586
		c0.515,1.022,0.984,2.271,1.348,3.342l6.244,18.797c0.524,1.846,1.286,3.525,2.268,4.971c0.849,1.303,1.96,2.535,3.183,3.497
		l-0.156,0.386c-0.529,1.639-1.294,3.257-2.292,4.608c-1.391,2.067-3.778,3.292-6.294,3.24c-0.354,0.005-0.704-0.037-1.07-0.188
		c-0.312-0.092-0.623-0.122-0.943-0.282l-6.042,7.07l3.19,0.362l0.682,0.021c2.829,0.294,5.674-0.017,8.431-0.722
		c3.457-1.052,6.312-3.561,7.917-6.796c0.663-1.251,1.294-2.568,1.814-3.93l15.484-35.669l-10.378-0.813l0.104,0.311
		c0.53,0.521,0.928,1.201,1.196,2.034c0.185,0.73,0.245,1.425,0.147,2.1c-0.134,0.74-0.316,1.547-0.592,2.271
		c-0.173,0.393-0.361,0.999-0.549,1.385L263.391,290.224"/>
	<path fill="#E0E0E0" d="M219.135,300.333l15.283,1.523l-0.238-0.52c-1.328-1.606-2.08-3.638-2.128-5.658
		c-0.036-1.318,0.001-2.647,0.158-3.971l0.11-0.92l3.568-38.874l-0.292,0.021c-1.125,0.618-2.378,0.872-3.591,0.764
		c-0.524-0.021-1.066-0.08-1.599-0.129l-0.83-0.017l-8.55-0.715l0.232,0.353c0.888,0.934,1.456,2.062,1.617,3.36
		c0.081,0.677,0.107,1.371,0.075,2.079c-0.007,0.428-0.026,0.83-0.039,1.183l-0.047,0.635l-0.042,0.628l-0.702,7.95l-0.467-0.337
		c-3.194-2.598-7.303-3.598-11.32-2.938c-3.989,0.672-7.515,3.017-9.726,6.534c-0.3,0.379-0.57,0.88-0.83,1.361
		c-4.271,7.217-3.534,16.202,1.813,22.694c2.525,2.729,6.048,4.528,9.825,4.757c0.596,0.148,1.208,0.148,1.825,0l0.191-0.055
		l0.135-0.039l0.202-0.024l0.109-0.009l0.08-0.017l3.892-5.926l-0.983-0.082c-3.093-0.529-5.588-2.831-6.284-5.822
		c-0.471-1.797-0.603-3.645-0.424-5.59c0.119-1.979,0.515-3.955,1.199-5.834c0.393-1.086,1.008-2.064,1.799-2.77
		c0.9-0.95,2.079-1.319,3.304-1.314c1.229,0.005,2.41,0.381,3.288,1.336c0.94,0.992,1.441,2.32,1.41,3.68
		c-0.011,0.68-0.048,1.364-0.144,2.034L219.135,300.333"/>
	<path fill="#E0E0E0" d="M170.499,294.988c4.711,0.715,9.542-0.264,13.591-2.782c5.795-4.334,8.595-11.618,7.177-18.596
		c-1.099-6.576-5.972-11.855-12.431-13.506c-4.757-1.573-9.882-1.274-14.437,0.722c-4.912,2.577-8.315,7.207-9.149,12.592
		c-1.062,4.769-0.252,9.676,2.243,13.726c2.787,4.169,7.167,6.906,12.074,7.595C169.883,294.821,170.184,294.915,170.499,294.988
		 M172.2,288.174c-1.431-0.071-2.743-0.743-3.649-1.942c-0.785-1.052-1.306-2.189-1.52-3.443c-0.393-2.394-0.43-4.851-0.1-7.174
		c0.126-1.655,0.488-3.309,1.044-4.936c0.388-1.079,1.041-2.163,1.904-2.981c1.023-0.98,2.416-1.531,3.826-1.338
		c1.344,0.009,2.646,0.395,3.643,1.352c0.867,0.94,1.483,1.973,1.796,3.198c0.56,2.066,0.73,4.308,0.513,6.367
		c-0.048,0.798-0.121,1.59-0.222,2.279c-0.204,1.662-0.609,3.311-1.241,4.942c-0.409,0.997-1.062,1.971-1.907,2.652
		c-0.938,0.847-2.144,1.263-3.359,1.129l-0.187-0.01C172.565,288.256,172.379,288.223,172.2,288.174"/>
	<path fill="#E0E0E0" d="M131.17,236.432h-0.283c-0.855,0.436-1.806,0.659-2.762,0.649c-0.558-0.01-1.104-0.11-1.665-0.301
		l-0.706-0.028l-9.231-1.557l0.176,0.406c0.719,0.847,1.18,2.022,1.331,3.135c0.063,0.658,0.06,1.317-0.013,1.976
		c-0.083,0.7-0.182,1.521-0.299,2.288c-1.613,11.216-3.396,22.585-5.365,33.898c-0.113,0.703-0.266,1.594-0.455,2.34
		c-0.256,0.984-0.871,1.961-1.734,2.598l-0.185,0.073c-0.057,0.112-0.129,0.232-0.193,0.268l0.874,0.379
		c6.211,2.911,12.906,4.55,19.708,4.894c4.013,0.202,7.995-0.943,11.356-3.053c7.434-5.479,10.053-15.361,6.251-23.625
		c-2.456-4.909-7.221-8.058-12.599-8.533c-0.548,0-1.09,0-1.628,0.083l-4.262,5.671l0.285,0.127c1.947,0.367,3.687,1.383,4.92,3.003
		c1.154,1.637,1.817,3.569,1.908,5.545c0.21,3.021-0.34,6.193-1.607,8.959c-0.766,1.809-2.098,3.259-3.785,4.108
		c-2.201,0.94-4.729,0.83-6.87-0.19L131.17,236.432"/>
	<path fill="#E0E0E0" d="M81.959,278.248c4.635,1.131,9.535,0.533,13.729-1.69c6.069-3.925,9.326-11.064,8.366-18.121
		c-0.699-6.689-5.211-12.335-11.549-14.433c-4.635-1.717-9.762-1.829-14.454-0.108c-5.048,2.083-8.752,6.483-9.923,11.9
		c-1.361,4.621-0.873,9.585,1.367,13.853c2.499,4.296,6.69,7.282,11.539,8.362C81.343,278.17,81.647,278.227,81.959,278.248
		 M84.088,271.664c-1.417-0.285-2.678-0.997-3.528-2.223c-0.716-1.072-1.164-2.355-1.29-3.654c-0.244-2.354-0.118-4.674,0.369-6.981
		c0.234-1.659,0.689-3.301,1.354-4.924c0.461-1.027,1.174-2.018,2.091-2.925c1.076-0.813,2.492-1.296,3.884-1.035
		c1.365,0.031,2.621,0.668,3.554,1.658c0.814,0.974,1.361,1.996,1.612,3.285c0.413,2.1,0.438,4.289,0.087,6.504
		c-0.09,0.731-0.226,1.406-0.374,2.1c-0.296,1.703-0.824,3.327-1.537,4.9c-0.476,0.992-1.198,1.949-2.084,2.615
		c-0.99,0.675-2.206,0.997-3.417,0.783C84.572,271.716,84.323,271.676,84.088,271.664"/>
	<path fill="#E0E0E0" d="M40.481,255.204c-0.341,1.318-0.604,2.729-0.782,4.204c-0.202,1.39-0.049,2.881,0.446,4.308
		c0.554,1.341,1.464,2.417,2.618,3.337c2.381,1.893,5.246,2.968,8.236,3.294c1.158,0.148,2.321,0.32,3.486,0.449l4.397-5.392
		l0.026-0.019c0.023-0.035,0.042-0.132,0.053-0.219l0.008-0.082l-0.019-0.021l-0.031-0.021l-0.035-0.164l-0.057-0.078l-0.015-0.025
		l-0.014-0.015l-0.063-0.009l-0.08-0.003l-0.057-0.002h-0.04l-0.103,0.005h-0.053l-0.05,0.004l-0.059,0.075
		c-0.02,0.01-0.033,0.026-0.04,0.048c-0.006,0.028-0.009,0.052-0.008,0.087l-0.022,0.077l-0.059,0.019l-0.08,0.015l-0.063,0.002
		c-0.06,0.015-0.135,0.015-0.205,0c-1.008-0.312-1.976-0.66-2.869-1.246c-0.891-0.451-1.625-1.319-2.134-2.151
		c-0.403-0.858-0.577-1.61-0.498-2.53c0.033-0.658,0.146-1.312,0.284-1.971l0.214-0.938l2.959-13.466l1.718,0.512
		c0.817,0.062,1.626,0.372,2.413,0.591c0.864,0.214,1.617,0.785,2.119,1.51c0.319,0.475,0.588,0.914,0.84,1.26l2.038-8.677
		l-7.647-1.867l2.266-10.242l-4.759-1.279l-0.114,0.326c-1.809,5.571-6.961,9.211-12.754,9.119
		c-0.372-0.023-0.734-0.075-1.095-0.167l-1.101,5.004l4.142,0.995L40.481,255.204"/>
	<path fill="#E0E0E0" d="M13.716,222.874l-0.482,0.04c-1.076,0.234-2.199,0.272-3.277,0.014c-0.436-0.059-0.869-0.264-1.28-0.324
		l-9.492-2.46l0.155,0.411c0.647,0.934,1.032,2.044,1.119,3.18c0.022,0.847-0.052,1.729-0.259,2.49
		c-1.228,5.458-2.56,10.861-4.003,16.149l-0.171,0.663c-0.421,1.604-0.663,3.024-0.759,4.593c-0.108,2.375,0.809,4.773,2.555,6.492
		c2.964,2.763,7.077,4.155,11.167,3.688c1.936-0.339,3.755-1.291,5.233-2.608l-0.936,3.843l14.202,3.725l-0.146-0.344
		c-0.65-0.976-1.024-2.09-1.061-3.275c-0.016-0.816,0.072-1.65,0.272-2.49c0.125-0.498,0.252-1.129,0.398-1.73l0.153-0.595
		l6.378-26.137l-0.392,0.002c-1.196,0.33-2.455,0.33-3.654,0c-0.329-0.012-0.656-0.11-0.981-0.294l-9.401-2.344l0.158,0.336
		c0.656,0.983,1.025,2.022,1.114,3.283c0.037,0.767-0.06,1.65-0.257,2.447c-0.169,0.842-0.347,1.512-0.545,2.321l-2.903,11.672
		c-0.182,0.694-0.376,1.613-0.64,2.336c-0.134,0.35-0.295,0.782-0.474,1.196c-0.332,0.696-0.804,1.239-1.375,1.762
		c-0.702,0.521-1.599,0.688-2.479,0.665c-0.838-0.012-1.659-0.331-2.352-0.802c-0.66-0.522-1.106-1.218-1.256-2.161
		c-0.148-0.68-0.166-1.599-0.04-2.313c0.168-1.308,0.423-2.612,0.792-3.774l0.186-0.685l0.176-0.6L13.716,222.874"/>
	<path fill="#E0E0E0" d="M-26.343,230.861l0.294,7.574l0.022,0.541c0.021,0.254,0.034,0.508,0.034,0.767
		c-0.012,0.43-0.059,0.855-0.174,1.26c-0.144,0.687-0.422,1.348-0.841,1.978c-0.435,0.48-0.994,1.007-1.646,1.303
		c-0.529,0.227-1.092,0.394-1.658,0.699l20.488,6.278l-0.221-0.553c-0.991-1.703-1.716-3.427-2.175-5.385
		c-0.28-1.326-0.441-2.667-0.477-4.139l-0.117-1.787l-2.453-40.502l-16.653-4.944l0.178,0.334c0.593,0.658,1.008,1.587,1.25,2.405
		c0.218,0.891,0.139,1.876-0.268,2.859c-0.473,0.987-1.024,1.928-1.66,2.697c-0.355,0.6-0.705,1.103-1.046,1.587
		c-5.599,8.794-11.462,17.358-17.573,25.683c-0.782,1.166-1.628,2.3-2.532,3.294c-1.262,1.456-2.781,2.634-4.501,3.574l13.919,4.312
		l-0.308-0.653l-0.169-0.319c-0.341-0.487-0.617-1.002-0.812-1.646c-0.254-0.825-0.215-1.667,0.092-2.615
		c0.274-0.682,0.646-1.358,1.075-2.043c0.479-0.898,0.978-1.597,1.501-2.278l2.999-4.324L-26.343,230.861 M-26.705,223.591
		l-9.221-2.843l8.47-12.602L-26.705,223.591"/>
</g>
</svg>
