<?xml version="1.0" encoding="utf-8"?>
<!-- Generator: Adobe Illustrator 16.0.0, SVG Export Plug-In . SVG Version: 6.00 Build 0)  -->
<!DOCTYPE svg PUBLIC "-//W3C//DTD SVG 1.1//EN" "http://www.w3.org/Graphics/SVG/1.1/DTD/svg11.dtd">
<svg version="1.1" id="Layer_1" xmlns="http://www.w3.org/2000/svg" xmlns:xlink="http://www.w3.org/1999/xlink" x="0px" y="0px"
	 width="257px" height="104.333px" viewBox="16.833 20.833 257 104.333" enable-background="new 16.833 20.833 257 104.333"
	 xml:space="preserve">
<g>
	<path d="M161.187,23.842l-0.698,0.011c14.587,1.411,29.053,3.858,43.288,7.331c9.075,2.359,17.795,5.916,25.929,10.592
		c3.594,2.107,6.803,4.824,9.479,8.023c1.649,2.027,2.778,4.427,3.29,6.992c0.481,3.255-0.261,6.573-2.092,9.305
		c-2.044,3.051-4.657,5.679-7.699,7.737c-6.484,4.362-13.559,7.773-21.011,10.131c-24.436,7.426-49.83,11.183-75.367,11.156
		c-2.86,0.046-5.721,0.05-8.581,0.021c3.199,0.46,6.408,0.82,9.626,1.074c32.236,2.548,64.666-0.217,96-8.177
		c9.006-2.413,17.628-6.078,25.611-10.896c3.004-1.902,5.725-4.219,8.077-6.889c2.431-2.71,3.854-6.176,4.027-9.809l-0.106-1.541
		c-0.485-3.051-1.829-5.903-3.873-8.221c-3.088-3.494-6.769-6.41-10.874-8.615c-10.478-5.542-21.697-9.55-33.312-11.905
		C202.604,25.919,181.924,23.801,161.187,23.842"/>
	<path d="M158.782,24.435l-0.391-0.061c-3.846-0.434-7.706-0.755-11.566-0.959c-26.033-1.352-52.128,0.601-77.666,5.816
		c-11.755,2.326-23.126,6.289-33.781,11.771c-4.163,2.177-7.913,5.059-11.085,8.515c-2.131,2.313-3.542,5.195-4.058,8.299
		l-0.108,1.558c0.078,3.042,1.133,5.98,3.008,8.381c2.237,2.886,4.935,5.377,7.988,7.373c6.159,3.949,12.804,7.092,19.77,9.345
		c24.398,7.422,49.764,11.202,75.265,11.219c-13.563-1.417-26.963-4.09-40.032-7.985c-8.398-2.431-16.399-6.063-23.751-10.785
		c-3.053-2.01-5.744-4.526-7.956-7.436c-1.541-2.068-2.539-4.49-2.899-7.044l-0.082-1.426c0.121-3.354,1.352-6.58,3.502-9.158
		c2.632-3.177,5.785-5.883,9.325-8.001c8.005-4.685,16.604-8.264,25.568-10.636C112.395,27.619,135.536,24.667,158.782,24.435"/>
	<path d="M189.775,61.78h2.729c1.268-0.069,2.539,0.042,3.78,0.324c0.964,0.258,1.728,0.998,2.01,1.957l0.337-2.513l0.169-1.319
		l0.664-5.048c-0.785,0.187-1.589,0.291-2.392,0.311l-6.588,0.008l1.163-10.26c0.034-0.004,0.062-0.007,0.1-0.011
		c1.898-0.03,3.807-0.023,5.712,0.022c1.902,0.163,3.665,1.091,4.876,2.571l1.147-9.121c-0.707,0.202-1.437,0.302-2.172,0.297
		l-23.637,0.015c-0.117,0-0.238,0-0.355,0.004c1.519,1.558,2.313,3.689,2.188,5.863c-0.17,0.977-0.307,1.958-0.397,2.943
		l-2.763,24.504c-0.123,1.295-0.293,2.585-0.517,3.871c-0.403,1.836-1.54,3.429-3.146,4.403l29.253,0.091l3.732-9.525
		c-4.885,3.577-11.206,4.558-16.948,2.637l-0.286-0.126c0.013-0.119,0.021-0.239,0.041-0.356L189.775,61.78"/>
	<path d="M164.39,46.175l0.115-0.026c1.605-0.371,3.264-0.469,4.904-0.295c1.527,0.321,2.823,1.324,3.52,2.722l3.297-9.471
		l0.021-0.082c-0.08-0.009-0.163-0.013-0.245-0.013h-28.294c-1.137,0.069-2.28,0.009-3.405-0.189l-3.663,9.672l-0.035,0.095
		l0.063-0.043c3.225-2.278,7.231-3.16,11.111-2.439l0.348,0.078c-0.005,0.1-0.014,0.2-0.022,0.299l-2.637,23.38
		c-0.108,2.107-0.464,4.197-1.069,6.214c-0.513,1.738-1.497,3.301-2.848,4.512l-0.091,0.05l10.156,0.057l7.467,0.039
		c0.104,0,0.211,0,0.319-0.004l-0.041-0.108c-1.289-1.396-2.036-3.203-2.107-5.103c0.018-1.464,0.135-2.926,0.341-4.375
		L164.39,46.175"/>
	<path d="M138.418,55.172c0.324-3.346,0.701-6.688,1.128-10.021c0.104-0.642,0.234-1.28,0.391-1.91
		c0.419-1.742,1.53-3.238,3.084-4.132l-17.537-0.098h-0.273c1.708,1.413,2.518,3.635,2.123,5.81l-3.11,27.76
		c-0.061,1.666-0.384,3.31-0.944,4.879c-0.532,1.348-1.511,2.472-2.773,3.184l17.788,0.057l-0.028-0.198l-0.063-0.045
		c-0.953-0.655-1.623-1.643-1.886-2.77c-0.095-0.486-0.149-0.979-0.161-1.474c-0.013-0.421-0.008-0.844,0.02-1.267L138.418,55.172"
		/>
	<path d="M94.619,61.717h11.857l-1.328,11.884c-0.074,1.246-0.33,2.471-0.762,3.643c-0.495,1.442-1.506,2.653-2.832,3.4
		l17.728,0.096c-1.094-0.934-1.808-2.235-2.007-3.657c-0.087-0.733-0.098-1.471-0.037-2.207l1.914-17.012
		c0.373-3.937,0.816-7.869,1.324-11.79c0.069-1.688,0.529-3.337,1.345-4.815c0.56-0.903,1.343-1.645,2.281-2.146l-0.478-0.007
		l-17.089-0.091l-0.278-0.002c0.495,0.449,0.938,0.957,1.313,1.506c0.241,0.36,0.432,0.757,0.569,1.167
		c0.226,0.938,0.316,1.903,0.269,2.869l-0.057,0.467l-1.152,10.292H95.342l0.979-8.821c0.056-0.801,0.165-1.602,0.319-2.389
		l0.102-0.51c0.275-1.248,0.881-2.404,1.758-3.337c0.297-0.323,0.631-0.61,0.996-0.859c0.137-0.096,0.282-0.189,0.423-0.278
		c-0.134-0.009-0.269-0.013-0.403-0.015l-17.096-0.091l-0.241-0.002c0.568,0.553,1.065,1.176,1.478,1.855
		c0.325,0.562,0.521,1.191,0.57,1.838c0.109,0.764,0.124,1.537,0.042,2.305L80.982,74.11c-0.084,1.036-0.31,2.057-0.664,3.032
		c-0.484,1.489-1.51,2.737-2.875,3.501l17.055,0.087c0.124,0,0.246,0,0.371,0.004c0.128,0,0.252-0.004,0.38-0.009
		c-0.601-0.538-1.111-1.163-1.525-1.857c-0.643-1.458-0.825-3.077-0.517-4.64L94.619,61.717"/>
	<path d="M260.45,90.513l-0.143,0.092c-0.364,0.316-0.788,0.551-1.248,0.694l-2.683,0.881l0.096,0.073
		c0.312,0.14,0.582,0.365,0.769,0.649c0.137,0.208,0.234,0.437,0.306,0.671c0.573,1.898,1.129,3.795,1.656,5.702
		c0.096,0.3,0.178,0.604,0.247,0.903c0.074,0.312,0.069,0.634-0.009,0.943c-0.061,0.23-0.156,0.454-0.282,0.656l4.883-1.55
		l-0.096-0.067c-0.314-0.137-0.579-0.355-0.766-0.638c-0.135-0.209-0.236-0.433-0.309-0.671c-0.069-0.224-0.139-0.449-0.195-0.677
		l-1.028-3.553l-0.057-0.178c-0.078-0.25-0.134-0.513-0.156-0.777c-0.059-0.538,0.224-1.059,0.708-1.304
		c0.46-0.206,0.994-0.119,1.358,0.224c0.091,0.073,0.169,0.156,0.236,0.247c0.124,0.172,0.219,0.36,0.282,0.56
		c0.032,0.087,0.057,0.174,0.082,0.263l0.053,0.167l1.028,3.555c0.096,0.295,0.178,0.6,0.247,0.903
		c0.072,0.308,0.067,0.631-0.011,0.939c-0.059,0.232-0.154,0.453-0.282,0.657l4.888-1.545l-0.101-0.071
		c-0.308-0.137-0.577-0.354-0.768-0.634c-0.133-0.211-0.234-0.438-0.3-0.68c-0.069-0.224-0.139-0.442-0.201-0.668l-1.001-3.47
		c-0.115-0.433-0.247-0.857-0.401-1.274c-0.456-1.25-1.671-2.063-3.004-2.01c-0.803,0.035-1.588,0.266-2.282,0.68
		c-0.519,0.323-0.929,0.796-1.166,1.365C260.681,91.227,260.563,90.871,260.45,90.513"/>
	<path d="M252.048,104.479c1.389-0.347,2.604-1.183,3.429-2.353c1.124-1.838,1.107-4.151-0.045-5.968
		c-1.021-1.671-2.947-2.556-4.883-2.234c-1.472,0.171-2.843,0.858-3.863,1.941c-1.069,1.244-1.497,2.919-1.146,4.522
		c0.208,1.397,0.968,2.658,2.104,3.496c1.22,0.801,2.727,1.044,4.135,0.662C251.866,104.527,251.957,104.506,252.048,104.479
		 M251.788,102.438c-0.404,0.128-0.838,0.091-1.211-0.104c-0.328-0.192-0.605-0.466-0.801-0.792
		c-0.365-0.599-0.634-1.247-0.799-1.927c-0.144-0.484-0.228-0.979-0.243-1.484c-0.018-0.36,0.052-0.716,0.191-1.05
		c0.173-0.389,0.496-0.69,0.894-0.829c0.369-0.156,0.781-0.17,1.159-0.044c0.327,0.139,0.614,0.36,0.833,0.646
		c0.382,0.515,0.668,1.099,0.842,1.715c0.063,0.213,0.126,0.423,0.183,0.638c0.13,0.49,0.195,0.994,0.195,1.5
		c-0.005,0.334-0.083,0.666-0.232,0.966c-0.174,0.323-0.46,0.572-0.808,0.696C251.927,102.392,251.857,102.418,251.788,102.438"/>
	<path d="M237.899,97.8l0.1,0.108c0.302,0.152,0.547,0.396,0.716,0.682c0.117,0.224,0.204,0.456,0.261,0.696
		c0.469,1.932,0.911,3.865,1.337,5.806c0.078,0.302,0.143,0.604,0.195,0.907c0.057,0.314,0.037,0.638-0.059,0.941
		c-0.069,0.23-0.178,0.447-0.314,0.646l4.96-1.247l-0.091-0.076c-0.304-0.156-0.56-0.397-0.737-0.692
		c-0.117-0.215-0.204-0.447-0.261-0.688c-0.055-0.226-0.108-0.451-0.158-0.675l-1.823-7.784l-0.091,0.074
		c-0.224,0.206-0.482,0.36-0.769,0.458c-0.16,0.054-0.323,0.104-0.488,0.141L237.899,97.8"/>
	<path d="M240.069,96.802c0.815-0.187,1.438-0.854,1.566-1.684c0.087-0.495-0.004-1.005-0.256-1.437
		c-0.442-0.808-1.389-1.194-2.27-0.929c-0.391,0.117-0.728,0.354-0.983,0.672c-0.352,0.461-0.51,1.042-0.43,1.615
		c0.08,0.572,0.382,1.091,0.847,1.437c0.414,0.299,0.929,0.423,1.435,0.347L240.069,96.802"/>
	<path d="M231.22,106.48c0.069,0.41,0.169,0.812,0.286,1.206c0.124,0.417,0.343,0.79,0.643,1.099
		c0.311,0.291,0.692,0.49,1.106,0.577c0.875,0.174,1.779,0.108,2.613-0.199c0.33-0.122,0.659-0.234,0.989-0.344l0.525-2.026
		l0.004-0.023c0.005-0.02,0-0.037-0.009-0.053l-0.013-0.025l-0.015-0.018l-0.014-0.011l-0.021-0.009l-0.009-0.005l-0.013-0.004
		l-0.024-0.005l-0.021,0.005l-0.018,0.004l-0.013,0.009l-0.021,0.016l-0.02,0.018l-0.005,0.011l-0.013,0.025l-0.004,0.009v0.005
		v0.009l-0.005,0.02l-0.004,0.015l-0.014,0.024l-0.017,0.02l-0.009,0.004l-0.024,0.013l-0.013,0.005l-0.009,0.006
		c-0.304,0.059-0.612,0.076-0.925,0.048c-0.304-0.034-0.595-0.146-0.842-0.321c-0.199-0.153-0.352-0.366-0.434-0.605
		c-0.063-0.178-0.117-0.364-0.15-0.551l-0.056-0.282l-0.834-4.008l0.513-0.119c0.236-0.062,0.481-0.109,0.723-0.148
		c0.26-0.043,0.524,0.012,0.757,0.144c0.131,0.069,0.259,0.146,0.382,0.232l-0.512-2.624l-2.276,0.513l-0.634-3.062l-1.415,0.319
		l0.005,0.087c0.167,1.728-0.767,3.372-2.333,4.114c-0.101,0.048-0.2,0.087-0.304,0.126l0.308,1.479l1.235-0.277L231.22,106.48"/>
	<path d="M229.652,108.917c-0.295,0.059-0.599,0.063-0.896,0.012c-0.369-0.07-0.684-0.317-0.849-0.651
		c-0.126-0.252-0.222-0.521-0.278-0.794c-0.025-0.126-0.05-0.248-0.075-0.374c-0.033-0.178-0.065-0.352-0.096-0.527l-0.314-1.727
		c-0.035-0.193-0.074-0.385-0.113-0.578c-0.104-0.527-0.295-1.035-0.556-1.503c-0.369-0.628-0.985-1.083-1.696-1.253
		c-0.788-0.188-1.604-0.19-2.388-0.013c-0.881,0.154-1.736,0.432-2.545,0.818l-0.523,2.651l0.135-0.11
		c0.688-0.54,1.484-0.923,2.339-1.12c0.314-0.062,0.639-0.045,0.944,0.05c0.154,0.05,0.3,0.147,0.403,0.278
		c0.204,0.269,0.204,0.643-0.004,0.911c-0.092,0.119-0.204,0.226-0.326,0.312c-0.277,0.195-0.572,0.364-0.883,0.504
		c-0.543,0.238-1.076,0.499-1.602,0.772c-0.501,0.26-0.948,0.603-1.321,1.016c-0.469,0.592-0.692,1.337-0.643,2.085
		c0.057,0.753,0.393,1.452,0.944,1.969c0.473,0.473,1.1,0.751,1.766,0.787c0.491,0.033,0.983-0.002,1.468-0.1l1.037-0.273
		l0.551-2.049l-0.11,0.037c-0.158,0.065-0.328,0.104-0.504,0.113c-0.59-0.005-1.106-0.404-1.252-0.975
		c-0.069-0.185-0.087-0.389-0.052-0.584c0.039-0.19,0.126-0.369,0.247-0.517c0.146-0.185,0.321-0.349,0.51-0.488l0.183-0.143
		l0.604-0.454l0.126,0.71c0.064,0.444,0.156,0.888,0.265,1.323c0.121,0.508,0.378,0.971,0.742,1.344
		c0.69,0.653,1.621,0.985,2.569,0.92c0.295-0.013,0.59-0.048,0.879-0.108l0.807-0.229L229.652,108.917"/>
	<path d="M213.755,103.32l-0.133,0.067c-0.352,0.265-0.768,0.437-1.206,0.497l-2.896,0.521l0.087,0.084
		c0.323,0.211,0.582,0.515,0.721,0.879c0.085,0.239,0.146,0.488,0.181,0.742l0.885,5.725c0.057,0.311,0.1,0.619,0.137,0.934
		c0.035,0.314-0.011,0.629-0.123,0.929c-0.087,0.219-0.204,0.421-0.352,0.605l4.995-0.847l-0.087-0.084
		c-0.323-0.207-0.581-0.513-0.718-0.877c-0.087-0.239-0.148-0.49-0.183-0.742c-0.032-0.178-0.057-0.35-0.083-0.525l-0.51-3.276
		c-0.034-0.179-0.062-0.36-0.087-0.543c-0.017-0.149-0.013-0.3,0.02-0.447c0.03-0.156,0.101-0.304,0.187-0.434
		c0.396-0.593,1.051-0.962,1.763-0.985c0.277-0.013,0.556-0.004,0.833,0.023l-0.41-2.647l-0.776,0.067l-0.101,0.02
		c-0.646,0.111-1.215,0.479-1.579,1.022c-0.152,0.234-0.261,0.499-0.319,0.776C213.92,104.312,213.837,103.82,213.755,103.32"/>
	<path d="M203.985,115.89c1.415-0.156,2.726-0.82,3.688-1.872c1.342-1.68,1.606-3.979,0.687-5.921
		c-0.801-1.794-2.604-2.923-4.566-2.87c-1.479-0.031-2.921,0.469-4.071,1.406c-1.219,1.091-1.849,2.699-1.692,4.329
		c0.035,1.421,0.63,2.767,1.658,3.752c1.106,0.957,2.562,1.397,4.019,1.211C203.799,115.916,203.89,115.903,203.985,115.89
		 M203.977,113.833c-0.419,0.073-0.847-0.022-1.189-0.268c-0.304-0.231-0.542-0.536-0.696-0.888
		c-0.289-0.642-0.476-1.325-0.552-2.022c-0.082-0.494-0.106-1-0.061-1.501c0.026-0.36,0.135-0.706,0.317-1.016
		c0.223-0.36,0.583-0.614,0.993-0.703c0.382-0.104,0.795-0.065,1.148,0.114c0.316,0.181,0.577,0.443,0.751,0.758
		c0.316,0.56,0.527,1.172,0.622,1.806c0.042,0.219,0.07,0.434,0.096,0.657c0.074,0.502,0.074,1.012,0.016,1.517
		c-0.046,0.33-0.161,0.651-0.343,0.925c-0.213,0.3-0.53,0.506-0.886,0.582C204.115,113.807,204.046,113.822,203.977,113.833"/>
	<path d="M190.292,113.984c0.03,0.417,0.082,0.829,0.156,1.239c0.078,0.423,0.256,0.825,0.519,1.165
		c0.284,0.321,0.643,0.562,1.048,0.692c0.847,0.278,1.754,0.311,2.617,0.103c0.339-0.083,0.682-0.156,1.024-0.229l0.729-1.955
		c0.013-0.03,0.013-0.064,0-0.096c-0.014-0.03-0.039-0.052-0.069-0.062c-0.031-0.009-0.063-0.009-0.092,0.009l-0.018,0.015
		l-0.013,0.014l-0.013,0.021l-0.005,0.013l-0.009,0.016l-0.004,0.018l-0.011,0.015l-0.018,0.026L196.118,115l-0.013,0.009
		l-0.021,0.009l-0.009,0.004h-0.016c-0.308,0.026-0.614,0.007-0.92-0.052c-0.3-0.069-0.572-0.21-0.801-0.412
		c-0.182-0.178-0.314-0.403-0.369-0.653c-0.047-0.185-0.078-0.38-0.095-0.57l-0.033-0.287l-0.403-4.075l0.521-0.057
		c0.241-0.034,0.486-0.057,0.729-0.064c0.263-0.012,0.527,0.069,0.742,0.229c0.126,0.083,0.241,0.174,0.355,0.273l-0.234-2.665
		l-2.321,0.257l-0.309-3.125l-1.44,0.164v0.078c-0.009,1.73-1.111,3.265-2.748,3.826c-0.104,0.032-0.204,0.063-0.312,0.087
		l0.147,1.508l1.248-0.139L190.292,113.984"/>
	<path d="M178.699,118.292c1.311,0.236,2.647,0.298,3.976,0.17c1.063-0.098,2.09-0.419,3.025-0.94
		c0.601-0.345,1.083-0.872,1.378-1.501c0.542-1.172,0.238-2.563-0.742-3.405c-0.564-0.492-1.232-0.844-1.958-1.028
		c-0.199-0.057-0.403-0.111-0.605-0.156l-0.898-0.202c-0.173-0.039-0.343-0.096-0.503-0.174c-0.139-0.069-0.256-0.171-0.343-0.302
		c-0.087-0.141-0.126-0.306-0.113-0.475c0.014-0.128,0.072-0.243,0.163-0.332c0.115-0.104,0.247-0.183,0.397-0.232
		c0.34-0.113,0.7-0.16,1.062-0.144c0.808,0.02,1.604,0.243,2.301,0.649l-0.174-2.272l-0.199-0.034
		c-1.498-0.239-3.021-0.209-4.505,0.098c-0.884,0.182-1.693,0.631-2.31,1.289c-0.686,0.766-0.925,1.829-0.623,2.81
		c0.15,0.44,0.428,0.825,0.801,1.107c0.435,0.334,0.916,0.599,1.435,0.787l1.854,0.662c0.241,0.089,0.478,0.204,0.696,0.343
		c0.133,0.078,0.243,0.185,0.334,0.306c0.074,0.115,0.117,0.25,0.113,0.389c0.004,0.256-0.113,0.499-0.316,0.651
		c-0.17,0.13-0.36,0.217-0.569,0.267c-0.455,0.11-0.929,0.142-1.397,0.096c-1.03-0.098-2.026-0.406-2.93-0.9L178.699,118.292"/>
	<path d="M175.922,115.925c-0.89,0.584-1.88,0.998-2.917,1.23c-0.76,0.169-1.556,0.062-2.248-0.302
		c-0.859-0.501-1.419-1.389-1.511-2.379c-0.013-0.114-0.021-0.229-0.025-0.345l6.497-0.323l-0.009-0.156
		c-0.052-1.007-0.323-1.992-0.799-2.884c-0.595-1.062-1.641-1.791-2.843-1.986c-1.792-0.405-3.661,0.122-4.986,1.394
		c-1.216,1.285-1.734,3.079-1.398,4.813c0.179,1.476,1.008,2.791,2.264,3.585c0.812,0.442,1.717,0.69,2.642,0.712
		c1.595,0.151,3.196-0.139,4.631-0.84L175.922,115.925 M169.134,112.266c0.017-0.416,0.158-0.815,0.407-1.149
		c0.43-0.517,1.155-0.682,1.767-0.399c0.296,0.147,0.521,0.41,0.63,0.725c0.082,0.217,0.126,0.444,0.13,0.677L169.134,112.266"/>
	<path d="M157.61,113.338l2.521,4.739c0.183,0.352,0.421,0.675,0.708,0.953c0.304,0.273,0.691,0.44,1.098,0.475
		c0.343,0.035,0.69,0.031,1.028-0.006l2.896-0.25l-0.078-0.064c-0.647-0.578-1.207-1.25-1.647-1.992
		c-0.119-0.179-0.228-0.36-0.334-0.543l-2.569-4.318l0.128-0.061c0.896-0.417,1.619-1.138,2.035-2.036
		c0.678-1.636,0.126-3.523-1.325-4.542c-0.456-0.312-0.983-0.51-1.535-0.572c-0.41-0.059-0.819-0.081-1.234-0.063l-0.378,0.014
		l-6.215,0.112l0.028,0.083c0.399,0.265,0.677,0.67,0.781,1.133c0.082,0.343,0.121,0.691,0.121,1.043l0.005,0.651l0.144,8.379
		c0,0.141,0.004,0.282,0.008,0.428c0.009,0.18,0.014,0.359,0.014,0.542c0.009,0.348-0.03,0.692-0.108,1.035
		c-0.104,0.449-0.365,0.847-0.742,1.109l5.646-0.067l-0.021-0.083c-0.402-0.26-0.68-0.668-0.788-1.133
		c-0.078-0.338-0.122-0.692-0.122-1.041l-0.004-0.651v-0.215L157.61,113.338 M157.719,107.214c0.265-0.009,0.529,0.018,0.788,0.082
		c0.494,0.161,0.888,0.532,1.085,1.016c0.499,1.198,0.135,2.583-0.89,3.379c-0.326,0.245-0.703,0.415-1.103,0.488l-0.091-4.961
		L157.719,107.214"/>
	<path d="M134.916,110.769c0.415-0.339,0.788-0.721,1.12-1.137c0.755-0.93,0.89-2.214,0.339-3.279
		c-0.482-0.831-1.298-1.413-2.244-1.595c-1.152-0.263-2.354-0.148-3.435,0.325c-0.66,0.291-1.187,0.82-1.478,1.479
		c-0.33,0.812-0.31,1.722,0.059,2.518c0.195,0.435,0.438,0.849,0.725,1.232c0.178,0.248,0.364,0.495,0.56,0.733l-0.137,0.09
		c-0.774,0.514-1.471,1.137-2.072,1.849c-0.503,0.601-0.825,1.339-0.924,2.118c-0.135,1.325,0.438,2.625,1.506,3.418
		c0.944,0.694,2.077,1.069,3.244,1.076c0.888,0.064,1.789-0.057,2.63-0.352c0.72-0.287,1.354-0.751,1.845-1.346l0.125,0.126
		c0.875,0.907,2.053,1.467,3.308,1.575c0.321,0.037,0.638,0.055,0.955,0.063l3.576-0.224l-0.269-0.183
		c-2.769-1.688-5.26-3.793-7.382-6.248L134.916,110.769 M135.28,116.419c-0.386,0.591-1.038,0.955-1.741,0.977
		c-0.701,0.026-1.375-0.29-1.803-0.851c-0.393-0.555-0.564-1.236-0.488-1.909c0.078-0.673,0.401-1.296,0.907-1.749L135.28,116.419
		 M133.323,109.076c-0.178-0.204-0.347-0.413-0.512-0.623c-0.134-0.172-0.245-0.36-0.328-0.56c-0.056-0.137-0.078-0.289-0.065-0.438
		c0.03-0.28,0.221-0.515,0.49-0.602c0.41-0.126,0.853,0.041,1.068,0.406c0.178,0.286,0.208,0.638,0.074,0.946
		c-0.074,0.178-0.178,0.34-0.311,0.479C133.609,108.826,133.47,108.959,133.323,109.076"/>
	<path d="M114.287,114.597l-1.356-4.273l-0.156-0.51c-0.048-0.158-0.096-0.318-0.148-0.473c-0.071-0.22-0.134-0.44-0.167-0.669
		l-0.011-0.106l-4.603-0.336l0.021,0.082c0.334,0.282,0.601,0.639,0.786,1.038c0.161,0.332,0.297,0.675,0.406,1.026l1.853,5.575
		c0.156,0.516,0.378,1.013,0.668,1.469c0.256,0.389,0.577,0.727,0.951,1.011l-0.045,0.131c-0.156,0.488-0.387,0.952-0.682,1.371
		c-0.419,0.614-1.126,0.97-1.869,0.939c-0.108,0.003-0.217-0.009-0.323-0.032c-0.091-0.023-0.187-0.055-0.273-0.089l-1.788,2.083
		l0.938,0.126l0.2,0.013c0.846,0.074,1.693-0.006,2.509-0.238c1.024-0.309,1.875-1.028,2.348-1.99c0.2-0.38,0.378-0.771,0.539-1.167
		l4.596-10.597l-3.077-0.234l0.017,0.093c0.159,0.172,0.287,0.374,0.36,0.598c0.059,0.208,0.072,0.425,0.039,0.642
		c-0.035,0.22-0.091,0.435-0.165,0.647c-0.05,0.147-0.108,0.297-0.169,0.442L114.287,114.597"/>
	<path d="M101.158,117.603l4.536,0.423l-0.065-0.126c-0.397-0.481-0.616-1.081-0.627-1.706c-0.015-0.395,0-0.789,0.045-1.183
		l0.026-0.238l1.063-11.53l-0.091,0.009c-0.332,0.152-0.694,0.229-1.063,0.211c-0.156-0.002-0.314-0.011-0.466-0.026l-0.248-0.028
		l-2.537-0.221l0.063,0.102c0.265,0.284,0.434,0.646,0.484,1.035c0.024,0.2,0.031,0.399,0.02,0.602
		c-0.002,0.112-0.006,0.224-0.011,0.336l-0.013,0.178l-0.011,0.191l-0.215,2.358l-0.134-0.104c-0.953-0.738-2.17-1.044-3.357-0.84
		c-1.185,0.204-2.233,0.894-2.884,1.905c-0.091,0.137-0.174,0.277-0.248,0.419c-1.265,2.129-1.05,4.821,0.534,6.721
		c0.75,0.833,1.796,1.345,2.914,1.43c0.183,0.026,0.365,0.026,0.547,0l0.052-0.009l0.043-0.011l0.059-0.018l0.03-0.009l0.028-0.011
		l1.152-1.755l-0.291-0.03c-0.918-0.135-1.658-0.812-1.866-1.715c-0.137-0.538-0.178-1.098-0.119-1.649
		c0.03-0.593,0.149-1.174,0.352-1.731c0.113-0.317,0.295-0.607,0.531-0.847c0.265-0.252,0.617-0.395,0.981-0.391
		c0.365,0.005,0.716,0.146,0.977,0.401c0.282,0.304,0.428,0.706,0.417,1.12c-0.004,0.199-0.018,0.401-0.042,0.597L101.158,117.603"
		/>
	<path d="M86.738,115.985c1.397,0.236,2.83-0.048,4.027-0.803c1.721-1.276,2.55-3.434,2.133-5.536
		c-0.328-1.946-1.775-3.518-3.689-4.008c-1.411-0.432-2.928-0.343-4.284,0.249c-1.454,0.728-2.465,2.114-2.713,3.727
		c-0.319,1.389-0.078,2.847,0.668,4.066c0.822,1.224,2.123,2.044,3.579,2.264C86.555,115.959,86.646,115.973,86.738,115.985
		 M87.239,113.998c-0.419-0.048-0.812-0.254-1.081-0.582c-0.232-0.311-0.389-0.668-0.452-1.051c-0.117-0.694-0.128-1.405-0.03-2.104
		c0.042-0.501,0.144-0.992,0.315-1.467c0.115-0.337,0.308-0.643,0.562-0.895c0.304-0.288,0.714-0.438,1.135-0.408
		c0.399,0,0.786,0.152,1.081,0.422c0.254,0.26,0.437,0.581,0.53,0.933c0.167,0.625,0.221,1.274,0.154,1.916
		c-0.017,0.224-0.039,0.437-0.067,0.658c-0.057,0.503-0.18,0.996-0.367,1.467c-0.122,0.308-0.317,0.584-0.566,0.803
		c-0.28,0.23-0.636,0.341-0.996,0.321l-0.052-0.002C87.347,114.009,87.295,114.004,87.239,113.998"/>
	<path d="M75.071,98.642l-0.083,0.003c-0.256,0.128-0.536,0.185-0.818,0.167c-0.167-0.009-0.332-0.026-0.497-0.057l-0.21-0.035
		l-2.737-0.442l0.05,0.108c0.217,0.271,0.352,0.595,0.399,0.934c0.02,0.195,0.018,0.395-0.004,0.59
		c-0.026,0.22-0.054,0.438-0.089,0.658c-0.479,3.358-1.007,6.712-1.595,10.054c-0.033,0.241-0.076,0.478-0.135,0.712
		c-0.076,0.304-0.256,0.572-0.514,0.753l-0.052,0.054c-0.018,0.02-0.039,0.037-0.057,0.053l0.258,0.139
		c1.843,0.833,3.826,1.317,5.846,1.433c1.191,0.056,2.37-0.261,3.37-0.912c2.205-1.602,2.982-4.531,1.854-7.014
		c-0.727-1.428-2.144-2.372-3.737-2.504c-0.163-0.009-0.323,0-0.486,0.025l-1.265,1.672l0.089,0.02
		c0.578,0.128,1.089,0.444,1.458,0.906c0.341,0.478,0.538,1.044,0.564,1.63c0.065,0.92-0.1,1.845-0.476,2.691
		c-0.226,0.514-0.623,0.939-1.122,1.197c-0.655,0.287-1.402,0.265-2.038-0.061L75.071,98.642"/>
	<path d="M60.473,111.04c1.375,0.332,2.825,0.146,4.073-0.523c1.799-1.156,2.767-3.253,2.48-5.373
		c-0.207-1.971-1.545-3.637-3.424-4.26c-1.378-0.527-2.899-0.545-4.288-0.046c-1.5,0.625-2.596,1.94-2.943,3.522
		c-0.41,1.369-0.263,2.845,0.404,4.107c0.742,1.276,1.985,2.184,3.424,2.509C60.291,110.999,60.382,111.021,60.473,111.04
		 M61.104,109.089c-0.419-0.074-0.794-0.309-1.044-0.653c-0.215-0.325-0.345-0.694-0.386-1.078
		c-0.067-0.703-0.035-1.411,0.111-2.101c0.069-0.497,0.208-0.979,0.404-1.439c0.137-0.327,0.347-0.622,0.616-0.856
		c0.323-0.268,0.742-0.387,1.157-0.328c0.399,0.032,0.777,0.211,1.055,0.501c0.238,0.273,0.401,0.605,0.475,0.966
		c0.124,0.632,0.134,1.285,0.026,1.921c-0.028,0.222-0.065,0.438-0.108,0.651c-0.089,0.499-0.243,0.984-0.46,1.438
		c-0.139,0.302-0.352,0.562-0.614,0.762c-0.293,0.213-0.658,0.304-1.013,0.252C61.246,109.115,61.176,109.104,61.104,109.089"/>
	<path d="M48.171,104.208c-0.102,0.401-0.18,0.812-0.23,1.227c-0.061,0.428-0.013,0.868,0.132,1.273
		c0.163,0.401,0.432,0.749,0.777,1.012c0.705,0.545,1.552,0.883,2.443,0.979c0.345,0.041,0.69,0.082,1.035,0.133l1.3-1.608
		l0.013-0.018c0.006-0.013,0.011-0.028,0.013-0.041l0.004-0.018l-0.007-0.028l-0.006-0.021l-0.018-0.026l-0.008-0.013l-0.007-0.004
		l-0.006-0.005l-0.018-0.013l-0.021-0.009h-0.02h-0.018l-0.026,0.004l-0.018,0.009l-0.013,0.009l-0.02,0.016
		c-0.004,0-0.009,0.002-0.011,0.006c-0.002,0.005-0.004,0.009-0.002,0.014l-0.013,0.018l-0.011,0.008l-0.024,0.018l-0.024,0.009
		c-0.017,0.013-0.041,0.013-0.059,0c-0.299-0.082-0.588-0.204-0.853-0.364c-0.26-0.165-0.479-0.396-0.629-0.664
		c-0.122-0.226-0.171-0.482-0.15-0.738c0.013-0.19,0.042-0.382,0.083-0.572l0.067-0.278l0.875-3.999l0.512,0.128
		c0.241,0.045,0.482,0.11,0.714,0.182c0.256,0.083,0.479,0.246,0.625,0.469c0.096,0.122,0.178,0.248,0.254,0.383l0.604-2.604
		l-2.272-0.543l0.673-3.058L52.4,95.135l-0.028,0.083c-0.538,1.628-2.072,2.717-3.785,2.69c-0.108-0.004-0.219-0.013-0.325-0.023
		l-0.324,1.474l1.23,0.293L48.171,104.208"/>
	<path d="M40.232,94.593l-0.143,0.013c-0.319,0.076-0.651,0.083-0.974,0.014c-0.13-0.026-0.254-0.055-0.382-0.092l-2.812-0.729
		l0.045,0.11c0.191,0.286,0.308,0.614,0.33,0.961c0.009,0.25-0.017,0.499-0.074,0.742c-0.369,1.61-0.764,3.212-1.189,4.805
		l-0.05,0.195c-0.124,0.438-0.198,0.89-0.224,1.346c-0.039,0.716,0.239,1.415,0.757,1.914c0.876,0.847,2.094,1.25,3.307,1.087
		c0.58-0.102,1.118-0.362,1.556-0.751l-0.282,1.124l4.216,1.113l-0.045-0.114c-0.193-0.282-0.302-0.61-0.319-0.953
		c-0.004-0.249,0.026-0.499,0.086-0.742c0.035-0.165,0.072-0.332,0.113-0.499l0.046-0.187l1.899-7.761l-0.117,0.014
		c-0.358,0.078-0.727,0.078-1.083-0.009c-0.098-0.021-0.195-0.048-0.291-0.071L41.811,95.4l0.045,0.11
		c0.195,0.284,0.31,0.614,0.334,0.957c0.009,0.249-0.02,0.501-0.074,0.746c-0.052,0.229-0.106,0.456-0.165,0.687l-0.859,3.441
		c-0.052,0.243-0.119,0.481-0.191,0.721c-0.039,0.117-0.084,0.229-0.139,0.338c-0.098,0.204-0.237,0.382-0.408,0.523
		c-0.215,0.158-0.473,0.232-0.738,0.206c-0.251-0.013-0.495-0.096-0.699-0.241c-0.195-0.153-0.323-0.375-0.369-0.622
		c-0.043-0.23-0.046-0.474-0.015-0.708c0.05-0.378,0.13-0.751,0.236-1.115l0.05-0.2l0.052-0.188L40.232,94.593"/>
	<path d="M28.347,96.997l0.087,2.248l0.008,0.131c0.009,0.086,0.011,0.173,0.011,0.26c-0.002,0.113-0.02,0.226-0.048,0.334
		c-0.045,0.209-0.132,0.41-0.252,0.586c-0.128,0.17-0.295,0.302-0.488,0.389c-0.158,0.083-0.325,0.154-0.495,0.213l6.079,1.895
		l-0.065-0.178c-0.295-0.495-0.51-1.033-0.646-1.593c-0.081-0.408-0.128-0.82-0.139-1.235l-0.037-0.519l-0.723-12.014l-4.946-1.497
		l0.057,0.108c0.173,0.215,0.297,0.465,0.367,0.729c0.067,0.277,0.039,0.568-0.076,0.829c-0.143,0.286-0.306,0.563-0.495,0.824
		c-0.106,0.154-0.21,0.312-0.314,0.469c-1.66,2.587-3.396,5.126-5.21,7.61c-0.23,0.341-0.484,0.669-0.753,0.979
		c-0.374,0.428-0.825,0.781-1.335,1.037l4.127,1.281l-0.091-0.188l-0.05-0.082c-0.102-0.149-0.18-0.316-0.239-0.488
		c-0.076-0.25-0.067-0.515,0.026-0.762c0.083-0.226,0.191-0.44,0.323-0.643c0.139-0.229,0.289-0.455,0.445-0.677l0.886-1.278
		L28.347,96.997 M28.241,94.838l-2.734-0.853l2.518-3.725L28.241,94.838"/>
</g>
</svg>
