<?xml version="1.0" encoding="utf-8"?>
<!-- Generator: Adobe Illustrator 16.0.0, SVG Export Plug-In . SVG Version: 6.00 Build 0)  -->
<!DOCTYPE svg PUBLIC "-//W3C//DTD SVG 1.1//EN" "http://www.w3.org/Graphics/SVG/1.1/DTD/svg11.dtd">
<svg version="1.1" id="Layer_1" xmlns="http://www.w3.org/2000/svg" xmlns:xlink="http://www.w3.org/1999/xlink" x="0px" y="0px"
	 width="733.857px" height="300px" viewBox="122.31 50 733.857 300" enable-background="new 122.31 50 733.857 300"
	 xml:space="preserve">
<g>
	<path fill="#E0E0E0" d="M535.475,59.597l-2.002,0.026c41.662,4.032,82.98,11.028,123.646,20.938
		c25.926,6.731,50.836,16.907,74.059,30.25c10.273,6.029,19.439,13.784,27.08,22.921c4.713,5.796,7.936,12.652,9.393,19.976
		c1.387,9.296-0.742,18.775-5.969,26.586c-5.842,8.711-13.311,16.215-21.992,22.096c-18.521,12.467-38.734,22.214-60.021,28.946
		c-69.787,21.203-142.332,31.938-215.271,31.86c-8.169,0.123-16.34,0.143-24.51,0.058c9.13,1.318,18.302,2.344,27.497,3.069
		c92.065,7.271,184.7-0.615,274.21-23.348c25.725-6.893,50.352-17.372,73.154-31.131c8.586-5.436,16.355-12.059,23.074-19.68
		c6.941-7.741,11.004-17.635,11.502-28.022l-0.291-4.395c-1.393-8.719-5.229-16.864-11.068-23.485
		c-8.816-9.978-19.332-18.309-31.064-24.604c-29.926-15.832-61.969-27.285-95.15-34.01
		C653.777,65.524,594.703,59.474,535.475,59.597"/>
	<path fill="#E0E0E0" d="M528.605,61.282l-1.121-0.172c-10.986-1.241-22.008-2.156-33.045-2.741
		c-74.351-3.865-148.892,1.718-221.834,16.613c-33.58,6.651-66.062,17.971-96.5,33.625c-11.882,6.218-22.594,14.45-31.662,24.329
		c-6.088,6.603-10.115,14.838-11.586,23.699l-0.312,4.448c0.223,8.694,3.231,17.09,8.586,23.946
		c6.386,8.236,14.094,15.352,22.814,21.064c17.598,11.286,36.576,20.257,56.467,26.691c69.699,21.198,142.147,31.999,215,32.05
		c-38.741-4.05-77.024-11.688-114.356-22.811c-23.986-6.937-46.84-17.315-67.847-30.813c-8.723-5.736-16.408-12.917-22.724-21.232
		c-4.4-5.908-7.247-12.827-8.274-20.121l-0.24-4.066c0.342-9.591,3.863-18.795,10.007-26.168
		c7.514-9.075,16.522-16.803,26.633-22.848c22.863-13.379,47.429-23.601,73.036-30.387
		C396.099,70.377,462.199,61.952,528.605,61.282"/>
	<path fill="#E0E0E0" d="M617.131,167.958l7.789-0.007c3.625-0.198,7.262,0.117,10.805,0.933c2.758,0.738,4.928,2.855,5.738,5.594
		l0.965-7.186l0.482-3.764l1.896-14.415c-2.242,0.53-4.527,0.823-6.824,0.875l-18.824,0.033l3.328-29.308
		c0.094-0.015,0.186-0.025,0.279-0.035c5.438-0.088,10.879-0.071,16.314,0.054c5.449,0.476,10.477,3.128,13.943,7.356l3.268-26.063
		c-2.018,0.577-4.105,0.862-6.201,0.852l-67.508,0.04c-0.342,0-0.684,0.004-1.025,0.013c4.348,4.455,6.617,10.539,6.248,16.753
		c-0.486,2.786-0.863,5.59-1.127,8.405l-7.898,69.988c-0.344,3.704-0.83,7.4-1.469,11.067c-1.156,5.245-4.404,9.789-8.996,12.579
		l83.564,0.258l10.662-27.211c-13.963,10.221-32.012,13.027-48.416,7.531l-0.809-0.361c0.029-0.338,0.061-0.68,0.1-1.019
		L617.131,167.958"/>
	<path fill="#E0E0E0" d="M544.617,123.389l0.324-0.074c4.59-1.062,9.326-1.346,14.012-0.842c4.361,0.916,8.064,3.777,10.049,7.769
		l9.424-27.051l0.066-0.232c-0.236-0.023-0.473-0.036-0.717-0.04h-80.809c-3.251,0.204-6.524,0.021-9.736-0.537l-10.458,27.624
		l-0.107,0.271l0.193-0.119c9.203-6.512,20.649-9.024,31.735-6.967l0.988,0.219c-0.016,0.287-0.033,0.573-0.066,0.856l-7.518,66.792
		c-0.305,6.018-1.332,11.978-3.059,17.751c-1.465,4.965-4.277,9.431-8.136,12.885l-0.259,0.153l29.012,0.161l21.326,0.104
		c0.303,0.007,0.604,0.003,0.904-0.006l-0.105-0.312c-3.689-3.981-5.822-9.153-6.025-14.575c0.049-4.182,0.379-8.358,0.979-12.496
		L544.617,123.389"/>
	<path fill="#E0E0E0" d="M470.432,149.079c0.934-9.553,2.007-19.095,3.228-28.619c0.299-1.833,0.67-3.653,1.109-5.458
		c1.189-4.978,4.372-9.246,8.806-11.806l-50.083-0.273l-0.783-0.006c4.867,4.036,7.185,10.384,6.064,16.606l-8.898,79.29
		c-0.172,4.755-1.078,9.458-2.685,13.939c-1.52,3.851-4.315,7.062-7.921,9.097l50.805,0.159L470,221.442l-0.186-0.128
		c-2.717-1.868-4.638-4.692-5.377-7.91c-0.278-1.385-0.434-2.797-0.466-4.207c-0.04-1.207-0.023-2.414,0.054-3.618L470.432,149.079"
		/>
	<path fill="#E0E0E0" d="M345.32,167.778h33.87l-3.792,33.95c-0.212,3.554-0.943,7.057-2.171,10.397
		c-1.415,4.122-4.296,7.584-8.094,9.722l50.638,0.274c-3.123-2.669-5.167-6.388-5.745-10.453c-0.245-2.096-0.272-4.207-0.087-6.311
		l5.466-48.602c1.063-11.243,2.322-22.468,3.773-33.666c0.198-4.823,1.516-9.532,3.853-13.759c1.589-2.586,3.839-4.701,6.52-6.128
		l-1.361-0.02l-48.824-0.26l-0.791-0.007c1.413,1.282,2.67,2.726,3.75,4.297c0.692,1.035,1.241,2.157,1.628,3.34
		c0.648,2.679,0.904,5.44,0.762,8.193l-0.151,1.333l-3.307,29.396h-33.864l2.8-25.192c0.164-2.289,0.469-4.571,0.91-6.825
		l0.286-1.455c0.79-3.57,2.523-6.865,5.02-9.535c0.854-0.92,1.809-1.743,2.849-2.449c0.397-0.276,0.802-0.539,1.215-0.79
		c-0.384-0.026-0.771-0.041-1.155-0.047l-48.831-0.261l-0.698-0.005c1.626,1.582,3.046,3.362,4.23,5.299
		c0.933,1.606,1.487,3.402,1.627,5.253c0.31,2.178,0.349,4.39,0.113,6.578l-9.389,83.135c-0.245,2.962-0.882,5.874-1.891,8.666
		c-1.382,4.249-4.315,7.819-8.216,9.999l48.707,0.252c0.356-0.004,0.708,0,1.062,0.014c0.363-0.005,0.728-0.014,1.088-0.026
		c-1.712-1.536-3.177-3.329-4.355-5.306c-1.833-4.162-2.351-8.786-1.482-13.25L345.32,167.778"/>
	<path fill="#E0E0E0" d="M819.008,250.038l-0.41,0.262c-1.045,0.898-2.26,1.572-3.576,1.985l-7.66,2.52l0.279,0.215
		c0.891,0.399,1.652,1.037,2.193,1.847c0.375,0.599,0.666,1.246,0.863,1.921c1.643,5.412,3.219,10.841,4.734,16.289
		c0.268,0.853,0.506,1.714,0.703,2.587c0.215,0.884,0.209,1.807-0.018,2.686c-0.174,0.662-0.445,1.295-0.805,1.875l13.941-4.427
		l-0.27-0.197c-0.889-0.385-1.646-1.014-2.186-1.814c-0.383-0.597-0.678-1.243-0.879-1.92c-0.201-0.642-0.391-1.285-0.562-1.936
		l-2.936-10.134l-0.152-0.512c-0.23-0.721-0.385-1.465-0.455-2.219c-0.168-1.544,0.639-3.028,2.027-3.727
		c1.309-0.589,2.84-0.339,3.883,0.641c0.256,0.207,0.482,0.444,0.682,0.706c0.344,0.487,0.615,1.026,0.801,1.596
		c0.086,0.251,0.166,0.497,0.24,0.751l0.141,0.484l2.947,10.141c0.266,0.852,0.5,1.713,0.699,2.586
		c0.213,0.884,0.207,1.805-0.016,2.685c-0.174,0.663-0.447,1.298-0.811,1.876l13.951-4.418l-0.279-0.202
		c-0.885-0.383-1.648-1.008-2.193-1.81c-0.377-0.602-0.668-1.251-0.857-1.935c-0.205-0.638-0.393-1.271-0.568-1.918l-2.867-9.903
		c-0.32-1.229-0.699-2.442-1.145-3.637c-1.301-3.578-4.766-5.897-8.572-5.739c-2.301,0.091-4.541,0.756-6.52,1.937
		c-1.494,0.916-2.66,2.28-3.332,3.898C819.666,252.072,819.324,251.058,819.008,250.038"/>
	<path fill="#E0E0E0" d="M795.006,289.927c3.965-0.993,7.438-3.379,9.793-6.723c3.209-5.243,3.154-11.852-0.143-17.039
		c-2.906-4.771-8.422-7.299-13.936-6.383c-4.215,0.489-8.129,2.456-11.037,5.544c-3.07,3.549-4.285,8.339-3.273,12.921
		c0.598,3.993,2.76,7.586,6.016,9.978c3.479,2.293,7.775,2.982,11.803,1.896C794.486,290.061,794.748,289.996,795.006,289.927
		 M794.252,284.091c-1.143,0.363-2.387,0.259-3.451-0.3c-0.941-0.549-1.732-1.327-2.295-2.255c-1.041-1.71-1.809-3.569-2.273-5.509
		c-0.418-1.375-0.648-2.799-0.699-4.233c-0.045-1.029,0.143-2.053,0.545-2.998c0.492-1.108,1.414-1.965,2.557-2.372
		c1.047-0.448,2.223-0.488,3.301-0.111c0.949,0.388,1.773,1.028,2.385,1.847c1.096,1.468,1.91,3.125,2.402,4.885
		c0.193,0.604,0.365,1.212,0.52,1.824c0.371,1.396,0.561,2.837,0.559,4.282c-0.004,0.955-0.227,1.898-0.658,2.754
		c-0.494,0.923-1.312,1.635-2.297,1.99C794.65,283.97,794.453,284.034,794.252,284.091"/>
	<path fill="#E0E0E0" d="M754.59,270.843l0.279,0.311c0.859,0.442,1.566,1.122,2.055,1.95c0.336,0.629,0.586,1.298,0.742,1.99
		c1.332,5.517,2.604,11.04,3.814,16.579c0.223,0.853,0.412,1.715,0.561,2.583c0.158,0.9,0.1,1.822-0.172,2.694
		c-0.201,0.654-0.508,1.28-0.895,1.846l14.168-3.56l-0.26-0.217c-0.867-0.454-1.598-1.141-2.104-1.984
		c-0.336-0.618-0.584-1.279-0.744-1.965c-0.168-0.638-0.318-1.282-0.457-1.927l-5.213-22.229l-0.266,0.206
		c-0.629,0.591-1.375,1.037-2.191,1.315c-0.455,0.16-0.918,0.296-1.387,0.407L754.59,270.843"/>
	<path fill="#E0E0E0" d="M760.785,267.998c2.338-0.533,4.111-2.438,4.48-4.808c0.242-1.413-0.018-2.867-0.729-4.112
		c-1.273-2.297-3.973-3.399-6.49-2.652c-1.111,0.341-2.086,1.017-2.805,1.932c-1.012,1.307-1.455,2.965-1.23,4.604
		c0.225,1.637,1.094,3.116,2.42,4.102c1.18,0.857,2.648,1.215,4.088,0.997L760.785,267.998"/>
	<path fill="#E0E0E0" d="M735.508,295.646c0.205,1.165,0.48,2.315,0.822,3.447c0.344,1.183,0.973,2.258,1.836,3.142
		c0.881,0.82,1.975,1.389,3.158,1.636c2.49,0.505,5.076,0.311,7.465-0.569c0.938-0.343,1.877-0.667,2.828-0.979l1.5-5.788
		l0.012-0.066c0.006-0.053-0.004-0.102-0.023-0.151l-0.039-0.077l-0.043-0.044l-0.035-0.029l-0.057-0.034l-0.031-0.011l-0.037-0.009
		l-0.064-0.008l-0.059,0.008l-0.049,0.015l-0.039,0.02l-0.064,0.046l-0.041,0.046l-0.023,0.037l-0.027,0.062l-0.01,0.032
		l-0.004,0.016l-0.002,0.018l-0.012,0.054l-0.016,0.046l-0.041,0.068l-0.037,0.044l-0.033,0.025l-0.061,0.033l-0.031,0.014
		l-0.033,0.01c-0.869,0.169-1.754,0.216-2.637,0.143c-0.865-0.095-1.695-0.412-2.402-0.914c-0.578-0.443-1.006-1.045-1.244-1.729
		c-0.189-0.516-0.336-1.042-0.438-1.582l-0.16-0.8l-2.383-11.449l1.469-0.334c0.678-0.178,1.369-0.319,2.062-0.424
		c0.748-0.118,1.508,0.028,2.16,0.412c0.381,0.194,0.748,0.415,1.092,0.666l-1.461-7.494l-6.506,1.471l-1.811-8.75l-4.045,0.914
		l0.021,0.246c0.477,4.928-2.189,9.627-6.664,11.744c-0.285,0.131-0.574,0.248-0.867,0.353l0.885,4.226l3.514-0.789L735.508,295.646
		"/>
	<path fill="#E0E0E0" d="M731.039,302.599c-0.85,0.171-1.721,0.187-2.572,0.035c-1.049-0.207-1.945-0.896-2.414-1.86
		c-0.361-0.722-0.631-1.486-0.791-2.277c-0.08-0.353-0.152-0.706-0.223-1.063c-0.098-0.502-0.191-1.008-0.281-1.51l-0.891-4.928
		c-0.094-0.553-0.205-1.104-0.324-1.651c-0.299-1.504-0.834-2.953-1.584-4.29c-1.059-1.802-2.809-3.095-4.842-3.58
		c-2.244-0.535-4.576-0.545-6.82-0.034c-2.518,0.441-4.965,1.226-7.27,2.332l-1.494,7.571l0.377-0.307
		c1.965-1.548,4.246-2.642,6.68-3.199c0.902-0.182,1.826-0.133,2.695,0.145c0.451,0.148,0.852,0.421,1.15,0.79
		c0.584,0.771,0.578,1.839-0.014,2.605c-0.258,0.342-0.572,0.64-0.924,0.888c-0.795,0.561-1.639,1.042-2.525,1.442
		c-1.557,0.678-3.082,1.417-4.584,2.207c-1.416,0.739-2.689,1.721-3.766,2.898c-1.336,1.686-1.986,3.812-1.83,5.957
		c0.16,2.144,1.117,4.149,2.686,5.62c1.35,1.345,3.143,2.148,5.045,2.254c1.4,0.088,2.809-0.008,4.184-0.284l2.977-0.783
		l1.564-5.854l-0.303,0.106c-0.459,0.188-0.947,0.296-1.441,0.319c-1.689-0.01-3.156-1.146-3.586-2.775
		c-0.189-0.532-0.242-1.104-0.154-1.665c0.115-0.542,0.361-1.049,0.709-1.477c0.43-0.528,0.922-1,1.473-1.399l0.512-0.405
		l1.727-1.299l0.355,2.029c0.195,1.271,0.447,2.533,0.764,3.779c0.348,1.442,1.078,2.77,2.111,3.832
		c1.975,1.865,4.639,2.819,7.346,2.631c0.842-0.037,1.686-0.14,2.51-0.312l2.316-0.652L731.039,302.599"/>
	<path fill="#E0E0E0" d="M685.627,286.623l-0.377,0.192c-1.01,0.757-2.191,1.241-3.441,1.41l-8.271,1.492l0.238,0.245
		c0.939,0.592,1.662,1.473,2.059,2.511c0.254,0.686,0.428,1.394,0.525,2.116l2.533,16.357c0.162,0.881,0.285,1.77,0.377,2.66
		c0.098,0.901-0.023,1.809-0.35,2.657c-0.24,0.625-0.576,1.209-0.99,1.734l14.264-2.423l-0.246-0.235
		c-0.938-0.592-1.662-1.468-2.059-2.504c-0.254-0.686-0.428-1.399-0.525-2.127c-0.082-0.496-0.158-0.997-0.232-1.496l-1.453-9.351
		c-0.096-0.518-0.18-1.038-0.244-1.561c-0.057-0.426-0.039-0.854,0.045-1.276c0.1-0.441,0.289-0.863,0.543-1.235
		c1.123-1.695,2.992-2.749,5.027-2.824c0.793-0.027,1.592-0.007,2.383,0.07l-1.174-7.565l-2.217,0.196l-0.285,0.055
		c-1.844,0.315-3.469,1.369-4.508,2.92c-0.439,0.677-0.744,1.43-0.9,2.22C686.098,289.45,685.855,288.039,685.627,286.623"/>
	<path fill="#E0E0E0" d="M657.713,322.514c4.045-0.443,7.793-2.343,10.547-5.345c3.83-4.8,4.584-11.364,1.949-16.91
		c-2.289-5.12-7.432-8.354-13.033-8.202c-4.232-0.084-8.352,1.34-11.631,4.016c-3.486,3.119-5.283,7.711-4.84,12.368
		c0.105,4.055,1.807,7.902,4.734,10.707c3.16,2.738,7.334,4,11.48,3.471C657.186,322.589,657.449,322.553,657.713,322.514
		 M657.691,316.643c-1.189,0.209-2.412-0.066-3.398-0.762c-0.859-0.669-1.545-1.542-1.994-2.54c-0.816-1.837-1.346-3.784-1.572-5.78
		c-0.242-1.415-0.303-2.856-0.178-4.288c0.078-1.024,0.389-2.017,0.908-2.901c0.627-1.032,1.658-1.757,2.836-2.008
		c1.1-0.304,2.268-0.188,3.279,0.328c0.896,0.516,1.639,1.26,2.146,2.155c0.898,1.601,1.5,3.35,1.773,5.167
		c0.115,0.619,0.209,1.243,0.283,1.872c0.201,1.435,0.209,2.891,0.027,4.328c-0.113,0.948-0.449,1.855-0.977,2.65
		c-0.607,0.848-1.512,1.436-2.533,1.651C658.094,316.569,657.893,316.613,657.691,316.643"/>
	<path fill="#E0E0E0" d="M618.602,317.079c0.084,1.188,0.234,2.366,0.455,3.533c0.217,1.213,0.729,2.359,1.486,3.33
		c0.795,0.918,1.83,1.604,2.986,1.978c2.418,0.79,5.002,0.89,7.469,0.294c0.975-0.232,1.945-0.45,2.924-0.653l2.09-5.585
		c0.037-0.087,0.035-0.186-0.004-0.269c-0.037-0.082-0.109-0.15-0.193-0.182c-0.09-0.03-0.182-0.021-0.262,0.025l-0.053,0.04
		l-0.033,0.038l-0.043,0.062l-0.016,0.038l-0.012,0.037l-0.018,0.052l-0.023,0.046l-0.051,0.067l-0.047,0.034l-0.039,0.026
		l-0.064,0.025l-0.029,0.01l-0.033,0.004c-0.879,0.066-1.764,0.016-2.631-0.16c-0.85-0.19-1.633-0.593-2.285-1.171
		c-0.525-0.504-0.896-1.148-1.062-1.86c-0.133-0.533-0.225-1.078-0.27-1.625l-0.084-0.82l-1.158-11.643l1.49-0.168
		c0.691-0.097,1.391-0.16,2.086-0.186c0.762-0.032,1.508,0.201,2.113,0.659c0.359,0.231,0.699,0.491,1.018,0.775l-0.662-7.613
		l-6.631,0.729l-0.887-8.922l-4.121,0.465v0.232c-0.023,4.938-3.168,9.317-7.838,10.917c-0.293,0.096-0.592,0.181-0.9,0.254
		l0.428,4.309l3.572-0.397L618.602,317.079"/>
	<path fill="#E0E0E0" d="M585.488,329.378c3.746,0.677,7.57,0.84,11.363,0.483c3.031-0.277,5.973-1.193,8.631-2.685
		c1.727-0.985,3.109-2.481,3.945-4.281c1.557-3.354,0.691-7.33-2.119-9.729c-1.609-1.402-3.52-2.411-5.584-2.944
		c-0.578-0.159-1.156-0.31-1.74-0.441l-2.562-0.576c-0.5-0.107-0.986-0.274-1.441-0.5c-0.395-0.194-0.73-0.487-0.977-0.855
		c-0.254-0.402-0.367-0.878-0.332-1.353c0.045-0.363,0.211-0.698,0.48-0.95c0.324-0.3,0.709-0.526,1.127-0.667
		c0.977-0.324,2.002-0.467,3.029-0.418c2.311,0.057,4.578,0.695,6.58,1.855l-0.5-6.496l-0.572-0.096
		c-4.27-0.688-8.629-0.594-12.865,0.277c-2.525,0.521-4.83,1.809-6.602,3.685c-1.955,2.183-2.629,5.224-1.779,8.027
		c0.436,1.254,1.232,2.354,2.287,3.16c1.24,0.951,2.625,1.705,4.098,2.243l5.289,1.893c0.697,0.252,1.365,0.584,2,0.977
		c0.369,0.224,0.693,0.524,0.949,0.877c0.223,0.324,0.334,0.713,0.326,1.109c0.016,0.728-0.32,1.419-0.906,1.859
		c-0.48,0.358-1.031,0.62-1.619,0.762c-1.307,0.313-2.658,0.404-3.998,0.271c-2.938-0.281-5.783-1.159-8.369-2.574L585.488,329.378"
		/>
	<path fill="#E0E0E0" d="M577.551,322.618c-2.535,1.667-5.357,2.855-8.324,3.513c-2.176,0.48-4.451,0.179-6.426-0.854
		c-2.451-1.436-4.055-3.972-4.309-6.802c-0.045-0.327-0.07-0.657-0.082-0.984l18.566-0.93l-0.035-0.443
		c-0.141-2.881-0.916-5.695-2.275-8.238c-1.701-3.024-4.688-5.112-8.117-5.671c-5.119-1.154-10.475,0.343-14.254,3.984
		c-3.473,3.667-4.953,8.789-3.98,13.745c0.498,4.213,2.867,7.976,6.457,10.238c2.318,1.268,4.904,1.97,7.547,2.039
		c4.545,0.431,9.121-0.402,13.223-2.401L577.551,322.618 M558.162,312.168c0.055-1.188,0.463-2.332,1.168-3.289
		c1.234-1.476,3.303-1.94,5.041-1.133c0.852,0.428,1.496,1.169,1.805,2.068c0.229,0.623,0.352,1.274,0.373,1.937L558.162,312.168"/>
	<path fill="#E0E0E0" d="M525.258,315.235l7.189,13.531c0.527,1.011,1.211,1.928,2.031,2.722c0.867,0.782,1.975,1.256,3.137,1.352
		c0.975,0.098,1.963,0.092,2.938-0.014l8.27-0.722l-0.227-0.188c-1.855-1.642-3.443-3.559-4.717-5.683
		c-0.324-0.512-0.639-1.027-0.949-1.549l-7.344-12.338l0.357-0.173c2.57-1.19,4.629-3.251,5.82-5.815
		c1.932-4.676,0.359-10.068-3.781-12.975c-1.307-0.893-2.811-1.456-4.389-1.64c-1.166-0.169-2.342-0.227-3.518-0.176l-1.074,0.029
		l-17.758,0.325l0.074,0.236c1.133,0.752,1.928,1.911,2.23,3.233c0.232,0.978,0.346,1.979,0.346,2.982l0.016,1.854l0.404,23.927
		c0.006,0.412,0.014,0.818,0.027,1.23c0.023,0.516,0.037,1.031,0.039,1.547c0.02,0.995-0.086,1.988-0.316,2.956
		c-0.287,1.284-1.041,2.413-2.117,3.172l16.133-0.2l-0.066-0.23c-1.133-0.75-1.932-1.908-2.24-3.233
		c-0.23-0.977-0.344-1.977-0.344-2.979l-0.014-1.858l-0.006-0.611L525.258,315.235 M525.561,297.741
		c0.756-0.032,1.51,0.043,2.244,0.229c1.412,0.466,2.543,1.53,3.096,2.905c1.426,3.423,0.389,7.375-2.541,9.649
		c-0.928,0.703-2.008,1.179-3.15,1.391l-0.252-14.167L525.561,297.741"/>
	<path fill="#E0E0E0" d="M460.428,307.887c1.174-0.971,2.246-2.056,3.2-3.24c2.154-2.65,2.535-6.33,0.961-9.363
		c-1.373-2.375-3.708-4.038-6.401-4.56c-3.286-0.745-6.725-0.418-9.812,0.931c-1.885,0.833-3.392,2.343-4.222,4.231
		c-0.942,2.316-0.882,4.912,0.167,7.183c0.561,1.245,1.255,2.423,2.071,3.518c0.517,0.712,1.05,1.413,1.601,2.097l-0.391,0.256
		c-2.216,1.466-4.208,3.244-5.912,5.28c-1.445,1.722-2.365,3.824-2.648,6.05c-0.383,3.79,1.253,7.501,4.308,9.771
		c2.681,1.976,5.92,3.054,9.25,3.077c2.55,0.183,5.112-0.165,7.524-1.014c2.051-0.813,3.866-2.138,5.265-3.845l0.352,0.354
		c2.502,2.598,5.863,4.199,9.455,4.505c0.908,0.102,1.817,0.161,2.729,0.182l10.213-0.633l-0.771-0.528
		c-7.912-4.815-15.028-10.833-21.095-17.835L460.428,307.887 M461.47,324.028c-1.107,1.682-2.96,2.722-4.972,2.795
		c-2.014,0.069-3.936-0.837-5.158-2.437c-1.116-1.586-1.608-3.525-1.386-5.454c0.222-1.924,1.142-3.702,2.586-4.996L461.47,324.028
		 M455.875,303.057c-0.502-0.583-0.99-1.177-1.462-1.783c-0.384-0.487-0.699-1.025-0.938-1.598
		c-0.165-0.396-0.229-0.826-0.185-1.256c0.088-0.795,0.636-1.467,1.401-1.706c1.163-0.36,2.423,0.112,3.054,1.155
		c0.505,0.813,0.585,1.82,0.208,2.701c-0.208,0.508-0.505,0.972-0.883,1.367C456.698,302.339,456.298,302.713,455.875,303.057"/>
	<path fill="#E0E0E0" d="M401.509,318.815l-3.891-12.197l-0.444-1.465c-0.129-0.453-0.27-0.901-0.418-1.348
		c-0.217-0.623-0.382-1.258-0.491-1.908l-0.022-0.298l-13.149-0.967l0.059,0.243c0.96,0.806,1.731,1.815,2.249,2.957
		c0.451,0.951,0.834,1.93,1.156,2.929l5.292,15.924c0.438,1.481,1.076,2.896,1.9,4.2c0.734,1.109,1.653,2.087,2.715,2.886
		l-0.134,0.373c-0.448,1.397-1.106,2.72-1.946,3.923c-1.188,1.755-3.205,2.769-5.326,2.679c-0.312,0.008-0.624-0.024-0.93-0.089
		c-0.267-0.072-0.531-0.16-0.79-0.259l-5.106,5.949l2.684,0.352l0.571,0.043c2.409,0.211,4.835-0.019,7.16-0.682
		c2.927-0.883,5.357-2.942,6.705-5.689c0.571-1.088,1.088-2.203,1.547-3.338l13.127-30.257l-8.795-0.68l0.057,0.27
		c0.458,0.487,0.81,1.066,1.029,1.699c0.171,0.593,0.207,1.221,0.109,1.831c-0.099,0.628-0.257,1.248-0.474,1.847
		c-0.144,0.43-0.305,0.852-0.478,1.27L401.509,318.815"/>
	<path fill="#E0E0E0" d="M364.008,327.407l12.955,1.217l-0.198-0.363c-1.128-1.373-1.762-3.086-1.794-4.864
		c-0.039-1.129,0.005-2.262,0.133-3.386l0.075-0.684l3.033-32.933l-0.26,0.02c-0.953,0.442-1.992,0.648-3.039,0.604
		c-0.446-0.009-0.89-0.034-1.334-0.076l-0.705-0.083l-7.244-0.624l0.18,0.289c0.759,0.813,1.243,1.849,1.38,2.951
		c0.067,0.571,0.083,1.146,0.054,1.724c-0.008,0.32-0.021,0.64-0.035,0.963l-0.026,0.514l-0.034,0.534l-0.61,6.751l-0.387-0.298
		c-2.713-2.107-6.193-2.98-9.581-2.402c-3.39,0.579-6.382,2.558-8.243,5.447c-0.256,0.387-0.493,0.785-0.708,1.194
		c-3.612,6.076-2.998,13.772,1.534,19.196c2.141,2.387,5.123,3.847,8.318,4.085c0.515,0.068,1.039,0.068,1.554,0l0.156-0.025
		l0.118-0.029l0.172-0.049l0.086-0.026l0.083-0.028l3.289-5.019l-0.831-0.081c-2.62-0.376-4.736-2.322-5.333-4.9
		c-0.392-1.536-0.508-3.135-0.344-4.71c0.093-1.689,0.434-3.358,1.008-4.948c0.327-0.909,0.847-1.738,1.527-2.422
		c0.752-0.72,1.757-1.118,2.798-1.112c1.043,0.007,2.043,0.417,2.786,1.148c0.804,0.866,1.231,2.017,1.191,3.198
		c-0.007,0.568-0.046,1.136-0.114,1.699L364.008,327.407"/>
	<path fill="#E0E0E0" d="M322.812,322.791c3.989,0.677,8.085-0.14,11.507-2.299c4.914-3.649,7.285-9.806,6.088-15.812
		c-0.938-5.563-5.067-10.049-10.532-11.449c-4.034-1.233-8.375-0.98-12.237,0.715c-4.156,2.08-7.043,6.043-7.748,10.636
		c-0.907,3.975-0.221,8.144,1.904,11.624c2.352,3.488,6.064,5.836,10.225,6.464C322.284,322.716,322.547,322.755,322.812,322.791
		 M324.249,317.108c-1.208-0.127-2.32-0.72-3.09-1.658c-0.666-0.878-1.11-1.904-1.295-2.992c-0.331-1.991-0.36-4.02-0.08-6.018
		c0.112-1.427,0.412-2.835,0.889-4.184c0.331-0.966,0.882-1.843,1.607-2.562c0.868-0.827,2.045-1.252,3.241-1.164
		c1.144,0.009,2.242,0.437,3.088,1.206c0.73,0.741,1.256,1.66,1.52,2.667c0.475,1.784,0.621,3.639,0.438,5.475
		c-0.044,0.629-0.108,1.255-0.191,1.88c-0.164,1.435-0.517,2.844-1.049,4.189c-0.349,0.883-0.902,1.667-1.613,2.291
		c-0.799,0.657-1.816,0.981-2.849,0.916l-0.156-0.004C324.554,317.145,324.401,317.131,324.249,317.108"/>
	<path fill="#E0E0E0" d="M289.487,273.25l-0.24,0.009c-0.725,0.357-1.53,0.522-2.337,0.479c-0.475-0.025-0.946-0.079-1.415-0.161
		l-0.597-0.102l-7.822-1.264l0.151,0.311c0.61,0.771,1,1.693,1.129,2.665c0.055,0.558,0.051,1.122-0.013,1.679
		c-0.069,0.629-0.154,1.254-0.253,1.876c-1.363,9.597-2.878,19.174-4.548,28.722c-0.094,0.684-0.221,1.359-0.387,2.031
		c-0.214,0.869-0.735,1.634-1.467,2.15l-0.155,0.158c-0.052,0.051-0.106,0.104-0.162,0.149l0.737,0.4
		c5.267,2.379,10.929,3.765,16.699,4.088c3.402,0.169,6.771-0.742,9.621-2.604c6.301-4.571,8.516-12.944,5.295-20.034
		c-2.079-4.074-6.115-6.779-10.671-7.152c-0.463-0.028-0.924-0.007-1.382,0.069l-3.617,4.773l0.25,0.057
		c1.647,0.357,3.119,1.273,4.164,2.592c0.979,1.362,1.542,2.978,1.621,4.651c0.178,2.634-0.289,5.274-1.361,7.689
		c-0.647,1.476-1.778,2.685-3.207,3.427c-1.87,0.817-4.005,0.751-5.818-0.18L289.487,273.25"/>
	<path fill="#E0E0E0" d="M247.793,308.662c3.928,0.956,8.073,0.424,11.634-1.49c5.138-3.306,7.901-9.294,7.084-15.353
		c-0.59-5.623-4.415-10.385-9.782-12.165c-3.936-1.511-8.283-1.558-12.251-0.133c-4.275,1.785-7.41,5.537-8.405,10.063
		c-1.161,3.911-0.745,8.123,1.155,11.733c2.122,3.646,5.666,6.243,9.78,7.163C247.268,308.548,247.532,308.607,247.793,308.662
		 M249.591,303.091c-1.197-0.209-2.269-0.879-2.981-1.867c-0.607-0.923-0.986-1.979-1.1-3.081c-0.202-2.005-0.097-4.028,0.31-6.004
		c0.203-1.415,0.595-2.798,1.156-4.113c0.387-0.939,0.992-1.777,1.761-2.445c0.92-0.762,2.119-1.104,3.304-0.936
		c1.144,0.088,2.216,0.594,3.01,1.422c0.685,0.789,1.149,1.738,1.354,2.762c0.357,1.809,0.383,3.669,0.081,5.488
		c-0.084,0.627-0.189,1.249-0.312,1.865c-0.256,1.419-0.698,2.806-1.314,4.108c-0.402,0.856-1.003,1.601-1.753,2.175
		c-0.841,0.599-1.879,0.859-2.901,0.721C249.998,303.163,249.794,303.133,249.591,303.091"/>
	<path fill="#E0E0E0" d="M212.652,289.15c-0.291,1.149-0.512,2.318-0.666,3.498c-0.167,1.225-0.037,2.477,0.382,3.642
		c0.467,1.142,1.231,2.138,2.21,2.886c2.024,1.558,4.439,2.527,6.978,2.806c0.991,0.107,1.976,0.233,2.961,0.374l3.713-4.586
		l0.036-0.06c0.02-0.033,0.032-0.073,0.039-0.111l0.008-0.05l-0.015-0.082l-0.022-0.054l-0.045-0.075l-0.031-0.034l-0.016-0.017
		l-0.015-0.012l-0.058-0.033l-0.058-0.021l-0.049-0.009h-0.046l-0.078,0.016l-0.052,0.023l-0.037,0.022l-0.05,0.046
		c-0.013,0.003-0.022,0.01-0.03,0.019c-0.007,0.012-0.011,0.022-0.009,0.036l-0.031,0.042l-0.033,0.031l-0.07,0.046l-0.056,0.026
		c-0.051,0.039-0.125,0.039-0.174,0c-0.854-0.235-1.674-0.586-2.438-1.042c-0.744-0.472-1.364-1.118-1.8-1.889
		c-0.339-0.648-0.485-1.381-0.425-2.115c0.034-0.549,0.114-1.094,0.239-1.632l0.186-0.789l2.503-11.423l1.461,0.356
		c0.69,0.14,1.374,0.316,2.045,0.528c0.729,0.232,1.359,0.699,1.784,1.339c0.269,0.34,0.511,0.704,0.723,1.082l1.726-7.433
		l-6.488-1.553l1.92-8.739l-4.037-0.971l-0.082,0.235c-1.532,4.648-5.914,7.765-10.812,7.683c-0.311-0.009-0.619-0.031-0.926-0.069
		l-0.932,4.212l3.516,0.84L212.652,289.15"/>
	<path fill="#E0E0E0" d="M189.977,261.69l-0.412,0.026c-0.912,0.229-1.863,0.245-2.782,0.041c-0.367-0.07-0.728-0.156-1.088-0.254
		l-8.033-2.086l0.132,0.313c0.55,0.815,0.878,1.761,0.944,2.742c0.023,0.715-0.046,1.43-0.213,2.124
		c-1.048,4.592-2.181,9.169-3.394,13.718l-0.147,0.562c-0.352,1.252-0.565,2.541-0.638,3.838c-0.104,2.047,0.683,4.039,2.157,5.464
		c2.512,2.426,5.995,3.574,9.456,3.113c1.651-0.293,3.19-1.037,4.444-2.149l-0.804,3.213l12.044,3.18l-0.125-0.327
		c-0.551-0.806-0.865-1.748-0.91-2.722c-0.01-0.711,0.072-1.423,0.245-2.117c0.104-0.478,0.212-0.953,0.325-1.43l0.127-0.531
		l5.417-22.166l-0.333,0.041c-1.019,0.231-2.081,0.224-3.095-0.026c-0.279-0.058-0.554-0.126-0.829-0.202l-7.974-2.066l0.129,0.318
		c0.554,0.812,0.881,1.753,0.95,2.735c0.023,0.713-0.047,1.427-0.213,2.123c-0.142,0.655-0.3,1.309-0.472,1.959l-2.449,9.832
		c-0.153,0.694-0.333,1.375-0.545,2.054c-0.109,0.332-0.245,0.657-0.397,0.971c-0.281,0.574-0.681,1.083-1.168,1.492
		c-0.603,0.452-1.354,0.661-2.104,0.589c-0.717-0.034-1.409-0.274-1.994-0.695c-0.558-0.44-0.936-1.072-1.057-1.777
		c-0.126-0.664-0.141-1.349-0.045-2.019c0.141-1.081,0.371-2.142,0.678-3.185l0.151-0.569l0.147-0.534L189.977,261.69"/>
	<path fill="#E0E0E0" d="M156.03,268.561l0.247,6.416l0.021,0.368c0.022,0.248,0.033,0.496,0.033,0.74
		c-0.009,0.326-0.057,0.646-0.147,0.959c-0.12,0.603-0.364,1.17-0.716,1.674c-0.365,0.481-0.843,0.861-1.395,1.107
		c-0.452,0.236-0.923,0.438-1.407,0.604l17.364,5.414l-0.187-0.505c-0.841-1.419-1.463-2.958-1.847-4.56
		c-0.232-1.16-0.368-2.336-0.403-3.52l-0.094-1.483l-2.078-34.316l-14.112-4.278l0.154,0.31c0.495,0.61,0.852,1.322,1.05,2.088
		c0.192,0.788,0.113,1.618-0.219,2.36c-0.402,0.828-0.871,1.62-1.408,2.365c-0.305,0.44-0.601,0.886-0.896,1.331
		c-4.742,7.39-9.703,14.644-14.88,21.734c-0.658,0.976-1.379,1.913-2.152,2.805c-1.066,1.224-2.358,2.227-3.805,2.958l11.786,3.662
		l-0.26-0.539l-0.145-0.231c-0.287-0.429-0.515-0.901-0.684-1.394c-0.217-0.711-0.191-1.475,0.074-2.17
		c0.241-0.646,0.547-1.262,0.917-1.84c0.403-0.658,0.827-1.302,1.273-1.932l2.537-3.655L156.03,268.561 M155.72,262.382
		l-7.814-2.429l7.187-10.638L155.72,262.382"/>
</g>
</svg>
