<?xml version="1.0" encoding="utf-8"?>
<!-- Generator: Adobe Illustrator 16.0.0, SVG Export Plug-In . SVG Version: 6.00 Build 0)  -->
<!DOCTYPE svg PUBLIC "-//W3C//DTD SVG 1.1//EN" "http://www.w3.org/Graphics/SVG/1.1/DTD/svg11.dtd">
<svg version="1.1" id="Layer_1" xmlns="http://www.w3.org/2000/svg" xmlns:xlink="http://www.w3.org/1999/xlink" x="0px" y="0px"
	 width="825px" height="296px" viewBox="0 0 825 296" enable-background="new 0 0 825 296" xml:space="preserve">
<g>
	<path fill="#FFFFFF" d="M446.668,42.811l-1.5,0.02c31.238,3.023,62.221,8.269,92.713,15.7c19.439,5.048,38.117,12.677,55.53,22.683
		c7.706,4.52,14.577,10.335,20.308,17.187c3.532,4.346,5.949,9.487,7.041,14.978c1.04,6.97-0.556,14.078-4.476,19.935
		c-4.38,6.532-9.979,12.158-16.49,16.569c-13.889,9.348-29.044,16.655-45.005,21.703c-52.328,15.898-106.725,23.949-161.416,23.891
		c-6.125,0.092-12.251,0.106-18.378,0.043c6.846,0.989,13.723,1.758,20.618,2.301c69.034,5.453,138.493-0.461,205.61-17.506
		c19.288-5.168,37.753-13.025,54.853-23.342c6.436-4.076,12.263-9.042,17.302-14.757c5.204-5.805,8.25-13.224,8.623-21.012
		l-0.218-3.295c-1.044-6.538-3.921-12.646-8.3-17.61c-6.609-7.481-14.496-13.728-23.292-18.448
		c-22.439-11.871-46.467-20.459-71.345-25.502C535.376,47.256,491.079,42.719,446.668,42.811"/>
	<path fill="#FFFFFF" d="M441.518,44.075l-0.84-0.13c-8.236-0.93-16.502-1.616-24.778-2.055
		c-55.749-2.898-111.643,1.288-166.336,12.457c-25.178,4.987-49.534,13.475-72.358,25.213c-8.909,4.662-16.941,10.835-23.74,18.243
		c-4.565,4.951-7.584,11.126-8.688,17.771l-0.234,3.335c0.167,6.519,2.423,12.814,6.438,17.955
		c4.788,6.176,10.568,11.512,17.107,15.793c13.195,8.464,27.425,15.191,42.34,20.015c52.263,15.896,106.586,23.994,161.212,24.032
		c-29.049-3.037-57.755-8.764-85.748-17.104c-17.986-5.201-35.122-12.983-50.873-23.104c-6.541-4.302-12.303-9.686-17.038-15.922
		c-3.3-4.429-5.434-9.617-6.205-15.087l-0.18-3.048c0.256-7.191,2.896-14.093,7.504-19.621c5.634-6.805,12.388-12.599,19.97-17.132
		c17.142-10.033,35.563-17.697,54.763-22.785C342.162,50.895,391.725,44.576,441.518,44.075"/>
	<path fill="#FFFFFF" d="M507.898,124.063l5.84-0.005c2.72-0.149,5.444,0.088,8.101,0.7c2.067,0.553,3.696,2.141,4.302,4.193
		l0.724-5.388l0.362-2.822l1.421-10.809c-1.68,0.398-3.394,0.618-5.115,0.656l-14.115,0.025l2.495-21.976
		c0.069-0.01,0.14-0.018,0.21-0.025c4.077-0.066,8.155-0.053,12.232,0.04c4.086,0.357,7.854,2.345,10.455,5.516l2.449-19.543
		c-1.513,0.432-3.077,0.646-4.648,0.638l-50.621,0.03c-0.256,0-0.512,0.003-0.769,0.01c3.261,3.34,4.962,7.902,4.687,12.562
		c-0.364,2.089-0.647,4.191-0.846,6.303l-5.92,52.478c-0.259,2.778-0.625,5.549-1.103,8.299c-0.867,3.933-3.304,7.34-6.746,9.431
		l62.66,0.194l7.991-20.404c-10.466,7.664-24.001,9.768-36.302,5.646l-0.606-0.271c0.021-0.254,0.046-0.511,0.075-0.765
		L507.898,124.063"/>
	<path fill="#FFFFFF" d="M453.523,90.644l0.243-0.055c3.442-0.797,6.993-1.01,10.507-0.632c3.271,0.687,6.048,2.832,7.536,5.825
		l7.065-20.283l0.05-0.175c-0.178-0.017-0.356-0.027-0.538-0.03h-60.593c-2.438,0.153-4.891,0.016-7.3-0.403l-7.842,20.713
		l-0.08,0.203l0.145-0.089c6.9-4.883,15.483-6.767,23.795-5.224l0.742,0.165c-0.01,0.215-0.025,0.429-0.05,0.642l-5.637,50.083
		c-0.229,4.512-0.998,8.981-2.295,13.31c-1.097,3.725-3.205,7.072-6.1,9.662l-0.193,0.115l21.753,0.12l15.991,0.079
		c0.228,0.004,0.451,0.002,0.679-0.005l-0.08-0.233c-2.765-2.986-4.364-6.863-4.519-10.929c0.04-3.136,0.286-6.266,0.737-9.37
		L453.523,90.644"/>
	<path fill="#FFFFFF" d="M397.898,109.907c0.7-7.164,1.506-14.318,2.42-21.459c0.225-1.375,0.503-2.74,0.832-4.093
		c0.892-3.733,3.278-6.933,6.603-8.852L370.2,75.298l-0.587-0.005c3.649,3.027,5.387,7.786,4.547,12.452l-6.672,59.453
		c-0.13,3.565-0.809,7.092-2.014,10.452c-1.14,2.888-3.236,5.295-5.938,6.82l38.094,0.119l-0.055-0.423l-0.14-0.097
		c-2.038-1.399-3.479-3.518-4.032-5.93c-0.208-1.039-0.325-2.097-0.349-3.156c-0.031-0.903-0.018-1.81,0.04-2.713L397.898,109.907"
		/>
	<path fill="#FFFFFF" d="M304.087,123.928h25.396l-2.844,25.457c-0.159,2.665-0.707,5.291-1.628,7.797
		c-1.061,3.09-3.222,5.686-6.068,7.289l37.97,0.205c-2.342-2.001-3.873-4.789-4.308-7.838c-0.184-1.57-0.204-3.154-0.065-4.73
		l4.098-36.443c0.797-8.43,1.741-16.847,2.829-25.243c0.148-3.617,1.137-7.148,2.889-10.317c1.191-1.939,2.879-3.525,4.888-4.595
		l-1.021-0.015l-36.609-0.195l-0.593-0.005c1.059,0.962,2.002,2.044,2.812,3.222c0.519,0.776,0.93,1.618,1.22,2.505
		c0.486,2.009,0.678,4.079,0.572,6.143l-0.113,1l-2.479,22.042H305.64l2.1-18.89c0.123-1.717,0.351-3.427,0.682-5.118l0.215-1.09
		c0.592-2.678,1.892-5.147,3.764-7.15c0.641-0.69,1.357-1.306,2.137-1.837c0.298-0.206,0.601-0.403,0.911-0.592
		c-0.288-0.019-0.578-0.03-0.866-0.035l-36.615-0.195l-0.523-0.005c1.219,1.186,2.284,2.521,3.171,3.973
		c0.699,1.205,1.115,2.551,1.22,3.939c0.233,1.634,0.261,3.292,0.085,4.933l-7.04,62.335c-0.183,2.221-0.661,4.404-1.418,6.498
		c-1.036,3.187-3.236,5.863-6.16,7.498l36.521,0.189c0.267-0.003,0.531,0,0.797,0.01c0.272-0.003,0.545-0.01,0.816-0.02
		c-1.283-1.153-2.383-2.496-3.265-3.979c-1.375-3.121-1.763-6.588-1.111-9.936L304.087,123.928"/>
	<path fill="#FFFFFF" d="M659.269,185.607l-0.308,0.197c-0.782,0.674-1.695,1.18-2.68,1.487l-5.745,1.89l0.21,0.161
		c0.667,0.3,1.238,0.779,1.646,1.386c0.28,0.448,0.498,0.934,0.648,1.44c1.229,4.058,2.413,8.129,3.55,12.213
		c0.201,0.64,0.378,1.286,0.527,1.94c0.16,0.662,0.155,1.354-0.016,2.014c-0.129,0.496-0.332,0.971-0.603,1.405l10.455-3.32
		l-0.203-0.146c-0.666-0.289-1.235-0.762-1.639-1.362c-0.286-0.446-0.509-0.933-0.658-1.44c-0.151-0.479-0.293-0.963-0.422-1.449
		l-2.201-7.601l-0.114-0.382c-0.174-0.541-0.288-1.1-0.343-1.664c-0.125-1.158,0.481-2.271,1.522-2.794
		c0.979-0.442,2.128-0.255,2.911,0.479c0.19,0.156,0.36,0.334,0.51,0.53c0.259,0.366,0.462,0.769,0.602,1.196
		c0.063,0.188,0.123,0.373,0.18,0.562l0.105,0.363l2.21,7.604c0.2,0.639,0.375,1.285,0.522,1.939
		c0.16,0.663,0.157,1.354-0.011,2.014c-0.13,0.496-0.335,0.972-0.606,1.405l10.46-3.313l-0.208-0.151
		c-0.665-0.286-1.236-0.757-1.644-1.356c-0.284-0.451-0.503-0.938-0.646-1.451c-0.151-0.478-0.293-0.954-0.424-1.438l-2.15-7.427
		c-0.24-0.922-0.525-1.832-0.858-2.726c-0.976-2.683-3.574-4.422-6.427-4.304c-1.726,0.068-3.405,0.566-4.888,1.451
		c-1.122,0.687-1.996,1.71-2.5,2.925C659.763,187.134,659.507,186.373,659.269,185.607"/>
	<path fill="#FFFFFF" d="M641.271,215.518c2.974-0.744,5.578-2.533,7.343-5.041c2.408-3.931,2.366-8.887-0.105-12.775
		c-2.18-3.578-6.314-5.473-10.45-4.786c-3.161,0.367-6.094,1.841-8.274,4.157c-2.303,2.66-3.213,6.253-2.454,9.689
		c0.446,2.993,2.067,5.688,4.507,7.48c2.611,1.719,5.833,2.236,8.853,1.421C640.883,215.618,641.078,215.57,641.271,215.518
		 M640.708,211.143c-0.859,0.273-1.791,0.193-2.59-0.225c-0.705-0.412-1.298-0.995-1.722-1.691
		c-0.777-1.281-1.354-2.676-1.703-4.131c-0.312-1.031-0.486-2.098-0.522-3.175c-0.035-0.771,0.105-1.539,0.407-2.248
		c0.37-0.831,1.062-1.473,1.918-1.778c0.785-0.336,1.667-0.367,2.475-0.084c0.71,0.291,1.328,0.771,1.787,1.385
		c0.821,1.101,1.433,2.343,1.803,3.664c0.145,0.451,0.272,0.908,0.389,1.367c0.279,1.047,0.42,2.127,0.418,3.211
		c-0.002,0.717-0.17,1.424-0.493,2.064c-0.371,0.691-0.983,1.227-1.722,1.493C641.006,211.052,640.858,211.1,640.708,211.143"/>
	<path fill="#FFFFFF" d="M610.968,201.209l0.21,0.232c0.643,0.332,1.173,0.841,1.538,1.463c0.253,0.472,0.439,0.973,0.559,1.492
		c0.998,4.136,1.952,8.277,2.861,12.432c0.165,0.64,0.307,1.285,0.419,1.936c0.119,0.676,0.075,1.367-0.129,2.021
		c-0.151,0.491-0.38,0.96-0.673,1.385l10.625-2.67l-0.194-0.161c-0.651-0.342-1.198-0.855-1.577-1.488
		c-0.252-0.463-0.439-0.959-0.559-1.473c-0.125-0.479-0.239-0.962-0.343-1.445l-3.909-16.668l-0.198,0.156
		c-0.473,0.441-1.032,0.775-1.645,0.984c-0.341,0.121-0.688,0.223-1.04,0.306L610.968,201.209"/>
	<path fill="#FFFFFF" d="M615.613,199.075c1.753-0.399,3.083-1.827,3.357-3.604c0.183-1.06-0.012-2.15-0.546-3.084
		c-0.955-1.723-2.979-2.55-4.866-1.988c-0.832,0.256-1.564,0.763-2.104,1.447c-0.757,0.98-1.09,2.225-0.922,3.452
		s0.82,2.337,1.814,3.077c0.884,0.643,1.985,0.91,3.065,0.746L615.613,199.075"/>
	<path fill="#FFFFFF" d="M596.658,219.807c0.154,0.873,0.361,1.735,0.618,2.584c0.258,0.887,0.729,1.694,1.375,2.354
		c0.661,0.616,1.481,1.042,2.37,1.228c1.867,0.379,3.806,0.232,5.597-0.427c0.702-0.257,1.409-0.501,2.12-0.733l1.125-4.34
		l0.009-0.052c0.003-0.038-0.004-0.075-0.018-0.112l-0.031-0.058l-0.03-0.033l-0.026-0.022l-0.044-0.024l-0.021-0.009l-0.027-0.006
		l-0.049-0.006l-0.044,0.006l-0.038,0.011l-0.028,0.015l-0.049,0.034l-0.03,0.035l-0.018,0.026l-0.021,0.047l-0.008,0.023
		l-0.002,0.014l-0.001,0.013l-0.009,0.04l-0.013,0.035l-0.03,0.051l-0.028,0.033l-0.025,0.019l-0.044,0.025l-0.024,0.01
		l-0.025,0.007c-0.649,0.127-1.313,0.163-1.976,0.108c-0.649-0.072-1.271-0.31-1.802-0.687c-0.433-0.332-0.755-0.783-0.934-1.297
		c-0.142-0.387-0.252-0.781-0.327-1.187l-0.12-0.599l-1.786-8.586l1.1-0.25c0.509-0.134,1.027-0.238,1.548-0.317
		c0.56-0.089,1.131,0.021,1.619,0.309c0.286,0.146,0.562,0.312,0.82,0.499l-1.096-5.62l-4.88,1.103l-1.357-6.561l-3.032,0.686
		l0.015,0.185c0.358,3.694-1.641,7.218-4.995,8.806c-0.214,0.098-0.431,0.186-0.65,0.264l0.662,3.169l2.635-0.593L596.658,219.807"
		/>
	<path fill="#FFFFFF" d="M593.308,225.02c-0.636,0.129-1.288,0.14-1.927,0.025c-0.789-0.154-1.46-0.672-1.812-1.395
		c-0.271-0.541-0.473-1.113-0.594-1.707c-0.06-0.264-0.115-0.529-0.168-0.797c-0.071-0.377-0.143-0.756-0.21-1.133l-0.667-3.695
		c-0.071-0.414-0.153-0.826-0.243-1.237c-0.225-1.129-0.625-2.214-1.188-3.216c-0.794-1.352-2.106-2.321-3.63-2.686
		c-1.682-0.4-3.432-0.408-5.115-0.025c-1.887,0.33-3.721,0.919-5.45,1.748l-1.12,5.677l0.283-0.229
		c1.472-1.16,3.184-1.979,5.009-2.398c0.675-0.137,1.368-0.1,2.021,0.109c0.338,0.109,0.637,0.315,0.862,0.592
		c0.438,0.578,0.434,1.379-0.012,1.953c-0.193,0.256-0.428,0.48-0.691,0.666c-0.596,0.42-1.229,0.781-1.894,1.082
		c-1.167,0.508-2.312,1.062-3.438,1.654c-1.062,0.555-2.018,1.29-2.823,2.174c-1,1.264-1.489,2.857-1.371,4.467
		c0.12,1.606,0.837,3.111,2.014,4.213c1.012,1.01,2.356,1.611,3.783,1.69c1.05,0.066,2.105-0.005,3.137-0.213l2.23-0.587
		l1.175-4.389l-0.228,0.078c-0.345,0.141-0.711,0.223-1.082,0.24c-1.265-0.009-2.365-0.859-2.688-2.082
		c-0.143-0.398-0.181-0.828-0.114-1.248c0.087-0.406,0.271-0.787,0.532-1.108c0.32-0.396,0.691-0.749,1.102-1.05l0.385-0.303
		l1.295-0.974l0.268,1.521c0.145,0.953,0.334,1.9,0.572,2.834c0.26,1.082,0.809,2.076,1.583,2.873
		c1.479,1.399,3.479,2.115,5.507,1.973c0.633-0.026,1.264-0.104,1.883-0.233l1.737-0.489L593.308,225.02"/>
	<path fill="#FFFFFF" d="M559.258,213.04l-0.285,0.146c-0.755,0.566-1.643,0.93-2.578,1.057l-6.202,1.119l0.179,0.183
		c0.704,0.444,1.247,1.104,1.543,1.884c0.19,0.514,0.321,1.045,0.395,1.586l1.9,12.266c0.12,0.66,0.213,1.326,0.28,1.994
		c0.074,0.676-0.017,1.356-0.261,1.992c-0.181,0.469-0.432,0.907-0.744,1.301l10.697-1.815l-0.184-0.178
		c-0.704-0.443-1.247-1.101-1.545-1.878c-0.189-0.514-0.321-1.049-0.394-1.594c-0.062-0.373-0.118-0.748-0.175-1.123l-1.09-7.011
		c-0.072-0.388-0.134-0.778-0.183-1.17c-0.042-0.319-0.029-0.642,0.033-0.957c0.074-0.332,0.216-0.647,0.407-0.927
		c0.843-1.271,2.244-2.061,3.77-2.117c0.596-0.021,1.193-0.005,1.788,0.053l-0.881-5.673l-1.662,0.146l-0.216,0.042
		c-1.381,0.236-2.602,1.027-3.381,2.189c-0.327,0.508-0.556,1.071-0.673,1.664C559.609,215.161,559.428,214.104,559.258,213.04"/>
	<path fill="#FFFFFF" d="M538.326,239.953c3.034-0.332,5.845-1.758,7.907-4.008c2.872-3.6,3.438-8.521,1.463-12.68
		c-1.716-3.839-5.572-6.265-9.773-6.15c-3.172-0.063-6.261,1.005-8.718,3.012c-2.616,2.339-3.964,5.782-3.63,9.273
		c0.077,3.041,1.353,5.927,3.55,8.029c2.368,2.053,5.499,2.998,8.607,2.602C537.931,240.009,538.129,239.982,538.326,239.953
		 M538.311,235.551c-0.893,0.156-1.81-0.05-2.549-0.572c-0.645-0.502-1.16-1.156-1.494-1.903c-0.611-1.377-1.01-2.839-1.18-4.334
		c-0.183-1.062-0.228-2.144-0.135-3.216c0.06-0.768,0.293-1.512,0.682-2.176c0.471-0.773,1.242-1.317,2.127-1.505
		c0.823-0.228,1.7-0.142,2.46,0.245c0.671,0.387,1.229,0.945,1.608,1.617c0.674,1.2,1.125,2.512,1.33,3.873
		c0.086,0.466,0.156,0.934,0.213,1.404c0.15,1.076,0.156,2.168,0.02,3.246c-0.085,0.711-0.336,1.393-0.73,1.987
		c-0.458,0.636-1.135,1.077-1.901,1.238C538.612,235.495,538.462,235.527,538.311,235.551"/>
	<path fill="#FFFFFF" d="M509,235.878c0.062,0.89,0.175,1.774,0.34,2.649c0.163,0.91,0.546,1.769,1.115,2.496
		c0.597,0.689,1.373,1.203,2.24,1.483c1.811,0.593,3.75,0.667,5.6,0.22c0.729-0.175,1.458-0.338,2.192-0.49l1.566-4.188
		c0.027-0.064,0.025-0.139-0.003-0.201c-0.027-0.062-0.082-0.113-0.146-0.137c-0.065-0.021-0.136-0.016-0.194,0.02l-0.04,0.03
		l-0.026,0.028l-0.029,0.048l-0.014,0.027l-0.01,0.028l-0.013,0.039l-0.019,0.033l-0.036,0.051l-0.036,0.025l-0.029,0.02
		l-0.048,0.02l-0.022,0.007l-0.024,0.003c-0.659,0.051-1.323,0.012-1.973-0.119c-0.637-0.144-1.226-0.445-1.714-0.879
		c-0.395-0.378-0.671-0.861-0.796-1.395c-0.101-0.399-0.169-0.809-0.204-1.219l-0.063-0.614l-0.866-8.73l1.115-0.125
		c0.52-0.073,1.044-0.12,1.566-0.14c0.569-0.023,1.13,0.15,1.583,0.494c0.27,0.175,0.523,0.369,0.764,0.582l-0.497-5.709
		l-4.971,0.547l-0.666-6.69l-3.088,0.349v0.176c-0.02,3.701-2.378,6.984-5.879,8.186c-0.221,0.071-0.444,0.135-0.674,0.188
		l0.318,3.231l2.68-0.299L509,235.878"/>
	<path fill="#FFFFFF" d="M484.17,245.1c2.809,0.508,5.677,0.631,8.521,0.363c2.273-0.209,4.479-0.896,6.472-2.014
		c1.295-0.739,2.329-1.86,2.958-3.21c1.167-2.515,0.516-5.496-1.59-7.296c-1.205-1.051-2.64-1.808-4.187-2.207
		c-0.433-0.12-0.866-0.232-1.305-0.332l-1.922-0.432c-0.375-0.08-0.738-0.207-1.081-0.375c-0.296-0.146-0.547-0.365-0.732-0.641
		c-0.188-0.303-0.274-0.659-0.248-1.016c0.032-0.272,0.158-0.523,0.358-0.713c0.243-0.225,0.532-0.395,0.847-0.498
		c0.731-0.244,1.501-0.351,2.271-0.313c1.732,0.042,3.432,0.521,4.933,1.39l-0.373-4.869l-0.432-0.072
		c-3.201-0.516-6.47-0.444-9.646,0.208c-1.894,0.391-3.622,1.356-4.948,2.763c-1.468,1.637-1.974,3.918-1.333,6.02
		c0.324,0.94,0.922,1.766,1.713,2.369c0.932,0.715,1.969,1.279,3.071,1.682l3.969,1.419c0.522,0.19,1.023,0.438,1.498,0.733
		c0.277,0.168,0.521,0.393,0.712,0.656c0.166,0.244,0.251,0.535,0.245,0.832c0.011,0.547-0.24,1.064-0.68,1.395
		c-0.361,0.271-0.773,0.465-1.215,0.572c-0.979,0.234-1.994,0.303-2.997,0.203c-2.202-0.211-4.337-0.869-6.276-1.931L484.17,245.1"
		/>
	<path fill="#FFFFFF" d="M478.22,240.031c-1.902,1.25-4.019,2.142-6.243,2.633c-1.631,0.361-3.338,0.135-4.818-0.641
		c-1.837-1.075-3.04-2.978-3.23-5.1c-0.032-0.244-0.052-0.492-0.06-0.738l13.92-0.697l-0.025-0.332
		c-0.104-2.16-0.688-4.271-1.707-6.178c-1.275-2.269-3.515-3.832-6.085-4.252c-3.84-0.865-7.854,0.258-10.688,2.987
		c-2.604,2.751-3.715,6.591-2.986,10.308c0.373,3.158,2.152,5.979,4.844,7.677c1.737,0.95,3.678,1.476,5.657,1.528
		c3.408,0.323,6.84-0.302,9.917-1.801L478.22,240.031 M463.682,232.195c0.04-0.891,0.347-1.75,0.876-2.467
		c0.924-1.106,2.475-1.455,3.779-0.85c0.638,0.319,1.122,0.877,1.352,1.551c0.172,0.467,0.266,0.956,0.281,1.452L463.682,232.195"/>
	<path fill="#FFFFFF" d="M439.007,234.495l5.394,10.146c0.395,0.758,0.907,1.446,1.521,2.041c0.651,0.586,1.479,0.941,2.352,1.014
		c0.732,0.072,1.473,0.068,2.204-0.01l6.199-0.541l-0.17-0.141c-1.389-1.23-2.581-2.669-3.535-4.262
		c-0.244-0.383-0.479-0.77-0.712-1.16l-5.506-9.252l0.268-0.13c1.926-0.892,3.471-2.438,4.363-4.36
		c1.448-3.507,0.271-7.55-2.836-9.729c-0.979-0.67-2.107-1.092-3.289-1.229c-0.874-0.127-1.756-0.17-2.638-0.132l-0.807,0.021
		l-13.313,0.244l0.055,0.178c0.849,0.564,1.444,1.433,1.672,2.425c0.174,0.733,0.26,1.483,0.26,2.235l0.01,1.391l0.305,17.941
		c0.003,0.309,0.01,0.613,0.021,0.922c0.018,0.387,0.026,0.773,0.028,1.16c0.015,0.746-0.065,1.49-0.238,2.217
		c-0.215,0.963-0.78,1.81-1.588,2.377l12.098-0.149l-0.05-0.172c-0.85-0.563-1.448-1.431-1.679-2.425
		c-0.172-0.732-0.258-1.481-0.258-2.233l-0.01-1.394l-0.005-0.459L439.007,234.495 M439.235,221.377
		c0.566-0.023,1.133,0.033,1.684,0.172c1.057,0.35,1.906,1.146,2.32,2.18c1.069,2.565,0.29,5.529-1.905,7.235
		c-0.696,0.527-1.505,0.884-2.362,1.043l-0.188-10.625L439.235,221.377"/>
	<path fill="#FFFFFF" d="M390.397,228.984c0.881-0.728,1.684-1.541,2.399-2.43c1.616-1.988,1.901-4.746,0.722-7.021
		c-1.029-1.781-2.78-3.028-4.8-3.419c-2.464-0.559-5.042-0.312-7.357,0.697c-1.414,0.625-2.544,1.758-3.167,3.174
		c-0.705,1.736-0.66,3.685,0.125,5.386c0.421,0.933,0.941,1.817,1.553,2.638c0.388,0.533,0.787,1.059,1.2,1.571l-0.293,0.192
		c-1.661,1.1-3.154,2.433-4.433,3.959c-1.084,1.291-1.772,2.867-1.985,4.537c-0.286,2.84,0.94,5.623,3.23,7.326
		c2.01,1.481,4.439,2.289,6.936,2.307c1.912,0.138,3.833-0.123,5.642-0.76c1.538-0.61,2.898-1.604,3.948-2.883l0.264,0.266
		c1.876,1.947,4.396,3.147,7.09,3.377c0.681,0.076,1.362,0.121,2.046,0.137l7.658-0.475l-0.578-0.396
		c-5.933-3.61-11.269-8.122-15.817-13.373L390.397,228.984 M391.179,241.088c-0.83,1.262-2.22,2.042-3.729,2.096
		c-1.51,0.053-2.951-0.627-3.868-1.826c-0.836-1.189-1.205-2.645-1.039-4.09c0.167-1.443,0.856-2.776,1.939-3.746L391.179,241.088
		 M386.982,225.363c-0.376-0.438-0.742-0.883-1.096-1.338c-0.288-0.365-0.524-0.769-0.703-1.197
		c-0.124-0.299-0.171-0.62-0.139-0.941c0.065-0.598,0.477-1.101,1.051-1.279c0.871-0.271,1.816,0.084,2.289,0.865
		c0.379,0.61,0.438,1.365,0.155,2.026c-0.155,0.38-0.378,0.728-0.661,1.024C387.601,224.825,387.301,225.105,386.982,225.363"/>
	<path fill="#FFFFFF" d="M346.219,237.18l-2.917-9.146l-0.333-1.099c-0.098-0.34-0.203-0.677-0.314-1.012
		c-0.163-0.466-0.286-0.943-0.368-1.43l-0.016-0.225l-9.861-0.723l0.045,0.182c0.72,0.604,1.298,1.36,1.687,2.217
		c0.338,0.713,0.626,1.445,0.866,2.195l3.969,11.94c0.328,1.11,0.807,2.171,1.424,3.149c0.551,0.832,1.239,1.563,2.036,2.164
		l-0.1,0.279c-0.337,1.047-0.83,2.039-1.459,2.941c-0.892,1.316-2.404,2.076-3.993,2.009c-0.234,0.005-0.468-0.019-0.697-0.067
		c-0.201-0.054-0.399-0.119-0.593-0.193l-3.828,4.461l2.012,0.265l0.429,0.031c1.806,0.157,3.625-0.015,5.368-0.511
		c2.194-0.662,4.017-2.207,5.027-4.267c0.428-0.815,0.815-1.651,1.16-2.503l9.842-22.688l-6.595-0.51l0.043,0.203
		c0.344,0.364,0.607,0.799,0.772,1.273c0.128,0.445,0.154,0.915,0.08,1.373c-0.073,0.471-0.191,0.936-0.354,1.385
		c-0.109,0.321-0.229,0.639-0.358,0.952L346.219,237.18"/>
	<path fill="#FFFFFF" d="M318.099,243.621l9.714,0.912l-0.148-0.271c-0.846-1.029-1.32-2.314-1.345-3.647
		c-0.03-0.847,0.003-1.696,0.1-2.538l0.055-0.512l2.275-24.694l-0.195,0.015c-0.714,0.33-1.494,0.486-2.279,0.453
		c-0.335-0.007-0.667-0.025-1-0.057l-0.528-0.063l-5.432-0.468l0.135,0.218c0.568,0.609,0.932,1.386,1.035,2.212
		c0.05,0.428,0.062,0.86,0.04,1.293c-0.006,0.24-0.015,0.479-0.025,0.723l-0.021,0.384l-0.024,0.401l-0.458,5.062l-0.289-0.224
		c-2.036-1.58-4.645-2.234-7.185-1.801c-2.542,0.436-4.785,1.918-6.181,4.086c-0.192,0.289-0.369,0.588-0.531,0.895
		c-2.709,4.557-2.248,10.326,1.15,14.395c1.606,1.789,3.841,2.885,6.238,3.062c0.386,0.052,0.778,0.052,1.165,0l0.118-0.02
		l0.088-0.021l0.129-0.036l0.064-0.021l0.063-0.021l2.465-3.762l-0.623-0.062c-1.964-0.281-3.551-1.74-3.998-3.674
		c-0.294-1.152-0.381-2.351-0.258-3.533c0.07-1.267,0.325-2.517,0.756-3.709c0.245-0.682,0.636-1.303,1.146-1.815
		c0.563-0.54,1.317-0.839,2.099-0.834c0.782,0.005,1.531,0.312,2.089,0.86c0.603,0.649,0.923,1.512,0.893,2.397
		c-0.006,0.426-0.034,0.853-0.086,1.274L318.099,243.621"/>
	<path fill="#FFFFFF" d="M287.209,240.161c2.991,0.507,6.063-0.106,8.629-1.724c3.685-2.737,5.463-7.354,4.566-11.857
		c-0.704-4.171-3.8-7.535-7.897-8.585c-3.025-0.925-6.28-0.735-9.176,0.536c-3.116,1.56-5.281,4.531-5.81,7.976
		c-0.679,2.979-0.166,6.106,1.428,8.716c1.764,2.616,4.547,4.375,7.667,4.846C286.813,240.104,287.011,240.134,287.209,240.161
		 M288.286,235.9c-0.906-0.096-1.738-0.541-2.317-1.243c-0.499-0.659-0.832-1.429-0.97-2.244c-0.248-1.493-0.27-3.015-0.06-4.513
		c0.085-1.069,0.309-2.125,0.667-3.137c0.248-0.725,0.661-1.382,1.205-1.921c0.651-0.62,1.533-0.938,2.43-0.874
		c0.857,0.006,1.681,0.328,2.315,0.905c0.548,0.556,0.942,1.245,1.14,1.999c0.356,1.338,0.466,2.729,0.328,4.105
		c-0.033,0.472-0.08,0.941-0.143,1.41c-0.123,1.075-0.388,2.133-0.787,3.141c-0.26,0.662-0.676,1.25-1.21,1.719
		c-0.599,0.491-1.362,0.736-2.136,0.688l-0.116-0.004C288.515,235.927,288.401,235.917,288.286,235.9"/>
	<path fill="#FFFFFF" d="M262.221,203.014l-0.18,0.006c-0.544,0.269-1.147,0.393-1.752,0.358c-0.357-0.019-0.709-0.058-1.061-0.12
		l-0.447-0.076l-5.865-0.947l0.113,0.232c0.457,0.578,0.75,1.27,0.847,1.999c0.041,0.418,0.038,0.841-0.01,1.259
		c-0.052,0.471-0.115,0.938-0.19,1.406c-1.022,7.196-2.158,14.376-3.41,21.536c-0.07,0.513-0.166,1.021-0.29,1.524
		c-0.161,0.651-0.551,1.225-1.1,1.611l-0.116,0.118c-0.039,0.039-0.08,0.077-0.122,0.112l0.553,0.301
		c3.949,1.784,8.195,2.822,12.522,3.064c2.55,0.127,5.075-0.556,7.213-1.951c4.725-3.428,6.385-9.708,3.97-15.021
		c-1.558-3.055-4.585-5.085-8.002-5.363c-0.346-0.022-0.693-0.006-1.036,0.051l-2.712,3.58l0.188,0.041
		c1.235,0.269,2.338,0.955,3.122,1.945c0.734,1.021,1.157,2.232,1.215,3.487c0.133,1.976-0.216,3.954-1.02,5.765
		c-0.485,1.107-1.333,2.014-2.405,2.571c-1.402,0.611-3.003,0.562-4.362-0.136L262.221,203.014"/>
	<path fill="#FFFFFF" d="M230.958,229.566c2.946,0.717,6.053,0.317,8.723-1.117c3.854-2.48,5.925-6.969,5.312-11.512
		c-0.441-4.217-3.31-7.787-7.334-9.121c-2.951-1.133-6.211-1.168-9.186-0.1c-3.206,1.338-5.557,4.152-6.303,7.545
		c-0.869,2.934-0.558,6.092,0.866,8.799c1.591,2.733,4.249,4.682,7.334,5.371C230.565,229.48,230.762,229.525,230.958,229.566
		 M232.306,225.389c-0.898-0.156-1.701-0.658-2.235-1.399c-0.456-0.692-0.739-1.484-0.825-2.31
		c-0.151-1.504-0.073-3.021,0.233-4.502c0.153-1.062,0.446-2.099,0.867-3.085c0.291-0.704,0.744-1.332,1.32-1.833
		c0.69-0.572,1.589-0.828,2.478-0.701c0.857,0.065,1.661,0.445,2.257,1.065c0.513,0.591,0.862,1.304,1.015,2.071
		c0.268,1.354,0.288,2.75,0.06,4.115c-0.063,0.469-0.142,0.936-0.234,1.398c-0.191,1.064-0.523,2.104-0.985,3.081
		c-0.301,0.642-0.752,1.2-1.315,1.63c-0.631,0.449-1.408,0.645-2.175,0.54C232.611,225.443,232.458,225.42,232.306,225.389"/>
	<path fill="#FFFFFF" d="M204.608,214.936c-0.218,0.862-0.384,1.738-0.498,2.623c-0.126,0.92-0.028,1.856,0.285,2.73
		c0.351,0.855,0.924,1.604,1.658,2.165c1.518,1.168,3.329,1.894,5.232,2.103c0.743,0.082,1.481,0.176,2.22,0.28l2.785-3.438
		l0.026-0.045c0.015-0.025,0.025-0.055,0.03-0.084l0.005-0.037l-0.01-0.061l-0.017-0.041l-0.033-0.057l-0.023-0.025l-0.011-0.012
		l-0.012-0.01l-0.043-0.024l-0.043-0.017l-0.037-0.006h-0.035l-0.058,0.012l-0.039,0.018l-0.028,0.018l-0.037,0.033
		c-0.01,0.002-0.018,0.008-0.023,0.015c-0.005,0.009-0.008,0.017-0.007,0.026l-0.023,0.032l-0.025,0.023l-0.052,0.034l-0.042,0.02
		c-0.038,0.029-0.093,0.029-0.131,0c-0.641-0.177-1.256-0.439-1.828-0.781c-0.559-0.354-1.023-0.84-1.35-1.416
		c-0.254-0.486-0.364-1.037-0.318-1.586c0.025-0.412,0.085-0.82,0.178-1.224l0.14-0.593l1.877-8.565l1.095,0.267
		c0.518,0.104,1.03,0.237,1.534,0.396c0.546,0.175,1.019,0.526,1.338,1.004c0.201,0.256,0.383,0.529,0.542,0.812l1.295-5.572
		l-4.865-1.165l1.439-6.552l-3.027-0.729l-0.06,0.178c-1.15,3.485-4.435,5.82-8.107,5.76c-0.233-0.006-0.464-0.024-0.695-0.051
		l-0.698,3.157l2.635,0.63L204.608,214.936"/>
	<path fill="#FFFFFF" d="M187.606,194.346l-0.308,0.021c-0.684,0.171-1.398,0.183-2.087,0.03c-0.275-0.053-0.546-0.117-0.815-0.191
		l-6.025-1.562l0.1,0.234c0.413,0.611,0.658,1.32,0.708,2.057c0.018,0.535-0.035,1.071-0.16,1.592
		c-0.786,3.443-1.635,6.875-2.545,10.287l-0.11,0.422c-0.263,0.938-0.423,1.904-0.478,2.877c-0.078,1.535,0.513,3.029,1.618,4.097
		c1.882,1.819,4.494,2.681,7.09,2.335c1.238-0.22,2.392-0.777,3.332-1.611l-0.603,2.409l9.031,2.384l-0.093-0.244
		c-0.413-0.604-0.649-1.312-0.682-2.041c-0.007-0.534,0.055-1.068,0.183-1.588c0.079-0.357,0.16-0.715,0.245-1.071l0.095-0.399
		l4.062-16.619l-0.25,0.03c-0.764,0.173-1.56,0.167-2.32-0.021c-0.209-0.043-0.416-0.094-0.622-0.151l-5.979-1.55l0.098,0.238
		c0.415,0.608,0.661,1.315,0.712,2.051c0.018,0.535-0.035,1.07-0.16,1.593c-0.106,0.491-0.225,0.981-0.353,1.468l-1.837,7.373
		c-0.115,0.52-0.25,1.031-0.408,1.539c-0.082,0.25-0.183,0.493-0.299,0.729c-0.211,0.43-0.51,0.812-0.875,1.119
		c-0.453,0.338-1.016,0.495-1.578,0.441c-0.538-0.025-1.057-0.206-1.495-0.521c-0.419-0.33-0.702-0.804-0.792-1.332
		c-0.095-0.498-0.106-1.012-0.035-1.514c0.106-0.811,0.278-1.605,0.509-2.389l0.113-0.426l0.11-0.401L187.606,194.346"/>
	<path fill="#FFFFFF" d="M162.153,199.496l0.185,4.812l0.015,0.276c0.017,0.185,0.025,0.371,0.025,0.556
		c-0.007,0.243-0.043,0.484-0.11,0.719c-0.09,0.451-0.273,0.877-0.538,1.255c-0.273,0.36-0.632,0.646-1.045,0.831
		c-0.34,0.177-0.692,0.328-1.055,0.453l13.02,4.06l-0.14-0.38c-0.631-1.062-1.097-2.217-1.385-3.418
		c-0.175-0.869-0.276-1.751-0.303-2.639l-0.07-1.113l-1.558-25.731l-10.582-3.206l0.115,0.23c0.371,0.459,0.639,0.992,0.787,1.564
		c0.144,0.592,0.085,1.215-0.165,1.771c-0.3,0.621-0.652,1.215-1.055,1.774c-0.228,0.33-0.451,0.664-0.672,0.998
		c-3.555,5.541-7.276,10.979-11.158,16.297c-0.494,0.731-1.034,1.435-1.613,2.103c-0.799,0.917-1.768,1.669-2.853,2.217l8.837,2.748
		l-0.195-0.405l-0.109-0.173c-0.215-0.323-0.386-0.676-0.513-1.045c-0.162-0.534-0.143-1.106,0.055-1.629
		c0.182-0.483,0.411-0.944,0.688-1.379c0.303-0.492,0.621-0.976,0.955-1.447l1.902-2.741L162.153,199.496 M161.92,194.864
		l-5.86-1.82l5.388-7.978L161.92,194.864"/>
</g>
</svg>
