<?xml version="1.0" encoding="utf-8"?>
<!-- Generator: Adobe Illustrator 16.0.0, SVG Export Plug-In . SVG Version: 6.00 Build 0)  -->
<!DOCTYPE svg PUBLIC "-//W3C//DTD SVG 1.1//EN" "http://www.w3.org/Graphics/SVG/1.1/DTD/svg11.dtd">
<svg version="1.1" id="Layer_1" xmlns="http://www.w3.org/2000/svg" xmlns:xlink="http://www.w3.org/1999/xlink" x="0px" y="0px"
	 width="366.929px" height="150px" viewBox="183.464 75 366.929 150" enable-background="new 183.464 75 366.929 150"
	 xml:space="preserve">
<g>
	<path fill="#E0E0E0" d="M389.562,81.183l-0.961,0.017c20.42,1.973,40.689,5.402,60.599,10.257
		c12.714,3.301,24.941,8.286,36.327,14.83c5.035,2.947,9.521,6.76,13.268,11.23c2.316,2.847,3.887,6.201,4.606,9.807
		c0.68,4.532-0.369,9.177-2.935,13.005c-2.866,4.3-6.524,7.964-10.78,10.834c-9.074,6.152-18.985,10.932-29.424,14.22
		c-34.196,10.392-69.747,15.613-105.515,15.591c-3.989,0.067-8.016,0.088-11.997,0.006c4.455,0.676,8.966,1.202,13.479,1.504
		c45.091,3.57,90.504-0.28,134.392-11.404c12.608-3.372,24.691-8.553,35.861-15.268c4.207-2.668,8.021-5.914,11.314-9.658
		c3.399-3.775,5.391-8.629,5.636-13.729l-0.144-2.148c-0.682-4.283-2.563-8.27-5.42-11.51c-4.324-4.896-9.48-8.988-15.234-12.069
		c-14.666-7.75-30.373-13.369-46.646-16.672C447.563,84.086,418.635,81.124,389.562,81.183"/>
	<path fill="#E0E0E0" d="M386.243,82.008l-0.552-0.08c-5.43-0.61-10.773-1.064-16.232-1.344
		c-36.415-1.899-72.966,0.837-108.715,8.137c-16.462,3.264-32.383,8.812-47.302,16.477c-5.822,3.061-11.075,7.095-15.519,11.944
		c-2.988,3.225-4.96,7.258-5.679,11.615l-0.151,2.172c0.104,4.27,1.583,8.373,4.203,11.722c3.133,4.034,6.908,7.522,11.187,10.319
		c8.623,5.575,17.925,9.951,27.681,13.097c34.159,10.393,69.667,15.717,105.388,15.724c-18.99-2.005-37.764-5.741-56.059-11.21
		c-11.757-3.408-22.962-8.479-33.254-15.054c-4.278-2.86-8.047-6.374-11.14-10.422c-2.159-2.921-3.554-6.287-4.057-9.881
		l-0.114-2.003c0.164-4.685,1.889-9.196,4.903-12.801c3.68-4.452,8.095-8.253,13.053-11.204
		c11.206-6.563,23.25-11.568,35.801-14.901C321.282,86.465,353.686,82.341,386.243,82.008"/>
	<path fill="#E0E0E0" d="M429.619,134.31l3.826-0.001c1.776-0.123,3.556,0.051,5.303,0.439c1.338,0.379,2.381,1.408,2.78,2.75
		l0.507-3.528l0.204-1.845l0.929-7.052c-1.098,0.249-2.202,0.399-3.312,0.418l-9.268,0.004l1.638-14.356
		c0.062-0.006,0.124-0.008,0.137-0.009c2.7-0.057,5.332-0.05,8.029,0.012c2.641,0.25,5.104,1.55,6.834,3.615l1.567-12.776
		c-0.981,0.276-1.978,0.415-3.029,0.412l-33.096,0.025c-0.143,0-0.298,0.004-0.497,0.011c2.138,2.181,3.233,5.157,3.087,8.216
		c-0.266,1.365-0.415,2.74-0.548,4.112l-3.894,34.321c-0.193,1.812-0.403,3.589-0.743,5.378c-0.552,2.586-2.144,4.812-4.381,6.18
		l40.96,0.116l5.238-13.315c-6.842,5-15.706,6.383-23.767,3.726l-0.4-0.212c0.021-0.196,0.054-0.335,0.092-0.473L429.619,134.31"/>
	<path fill="#E0E0E0" d="M394.071,112.442l0.137-0.017c2.295-0.533,4.612-0.67,6.881-0.412c2.145,0.429,3.939,1.85,4.929,3.792
		l4.604-13.255l0.052-0.104c-0.095-0.012-0.202-0.022-0.334-0.026h-39.65c-1.558,0.099-3.144,0.016-4.751-0.257l-5.127,13.543
		l-0.054,0.132l0.121-0.059c4.51-3.203,10.084-4.434,15.554-3.417l0.459,0.096c-0.016,0.145-0.033,0.289-0.048,0.429l-3.692,32.73
		c-0.137,2.959-0.625,5.862-1.499,8.691c-0.689,2.461-2.057,4.649-3.971,6.3l-0.136,0.127l14.22,0.045l10.496,0.091
		c0.161,0.001,0.304,0,0.441,0l-0.069-0.163c-1.836-1.99-2.834-4.485-2.938-7.179c0-2.049,0.142-4.091,0.452-6.097L394.071,112.442"
		/>
	<path fill="#E0E0E0" d="M357.723,125.042c0.437-4.678,0.967-9.353,1.583-14.035c0.137-0.892,0.324-1.781,0.547-2.669
		c0.552-2.44,2.12-4.523,4.307-5.784l-24.546-0.131l-0.403-0.005c2.39,1.974,3.544,5.091,2.994,8.144l-4.368,38.857
		c-0.08,2.308-0.542,4.616-1.312,6.803c-0.744,1.914-2.114,3.502-3.885,4.513l24.889,0.045l-0.024-0.282l-0.111-0.037
		c-1.303-0.956-2.258-2.324-2.607-3.876c-0.136-0.673-0.221-1.374-0.253-2.073c-0.013-0.613-0.013-1.16,0.052-1.77L357.723,125.042"
		/>
	<path fill="#E0E0E0" d="M296.387,134.211h16.601l-1.866,16.671c-0.092,1.705-0.453,3.426-1.053,5.066
		c-0.694,2.051-2.111,3.691-3.969,4.786l24.826,0.137c-1.546-1.366-2.532-3.146-2.818-5.17c-0.119-0.983-0.131-2.073-0.048-3.039
		l2.673-23.856c0.535-5.504,1.152-11.019,1.846-16.504c0.113-2.358,0.75-4.662,1.905-6.743c0.761-1.265,1.864-2.296,3.193-2.999
		l-0.663-0.019l-23.936-0.119l-0.393-0.007c0.687,0.637,1.302,1.337,1.836,2.099c0.341,0.524,0.612,1.072,0.806,1.638
		c0.304,1.317,0.434,2.666,0.366,4.023l-0.074,0.656l-1.627,14.394h-16.591l1.375-12.327c0.08-1.14,0.225-2.247,0.443-3.346
		l0.138-0.73c0.391-1.733,1.234-3.357,2.461-4.665c0.416-0.458,0.887-0.858,1.402-1.207c0.189-0.134,0.385-0.256,0.586-0.375
		c-0.18-0.017-0.369-0.031-0.561-0.036l-23.937-0.121l-0.343-0.005c0.799,0.783,1.497,1.653,2.075,2.596
		c0.456,0.789,0.728,1.675,0.796,2.574c0.156,1.079,0.172,2.162,0.058,3.219l-4.604,40.768c-0.12,1.448-0.428,2.872-0.927,4.239
		c-0.678,2.051-2.117,3.828-4.028,4.923l23.876,0.134c0.176-0.004,0.345,0,0.522,0.002c0.173,0,0.354-0.002,0.533-0.014
		c-0.845-0.806-1.556-1.628-2.14-2.604c-0.896-2.032-1.149-4.355-0.722-6.543L296.387,134.211"/>
	<path fill="#E0E0E0" d="M528.577,174.545l-0.209,0.135c-0.514,0.413-1.102,0.746-1.75,0.96l-3.759,1.23l0.134,0.13
		c0.445,0.145,0.813,0.477,1.085,0.86c0.182,0.314,0.32,0.648,0.418,0.931c0.812,2.705,1.577,5.328,2.32,8.035
		c0.132,0.423,0.259,0.841,0.347,1.255c0.105,0.413,0.105,0.863-0.01,1.315c-0.078,0.325-0.213,0.603-0.396,0.884l6.837-2.155
		l-0.135-0.058c-0.438-0.24-0.808-0.531-1.069-0.94c-0.193-0.274-0.335-0.558-0.434-0.941c-0.094-0.29-0.188-0.577-0.273-0.94
		l-1.442-4.957l-0.067-0.272c-0.118-0.307-0.194-0.686-0.223-1.089c-0.085-0.699,0.31-1.469,0.989-1.784
		c0.646-0.276,1.389-0.153,1.897,0.275c0.129,0.136,0.246,0.269,0.342,0.4c0.168,0.206,0.299,0.46,0.388,0.746
		c0.045,0.109,0.082,0.222,0.125,0.357l0.067,0.271l1.444,4.927c0.129,0.417,0.237,0.85,0.347,1.296
		c0.097,0.457,0.096,0.889-0.012,1.301c-0.089,0.341-0.222,0.676-0.396,0.953l6.838-2.184l-0.137-0.127
		c-0.438-0.15-0.813-0.441-1.081-0.836c-0.184-0.298-0.325-0.663-0.417-0.955c-0.098-0.319-0.192-0.667-0.274-0.954l-1.413-4.858
		c-0.151-0.611-0.344-1.166-0.555-1.788c-0.637-1.729-2.34-2.91-4.201-2.79c-1.13,0.001-2.229,0.367-3.202,0.956
		c-0.732,0.412-1.298,1.097-1.63,1.913C528.896,175.503,528.727,175.039,528.577,174.545"/>
	<path fill="#E0E0E0" d="M516.812,194.096c1.935-0.523,3.637-1.646,4.798-3.285c1.565-2.591,1.543-5.86-0.078-8.348
		c-1.42-2.351-4.122-3.599-6.83-3.135c-2.067,0.23-3.983,1.201-5.4,2.725c-1.502,1.7-2.107,4.072-1.613,6.306
		c0.296,1.934,1.356,3.692,2.953,4.911c1.704,1.104,3.807,1.438,5.782,0.921C516.558,194.13,516.687,194.101,516.812,194.096
		 M516.431,191.225c-0.554,0.148-1.165,0.137-1.683-0.137c-0.469-0.272-0.854-0.68-1.129-1.096
		c-0.506-0.835-0.886-1.772-1.116-2.729c-0.195-0.683-0.315-1.367-0.332-2.055c-0.029-0.542,0.059-1.016,0.265-1.5
		c0.231-0.547,0.694-0.958,1.254-1.126c0.508-0.241,1.09-0.244,1.618-0.103c0.462,0.237,0.862,0.542,1.159,0.951
		c0.543,0.688,0.941,1.508,1.185,2.359c0.091,0.318,0.177,0.639,0.259,0.923c0.174,0.683,0.274,1.371,0.273,2.061
		c-0.002,0.521-0.119,0.952-0.331,1.361c-0.24,0.46-0.639,0.819-1.122,0.965C516.631,191.169,516.542,191.219,516.431,191.225"/>
	<path fill="#E0E0E0" d="M497.005,184.726l0.137,0.169c0.417,0.182,0.752,0.552,0.997,0.953c0.16,0.317,0.282,0.598,0.372,0.992
		c0.647,2.676,1.269,5.356,1.857,8.081c0.109,0.411,0.203,0.832,0.274,1.271c0.084,0.474,0.06,0.914-0.078,1.326
		c-0.099,0.315-0.249,0.657-0.434,0.937l6.931-1.762l-0.122-0.13c-0.428-0.205-0.774-0.548-1.032-0.959
		c-0.154-0.28-0.282-0.632-0.365-0.959c-0.07-0.289-0.151-0.646-0.215-0.954l-2.564-10.903l-0.126,0.101
		c-0.302,0.277-0.672,0.543-1.074,0.678c-0.221,0.051-0.449,0.14-0.688,0.155L497.005,184.726"/>
	<path fill="#E0E0E0" d="M500.03,183.305c1.146-0.251,2.025-1.159,2.199-2.331c0.118-0.686-0.014-1.375-0.365-2.04
		c-0.615-1.106-1.944-1.652-3.179-1.247c-0.547,0.141-1.011,0.466-1.371,0.951c-0.502,0.599-0.711,1.402-0.595,2.198
		c0.101,0.82,0.533,1.542,1.174,2.05c0.588,0.411,1.306,0.558,2.009,0.479L500.03,183.305"/>
	<path fill="#E0E0E0" d="M487.635,196.871c0.107,0.595,0.245,1.174,0.403,1.729c0.175,0.559,0.493,1.099,0.911,1.517
		c0.43,0.404,0.962,0.683,1.537,0.814c1.228,0.258,2.487,0.142,3.663-0.274c0.457-0.171,0.933-0.353,1.391-0.521l0.73-2.803
		l0.009-0.066c0.006-0.021-0.002-0.024-0.017-0.029l-0.018-0.056l-0.021-0.044l-0.013-0.021l-0.021-0.007h-0.015h-0.022
		l-0.041-0.001l-0.024,0.001h-0.025l-0.01,0.001l-0.033,0.025l-0.031,0.046l-0.01,0.036l-0.015,0.021l-0.007,0.004l-0.001,0.001
		v0.002l-0.006,0.014l-0.004,0.044l-0.022,0.062l-0.007,0.01l-0.015,0.003l-0.042,0.004h-0.02h-0.015
		c-0.423,0.125-0.857,0.131-1.276,0.114c-0.423-0.093-0.833-0.249-1.193-0.486c-0.276-0.183-0.483-0.477-0.593-0.857
		c-0.103-0.25-0.175-0.49-0.229-0.746l-0.07-0.373l-1.172-5.618l0.713-0.191c0.349-0.055,0.669-0.175,1.028-0.188
		c0.347-0.069,0.728,0.004,1.042,0.177c0.201,0.101,0.372,0.234,0.536,0.366l-0.711-3.687l-3.181,0.688l-0.904-4.244l-1.966,0.414
		l0.005,0.136c0.235,2.432-1.075,4.713-3.271,5.746c-0.14,0.077-0.279,0.132-0.422,0.157l0.435,2.092l1.729-0.362L487.635,196.871"
		/>
	<path fill="#E0E0E0" d="M485.445,200.271c-0.417,0.116-0.842,0.118-1.256,0.032c-0.522-0.069-0.954-0.455-1.188-0.881
		c-0.18-0.396-0.312-0.758-0.374-1.123c-0.057-0.21-0.083-0.368-0.108-0.515c-0.06-0.267-0.104-0.538-0.138-0.778l-0.437-2.374
		c-0.064-0.271-0.105-0.543-0.173-0.812c-0.152-0.772-0.408-1.496-0.76-2.137c-0.531-0.868-1.375-1.53-2.395-1.731
		c-1.103-0.25-2.233-0.26-3.334-0.033c-1.234,0.216-2.44,0.621-3.558,1.168l-0.734,3.694l0.188-0.14
		c0.956-0.797,2.068-1.325,3.275-1.597c0.434-0.051,0.876-0.041,1.313,0.093c0.216,0.058,0.423,0.188,0.574,0.404
		c0.289,0.355,0.287,0.854-0.012,1.243c-0.121,0.153-0.284,0.306-0.468,0.418c-0.389,0.275-0.806,0.538-1.237,0.725
		c-0.744,0.354-1.509,0.706-2.226,1.069c-0.69,0.383-1.34,0.868-1.87,1.465c-0.646,0.825-0.969,1.832-0.871,2.886
		c0.053,1.082,0.547,2.047,1.29,2.742c0.664,0.679,1.563,1.079,2.479,1.104c0.688,0.086,1.382-0.006,2.05-0.139l1.466-0.36
		l0.781-2.868l-0.153,0.061c-0.234,0.091-0.48,0.14-0.719,0.145c-0.834-0.002-1.55-0.553-1.746-1.367
		c-0.1-0.272-0.112-0.547-0.083-0.82c0.052-0.272,0.164-0.521,0.354-0.693c0.198-0.271,0.447-0.533,0.719-0.683l0.261-0.238
		l0.837-0.593l0.16,0.972c0.109,0.625,0.239,1.235,0.387,1.853c0.158,0.729,0.536,1.349,1.029,1.852
		c0.974,0.941,2.274,1.387,3.612,1.338c0.409-0.033,0.821-0.114,1.229-0.167l1.123-0.354L485.445,200.271"/>
	<path fill="#E0E0E0" d="M463.193,192.46l-0.195,0.123c-0.481,0.338-1.078,0.562-1.666,0.687l-4.078,0.695l0.129,0.136
		c0.449,0.273,0.816,0.695,1,1.229c0.118,0.334,0.222,0.685,0.252,1.052l1.243,7.98c0.094,0.44,0.142,0.902,0.213,1.347
		c0.028,0.423-0.013,0.845-0.189,1.26c-0.103,0.335-0.289,0.634-0.479,0.875l6.987-1.172l-0.13-0.131
		c-0.438-0.28-0.815-0.698-0.985-1.229c-0.131-0.329-0.237-0.685-0.269-1.059c-0.03-0.212-0.095-0.453-0.117-0.718l-0.707-4.583
		c-0.049-0.233-0.104-0.487-0.124-0.755c-0.015-0.236-0.012-0.412,0.014-0.658c0.06-0.169,0.14-0.426,0.271-0.573
		c0.547-0.822,1.479-1.362,2.463-1.372c0.394-0.011,0.796,0,1.187,0.01l-0.594-3.695l-1.081,0.103l-0.143,0.031
		c-0.896,0.142-1.7,0.676-2.223,1.383c-0.186,0.385-0.336,0.715-0.43,1.09C463.413,193.828,463.289,193.143,463.193,192.46"/>
	<path fill="#E0E0E0" d="M449.502,210.078c1.993-0.252,3.814-1.194,5.163-2.636c1.894-2.381,2.277-5.557,0.954-8.289
		c-1.106-2.506-3.615-4.099-6.37-4.023c-2.094-0.07-4.086,0.631-5.688,1.976c-1.743,1.507-2.597,3.778-2.391,6.029
		c0.065,2.031,0.89,3.908,2.316,5.29c1.572,1.316,3.622,1.944,5.646,1.675C449.259,210.094,449.381,210.089,449.502,210.078
		 M449.484,207.198c-0.578,0.069-1.149-0.063-1.665-0.389c-0.414-0.329-0.727-0.775-0.965-1.231
		c-0.409-0.942-0.674-1.896-0.782-2.863c-0.101-0.683-0.153-1.376-0.058-2.065c0.021-0.531,0.159-1.014,0.429-1.47
		c0.29-0.464,0.814-0.841,1.376-0.976c0.542-0.139,1.107-0.084,1.623,0.149c0.428,0.261,0.814,0.662,1.065,1.079
		c0.436,0.81,0.72,1.642,0.855,2.543c0.043,0.316,0.12,0.602,0.138,0.886c0.113,0.716,0.117,1.461,0.008,2.167
		c-0.033,0.425-0.217,0.879-0.462,1.254c-0.32,0.417-0.768,0.718-1.251,0.813C449.71,207.127,449.595,207.171,449.484,207.198"/>
	<path fill="#E0E0E0" d="M430.317,207.37c0.068,0.601,0.131,1.205,0.256,1.764c0.115,0.563,0.344,1.126,0.698,1.64
		c0.402,0.42,0.938,0.779,1.489,0.958c1.188,0.401,2.459,0.422,3.674,0.14c0.442-0.131,0.952-0.241,1.399-0.304l1.056-2.74
		c0.02-0.082,0.02-0.104-0.002-0.128c-0.035-0.079-0.09-0.103-0.109-0.107c-0.03-0.005-0.112-0.003-0.13,0.005l-0.01,0.005
		l-0.014,0.021l-0.034,0.062l-0.016,0.029l-0.012,0.009l-0.018,0.009l-0.016,0.007l-0.017,0.044l-0.009,0.034l-0.005,0.023
		l-0.037,0.014l-0.029,0.005h-0.029c-0.43,0.013-0.848,0.002-1.269-0.118c-0.409-0.067-0.811-0.28-1.104-0.556
		c-0.266-0.267-0.456-0.554-0.537-0.93c-0.077-0.249-0.123-0.51-0.133-0.772l-0.025-0.394l-0.586-5.705l0.742-0.121
		c0.307-0.015,0.687-0.031,0.988-0.054c0.39-0.033,0.782,0.061,1.066,0.312c0.151,0.132,0.321,0.262,0.496,0.401l-0.347-3.765
		l-3.248,0.36l-0.441-4.375l-2.007,0.26v0.099c-0.021,2.385-1.552,4.562-3.854,5.366c-0.148,0.019-0.293,0.042-0.434,0.116
		l0.242,2.091l1.725-0.171L430.317,207.37"/>
	<path fill="#E0E0E0" d="M414.113,213.399c1.834,0.374,3.728,0.411,5.54,0.255c1.496-0.134,2.974-0.562,4.233-1.325
		c0.854-0.461,1.525-1.2,1.935-2.092c0.79-1.641,0.375-3.567-0.997-4.784c-0.81-0.684-1.761-1.153-2.735-1.403
		c-0.285-0.104-0.576-0.167-0.875-0.241l-1.281-0.275c-0.217-0.038-0.438-0.136-0.697-0.267c-0.154-0.073-0.338-0.225-0.443-0.414
		c-0.12-0.159-0.222-0.413-0.188-0.674c0.045-0.149,0.086-0.294,0.222-0.426c0.156-0.141,0.392-0.271,0.549-0.342
		c0.526-0.18,0.989-0.208,1.5-0.202c1.121,0.005,2.25,0.337,3.254,0.929l-0.253-3.227l-0.274-0.026
		c-2.11-0.33-4.24-0.278-6.303,0.137c-1.238,0.269-2.405,0.885-3.262,1.782c-0.958,1.091-1.27,2.591-0.846,3.96
		c0.165,0.611,0.572,1.143,1.113,1.524c0.566,0.511,1.246,0.849,2,1.104l2.587,0.933c0.34,0.133,0.654,0.279,1.002,0.513
		c0.158,0.083,0.299,0.24,0.435,0.43c0.127,0.143,0.148,0.311,0.143,0.544c0.008,0.319-0.143,0.689-0.419,0.882
		c-0.26,0.207-0.53,0.334-0.815,0.367c-0.617,0.146-1.258,0.229-1.924,0.134c-1.478-0.136-2.864-0.551-4.102-1.239L414.113,213.399"
		/>
	<path fill="#E0E0E0" d="M410.208,210.1c-1.232,0.82-2.604,1.384-4.099,1.751c-1.047,0.198-2.182,0.043-3.147-0.425
		c-1.188-0.725-1.938-1.98-2.061-3.371c-0.034-0.145-0.06-0.288-0.071-0.438l9.104-0.498l-0.005-0.176
		c-0.096-1.44-0.443-2.833-1.1-4.083c-0.84-1.473-2.318-2.474-3.984-2.747c-2.559-0.554-5.168,0.142-7.001,1.923
		c-1.722,1.798-2.408,4.353-1.986,6.755c0.265,2.079,1.442,3.91,3.184,5.005c1.174,0.659,2.414,0.962,3.707,1.014
		c2.255,0.213,4.452-0.194,6.497-1.165L410.208,210.1 M400.725,205.001c0.041-0.618,0.188-1.184,0.588-1.61
		c0.555-0.736,1.607-0.958,2.462-0.552c0.413,0.164,0.691,0.556,0.841,0.974c0.122,0.311,0.209,0.666,0.229,0.956L400.725,205.001"
		/>
	<path fill="#E0E0E0" d="M384.603,206.504l3.492,6.604c0.241,0.529,0.639,0.958,1.035,1.356c0.427,0.395,0.971,0.59,1.521,0.674
		c0.456,0.023,0.958,0.023,1.424-0.007l4.047-0.383l-0.127-0.097c-0.86-0.788-1.651-1.713-2.301-2.773
		c-0.168-0.27-0.307-0.521-0.444-0.761l-3.582-6.068l0.164-0.044c1.231-0.619,2.263-1.608,2.869-2.847
		c0.951-2.314,0.14-4.932-1.909-6.407c-0.604-0.421-1.37-0.694-2.121-0.792c-0.597-0.047-1.163-0.086-1.711-0.05l-0.546,0.006
		l-8.715,0.142l0.074,0.134c0.563,0.365,0.932,0.947,1.092,1.567c0.09,0.484,0.165,0.982,0.165,1.446v0.947l0.175,11.72
		c0.006,0.187,0.014,0.391,0.026,0.593c0.023,0.266,0.037,0.524,0.039,0.762c0.021,0.475-0.086,0.99-0.174,1.429
		c-0.145,0.666-0.478,1.217-1.024,1.57l7.927-0.08l-0.062-0.13c-0.565-0.39-0.938-0.947-1.103-1.604
		c-0.089-0.45-0.195-0.972-0.195-1.422l-0.003-0.932v-0.284L384.603,206.504 M384.763,197.924c0.33-0.006,0.693,0.007,1.101,0.127
		c0.687,0.188,1.234,0.701,1.507,1.383c0.685,1.68,0.141,3.641-1.233,4.769c-0.498,0.298-1.01,0.559-1.582,0.682l-0.109-6.958
		L384.763,197.924"/>
	<path fill="#E0E0E0" d="M352.812,202.861c0.562-0.43,1.094-0.974,1.572-1.542c1.037-1.338,1.23-3.12,0.477-4.621
		c-0.682-1.143-1.843-1.952-3.144-2.2c-1.629-0.397-3.292-0.255-4.814,0.423c-0.927,0.409-1.677,1.155-2.084,2.057
		c-0.448,1.169-0.417,2.447,0.092,3.548c0.276,0.604,0.615,1.212,1.004,1.739c0.266,0.316,0.538,0.698,0.811,0.997l-0.204,0.138
		c-1.092,0.697-2.053,1.615-2.89,2.593c-0.728,0.826-1.156,1.895-1.297,2.984c-0.189,1.815,0.613,3.664,2.103,4.79
		c1.328,0.966,2.904,1.494,4.544,1.508c1.233,0.052,2.494-0.113,3.691-0.526c0.99-0.406,1.881-1.051,2.568-1.899l0.169,0.207
		c1.23,1.273,2.871,2.064,4.649,2.219c0.421,0.022,0.889,0.037,1.318,0.052l5.021-0.303l-0.391-0.268
		c-3.882-2.339-7.372-5.311-10.324-8.747L352.812,202.861 M353.312,210.786c-0.538,0.82-1.458,1.355-2.418,1.367
		c-1.012,0.034-1.938-0.413-2.529-1.192c-0.547-0.743-0.814-1.695-0.682-2.647c0.095-0.954,0.548-1.814,1.25-2.459L353.312,210.786
		 M350.562,200.521c-0.219-0.275-0.484-0.555-0.691-0.867c-0.204-0.229-0.344-0.5-0.478-0.775c-0.069-0.222-0.109-0.408-0.071-0.655
		c0.022-0.369,0.286-0.705,0.685-0.838c0.548-0.146,1.164,0.097,1.499,0.571c0.221,0.393,0.279,0.924,0.075,1.342
		c-0.075,0.266-0.229,0.482-0.412,0.676C350.967,200.15,350.771,200.375,350.562,200.521"/>
	<path fill="#E0E0E0" d="M323.929,208.235l-1.902-5.947l-0.228-0.747c-0.059-0.202-0.128-0.46-0.205-0.637
		c-0.101-0.338-0.177-0.65-0.236-0.933l-0.006-0.143l-6.451-0.524l0.029,0.129c0.476,0.41,0.841,0.925,1.102,1.489
		c0.214,0.425,0.409,0.943,0.56,1.388l2.593,7.807c0.218,0.767,0.534,1.464,0.942,2.064c0.353,0.541,0.814,1.053,1.322,1.452
		l-0.065,0.16c-0.22,0.681-0.538,1.353-0.952,1.914c-0.578,0.858-1.569,1.367-2.614,1.346c-0.147,0.002-0.292-0.016-0.444-0.078
		c-0.129-0.038-0.259-0.051-0.392-0.117l-2.509,2.937l1.325,0.15l0.283,0.009c1.175,0.122,2.356-0.007,3.501-0.3
		c1.436-0.437,2.622-1.479,3.288-2.822c0.275-0.52,0.538-1.066,0.753-1.632l6.431-14.813l-4.31-0.338l0.043,0.129
		c0.22,0.217,0.385,0.499,0.497,0.845c0.077,0.304,0.102,0.592,0.061,0.872c-0.056,0.308-0.131,0.643-0.246,0.943
		c-0.072,0.163-0.15,0.415-0.228,0.575L323.929,208.235"/>
	<path fill="#E0E0E0" d="M305.55,212.434l6.347,0.633l-0.099-0.216c-0.552-0.667-0.864-1.511-0.884-2.35
		c-0.015-0.548,0-1.1,0.065-1.649l0.046-0.382l1.482-16.145l-0.121,0.009c-0.467,0.257-0.988,0.362-1.491,0.317
		c-0.218-0.009-0.443-0.033-0.664-0.054l-0.345-0.007l-3.551-0.297l0.097,0.146c0.369,0.388,0.604,0.856,0.671,1.396
		c0.034,0.281,0.044,0.569,0.031,0.863c-0.003,0.178-0.011,0.345-0.016,0.491l-0.02,0.264l-0.017,0.261l-0.292,3.302l-0.194-0.14
		c-1.327-1.079-3.033-1.494-4.701-1.221c-1.657,0.279-3.121,1.253-4.039,2.714c-0.125,0.157-0.237,0.365-0.345,0.565
		c-1.773,2.997-1.468,6.729,0.753,9.425c1.049,1.134,2.512,1.881,4.081,1.976c0.248,0.062,0.501,0.062,0.758,0l0.079-0.022
		l0.056-0.017l0.084-0.01l0.045-0.004l0.033-0.007l1.616-2.461l-0.408-0.034c-1.285-0.22-2.321-1.176-2.61-2.418
		c-0.196-0.746-0.25-1.514-0.176-2.321c0.049-0.822,0.214-1.643,0.498-2.423c0.163-0.451,0.418-0.857,0.747-1.15
		c0.374-0.395,0.863-0.548,1.372-0.546c0.51,0.002,1.001,0.158,1.365,0.555c0.391,0.412,0.599,0.964,0.585,1.528
		c-0.004,0.282-0.02,0.566-0.06,0.845L305.55,212.434"/>
	<path fill="#E0E0E0" d="M285.351,210.214c1.957,0.297,3.963-0.109,5.645-1.155c2.407-1.8,3.569-4.825,2.98-7.723
		c-0.457-2.731-2.48-4.924-5.163-5.609c-1.976-0.653-4.104-0.529-5.996,0.3c-2.04,1.07-3.453,2.993-3.8,5.229
		c-0.441,1.98-0.104,4.019,0.932,5.7c1.157,1.731,2.977,2.868,5.014,3.154C285.095,210.145,285.22,210.184,285.351,210.214
		 M286.058,207.384c-0.594-0.029-1.139-0.309-1.516-0.807c-0.326-0.437-0.542-0.909-0.631-1.43
		c-0.163-0.994-0.179-2.015-0.042-2.979c0.052-0.688,0.203-1.374,0.434-2.05c0.161-0.448,0.432-0.898,0.791-1.238
		c0.425-0.407,1.003-0.636,1.589-0.556c0.558,0.004,1.099,0.164,1.513,0.562c0.36,0.391,0.616,0.819,0.746,1.328
		c0.232,0.858,0.303,1.789,0.213,2.645c-0.02,0.331-0.05,0.66-0.092,0.946c-0.084,0.69-0.253,1.375-0.515,2.053
		c-0.17,0.414-0.441,0.818-0.792,1.102c-0.39,0.352-0.89,0.524-1.395,0.469l-0.078-0.004
		C286.209,207.418,286.132,207.404,286.058,207.384"/>
	<path fill="#E0E0E0" d="M269.018,185.896H268.9c-0.355,0.181-0.75,0.273-1.147,0.27c-0.231-0.004-0.458-0.046-0.691-0.125
		l-0.293-0.012l-3.834-0.646l0.073,0.169c0.299,0.352,0.49,0.84,0.553,1.302c0.026,0.273,0.025,0.547-0.005,0.82
		c-0.034,0.291-0.076,0.632-0.124,0.95c-0.67,4.658-1.41,9.38-2.228,14.078c-0.047,0.292-0.11,0.662-0.189,0.972
		c-0.106,0.409-0.362,0.814-0.72,1.079l-0.077,0.03c-0.023,0.047-0.054,0.097-0.08,0.111l0.363,0.157
		c2.58,1.209,5.36,1.89,8.185,2.032c1.667,0.084,3.32-0.392,4.716-1.268c3.087-2.275,4.175-6.38,2.596-9.812
		c-1.02-2.039-2.999-3.347-5.232-3.544c-0.228,0-0.453,0-0.676,0.034l-1.77,2.355l0.118,0.053c0.809,0.152,1.531,0.574,2.043,1.247
		c0.479,0.68,0.755,1.482,0.792,2.303c0.087,1.255-0.141,2.572-0.667,3.721c-0.318,0.751-0.871,1.354-1.572,1.706
		c-0.914,0.391-1.964,0.345-2.853-0.079L269.018,185.896"/>
	<path fill="#E0E0E0" d="M248.58,203.262c1.925,0.47,3.96,0.222,5.702-0.702c2.521-1.63,3.873-4.595,3.474-7.525
		c-0.29-2.778-2.164-5.123-4.796-5.994c-1.925-0.713-4.054-0.76-6.003-0.045c-2.096,0.865-3.635,2.692-4.121,4.942
		c-0.565,1.919-0.362,3.98,0.568,5.753c1.038,1.784,2.778,3.024,4.792,3.473C248.324,203.229,248.451,203.253,248.58,203.262
		 M249.464,200.527c-0.588-0.118-1.112-0.414-1.465-0.923c-0.297-0.445-0.483-0.979-0.536-1.518
		c-0.101-0.978-0.049-1.941,0.153-2.899c0.097-0.689,0.286-1.371,0.562-2.045c0.191-0.427,0.488-0.838,0.869-1.215
		c0.447-0.338,1.035-0.538,1.613-0.43c0.567,0.013,1.088,0.277,1.476,0.688c0.338,0.404,0.565,0.829,0.669,1.364
		c0.171,0.872,0.182,1.781,0.036,2.701c-0.038,0.304-0.094,0.584-0.155,0.872c-0.123,0.707-0.342,1.382-0.638,2.035
		c-0.198,0.412-0.498,0.81-0.866,1.086c-0.411,0.28-0.916,0.414-1.419,0.325C249.666,200.549,249.562,200.532,249.464,200.527"/>
	<path fill="#E0E0E0" d="M231.354,193.691c-0.142,0.548-0.251,1.134-0.325,1.746c-0.084,0.577-0.021,1.196,0.185,1.789
		c0.23,0.557,0.608,1.004,1.087,1.386c0.989,0.786,2.179,1.232,3.42,1.368c0.481,0.062,0.964,0.133,1.448,0.187l1.826-2.239
		l0.011-0.008c0.01-0.015,0.018-0.055,0.022-0.091l0.003-0.034l-0.008-0.009l-0.013-0.009l-0.015-0.068l-0.023-0.032l-0.006-0.011
		l-0.006-0.006l-0.026-0.004l-0.033-0.001l-0.023-0.001h-0.017l-0.042,0.002h-0.022l-0.021,0.002l-0.024,0.031
		c-0.008,0.004-0.014,0.011-0.017,0.02c-0.002,0.012-0.004,0.021-0.003,0.036l-0.009,0.032l-0.024,0.008l-0.033,0.006l-0.026,0.001
		c-0.025,0.006-0.056,0.006-0.085,0c-0.418-0.13-0.82-0.274-1.191-0.518c-0.37-0.188-0.675-0.548-0.886-0.894
		c-0.167-0.356-0.24-0.669-0.207-1.051c0.014-0.273,0.061-0.545,0.118-0.818l0.089-0.39l1.229-5.593l0.713,0.213
		c0.339,0.025,0.675,0.154,1.002,0.245c0.359,0.089,0.671,0.326,0.88,0.627c0.133,0.197,0.244,0.38,0.349,0.523l0.846-3.604
		l-3.176-0.775l0.941-4.254l-1.977-0.531l-0.047,0.136c-0.751,2.313-2.891,3.825-5.297,3.787c-0.154-0.01-0.305-0.031-0.455-0.069
		l-0.457,2.078l1.72,0.413L231.354,193.691"/>
	<path fill="#E0E0E0" d="M220.239,180.265l-0.2,0.017c-0.447,0.098-0.913,0.113-1.361,0.006c-0.181-0.024-0.361-0.109-0.532-0.135
		l-3.942-1.021l0.064,0.171c0.269,0.388,0.429,0.849,0.465,1.32c0.009,0.352-0.021,0.718-0.107,1.034
		c-0.51,2.267-1.063,4.511-1.663,6.707l-0.071,0.275c-0.175,0.666-0.275,1.256-0.315,1.907c-0.045,0.986,0.336,1.982,1.061,2.696
		c1.231,1.147,2.939,1.726,4.638,1.531c0.804-0.141,1.56-0.536,2.173-1.083l-0.389,1.596l5.898,1.547l-0.061-0.143
		c-0.27-0.405-0.425-0.868-0.44-1.36c-0.007-0.339,0.03-0.686,0.113-1.034c0.052-0.207,0.105-0.469,0.166-0.719l0.063-0.247
		l2.649-10.854l-0.163,0.001c-0.497,0.137-1.02,0.137-1.518,0c-0.137-0.005-0.272-0.046-0.408-0.122l-3.904-0.974l0.065,0.14
		c0.272,0.408,0.426,0.84,0.463,1.363c0.015,0.318-0.025,0.686-0.107,1.017c-0.07,0.35-0.144,0.628-0.227,0.964l-1.206,4.848
		c-0.076,0.288-0.156,0.67-0.266,0.97c-0.056,0.146-0.123,0.325-0.197,0.497c-0.138,0.289-0.334,0.515-0.571,0.731
		c-0.292,0.217-0.664,0.286-1.03,0.276c-0.348-0.005-0.689-0.138-0.977-0.333c-0.274-0.217-0.459-0.506-0.521-0.897
		c-0.062-0.282-0.069-0.664-0.017-0.961c0.07-0.543,0.176-1.085,0.329-1.567l0.077-0.284l0.073-0.249L220.239,180.265"/>
	<path fill="#E0E0E0" d="M203.602,183.582l0.122,3.146l0.009,0.225c0.009,0.105,0.014,0.211,0.014,0.318
		c-0.005,0.179-0.024,0.355-0.072,0.523c-0.06,0.285-0.175,0.56-0.349,0.821c-0.181,0.199-0.413,0.418-0.684,0.541
		c-0.22,0.094-0.454,0.163-0.688,0.29l8.509,2.607l-0.092-0.229c-0.412-0.707-0.713-1.423-0.903-2.236
		c-0.116-0.551-0.183-1.107-0.198-1.719l-0.049-0.742l-1.019-16.82l-6.916-2.054l0.074,0.139c0.246,0.273,0.418,0.659,0.519,0.999
		c0.091,0.37,0.058,0.779-0.111,1.188c-0.196,0.41-0.425,0.801-0.689,1.12c-0.147,0.249-0.292,0.458-0.435,0.659
		c-2.325,3.652-4.76,7.209-7.298,10.666c-0.325,0.484-0.676,0.955-1.052,1.368c-0.524,0.604-1.155,1.094-1.869,1.484l5.781,1.791
		l-0.128-0.271l-0.07-0.133c-0.142-0.202-0.256-0.416-0.337-0.684c-0.105-0.343-0.089-0.692,0.038-1.086
		c0.114-0.283,0.268-0.564,0.446-0.849c0.199-0.373,0.406-0.663,0.624-0.946l1.246-1.796L203.602,183.582 M203.452,180.562
		l-3.83-1.181l3.518-5.233L203.452,180.562"/>
</g>
</svg>
