<?xml version="1.0" encoding="utf-8"?>
<!-- Generator: Adobe Illustrator 16.0.0, SVG Export Plug-In . SVG Version: 6.00 Build 0)  -->
<!DOCTYPE svg PUBLIC "-//W3C//DTD SVG 1.1//EN" "http://www.w3.org/Graphics/SVG/1.1/DTD/svg11.dtd">
<svg version="1.1" id="Layer_1" xmlns="http://www.w3.org/2000/svg" xmlns:xlink="http://www.w3.org/1999/xlink" x="0px" y="0px"
	 width="257px" height="104.333px" viewBox="0 0 257 104.333" enable-background="new 0 0 257 104.333" xml:space="preserve">
<g>
	<path d="M144.845,5.022l-0.664,0.009c13.835,1.339,27.554,3.66,41.054,6.953c8.606,2.237,16.878,5.611,24.592,10.045
		c3.406,1.998,6.452,4.575,8.991,7.609c1.562,1.922,2.633,4.198,3.118,6.631c0.458,3.086-0.247,6.234-1.984,8.826
		c-1.938,2.892-4.416,5.384-7.301,7.335c-6.15,4.138-12.86,7.373-19.928,9.608c-23.173,7.044-47.257,10.607-71.475,10.58
		c-2.713,0.046-5.427,0.049-8.138,0.021c3.034,0.438,6.077,0.778,9.129,1.021c30.572,2.415,61.328-0.207,91.044-7.757
		c8.541-2.287,16.718-5.765,24.289-10.333c2.848-1.803,5.43-4.001,7.66-6.534c2.307-2.569,3.653-5.856,3.818-9.302l-0.101-1.461
		c-0.461-2.894-1.734-5.598-3.673-7.797c-2.929-3.314-6.42-6.08-10.313-8.171c-9.937-5.256-20.576-9.057-31.592-11.29
		C184.123,6.991,164.511,4.983,144.845,5.022"/>
	<path d="M142.563,5.584l-0.372-0.058c-3.647-0.412-7.306-0.716-10.969-0.909c-24.689-1.282-49.437,0.57-73.656,5.516
		c-11.149,2.206-21.933,5.964-32.038,11.163c-3.948,2.064-7.504,4.798-10.512,8.075c-2.021,2.194-3.36,4.926-3.849,7.871
		l-0.102,1.477c0.074,2.886,1.074,5.672,2.853,7.949c2.122,2.737,4.68,5.099,7.575,6.992c5.841,3.745,12.143,6.728,18.75,8.863
		c23.139,7.039,47.195,10.622,71.38,10.64c-12.863-1.345-25.572-3.879-37.966-7.572c-7.964-2.308-15.552-5.751-22.524-10.229
		c-2.896-1.906-5.448-4.293-7.546-7.053c-1.461-1.96-2.408-4.258-2.749-6.68l-0.078-1.352c0.114-3.181,1.282-6.241,3.321-8.686
		c2.497-3.013,5.487-5.579,8.844-7.588c7.592-4.444,15.748-7.837,24.248-10.087C98.57,8.605,120.517,5.805,142.563,5.584"/>
	<path d="M171.956,41.001h2.587c1.204-0.064,2.41,0.041,3.587,0.308c0.914,0.244,1.638,0.947,1.905,1.856l0.319-2.384l0.161-1.25
		l0.629-4.788c-0.744,0.176-1.506,0.275-2.269,0.295l-6.246,0.008l1.101-9.73c0.033-0.005,0.06-0.008,0.096-0.011
		c1.8-0.028,3.611-0.021,5.416,0.021c1.805,0.155,3.479,1.034,4.626,2.438l1.088-8.65c-0.671,0.191-1.363,0.286-2.061,0.281
		l-22.416,0.015c-0.111,0-0.226,0-0.338,0.003c1.441,1.478,2.194,3.499,2.075,5.561c-0.161,0.926-0.29,1.857-0.375,2.791
		l-2.622,23.24c-0.116,1.227-0.277,2.452-0.489,3.67c-0.384,1.742-1.46,3.253-2.983,4.176l27.742,0.086l3.54-9.034
		c-4.633,3.394-10.629,4.323-16.072,2.501l-0.272-0.119c0.013-0.113,0.019-0.227,0.038-0.337L171.956,41.001"/>
	<path d="M147.882,26.202l0.109-0.025c1.521-0.352,3.095-0.444,4.65-0.279c1.447,0.304,2.677,1.255,3.34,2.582l3.126-8.982
		l0.019-0.078c-0.075-0.007-0.154-0.012-0.232-0.012h-26.833c-1.079,0.066-2.162,0.009-3.23-0.179l-3.473,9.173l-0.033,0.09
		l0.059-0.042c3.059-2.16,6.857-2.997,10.538-2.313l0.329,0.074c-0.005,0.095-0.013,0.189-0.02,0.284l-2.501,22.173
		c-0.104,1.997-0.441,3.979-1.015,5.892c-0.485,1.649-1.419,3.132-2.701,4.278l-0.086,0.05l9.632,0.053l7.081,0.036
		c0.1,0,0.201,0,0.303-0.004l-0.038-0.101c-1.223-1.325-1.931-3.038-1.999-4.84c0.018-1.389,0.128-2.775,0.324-4.149L147.882,26.202
		"/>
	<path d="M123.25,34.735c0.307-3.173,0.665-6.343,1.069-9.504c0.099-0.609,0.221-1.213,0.372-1.811
		c0.396-1.653,1.45-3.071,2.925-3.919l-16.633-0.094h-0.258c1.62,1.341,2.388,3.448,2.013,5.511l-2.949,26.327
		c-0.058,1.58-0.365,3.141-0.896,4.628c-0.505,1.279-1.433,2.345-2.63,3.02l16.871,0.055l-0.026-0.188l-0.06-0.043
		c-0.904-0.62-1.54-1.558-1.789-2.627c-0.09-0.462-0.141-0.928-0.152-1.397c-0.012-0.398-0.008-0.802,0.019-1.201L123.25,34.735"/>
	<path d="M81.712,40.942h11.245l-1.259,11.271c-0.07,1.182-0.313,2.343-0.722,3.455c-0.469,1.367-1.429,2.517-2.686,3.225
		l16.813,0.093c-1.039-0.888-1.715-2.121-1.904-3.47c-0.082-0.695-0.093-1.396-0.036-2.094l1.815-16.134
		c0.354-3.734,0.775-7.462,1.256-11.181c0.065-1.602,0.501-3.166,1.275-4.567c0.531-0.856,1.274-1.56,2.164-2.035l-0.453-0.007
		l-16.207-0.085l-0.264-0.002c0.469,0.425,0.889,0.907,1.245,1.427c0.228,0.342,0.41,0.718,0.539,1.107
		c0.215,0.89,0.3,1.805,0.256,2.722l-0.054,0.442l-1.092,9.761H82.397l0.928-8.366c0.053-0.76,0.157-1.52,0.304-2.266l0.096-0.484
		c0.261-1.183,0.836-2.28,1.667-3.164c0.281-0.306,0.598-0.578,0.944-0.815c0.129-0.091,0.268-0.179,0.401-0.263
		c-0.126-0.009-0.255-0.012-0.382-0.015l-16.213-0.085l-0.229-0.002c0.539,0.524,1.01,1.115,1.402,1.759
		c0.308,0.533,0.494,1.129,0.54,1.743c0.104,0.724,0.118,1.458,0.04,2.186l-3.117,27.598c-0.08,0.981-0.295,1.95-0.63,2.876
		c-0.459,1.413-1.432,2.596-2.726,3.32l16.175,0.082c0.117,0,0.233,0,0.352,0.003c0.122,0,0.239-0.003,0.36-0.007
		c-0.57-0.51-1.053-1.104-1.447-1.763c-0.609-1.38-0.782-2.916-0.489-4.4L81.712,40.942"/>
	<path d="M238.983,68.251l-0.137,0.087c-0.344,0.3-0.746,0.524-1.183,0.658l-2.546,0.836l0.093,0.068
		c0.295,0.133,0.552,0.347,0.729,0.616c0.129,0.197,0.221,0.414,0.29,0.637c0.543,1.8,1.07,3.598,1.569,5.407
		c0.091,0.284,0.17,0.574,0.234,0.856c0.07,0.296,0.066,0.602-0.009,0.896c-0.058,0.218-0.147,0.43-0.268,0.621l4.631-1.469
		l-0.091-0.064c-0.297-0.131-0.548-0.336-0.726-0.606c-0.128-0.197-0.225-0.411-0.294-0.637c-0.064-0.211-0.131-0.424-0.186-0.64
		l-0.974-3.37l-0.053-0.17c-0.075-0.237-0.128-0.485-0.149-0.735c-0.056-0.512,0.213-1.006,0.671-1.238
		c0.438-0.193,0.943-0.111,1.29,0.214c0.086,0.067,0.159,0.148,0.222,0.233c0.119,0.162,0.208,0.342,0.268,0.531
		c0.032,0.082,0.054,0.165,0.078,0.25l0.049,0.158l0.977,3.371c0.09,0.278,0.168,0.569,0.234,0.857
		c0.068,0.29,0.062,0.598-0.011,0.89c-0.056,0.221-0.146,0.43-0.267,0.623l4.634-1.465l-0.095-0.067
		c-0.292-0.131-0.548-0.336-0.728-0.601c-0.128-0.201-0.222-0.417-0.285-0.646c-0.065-0.211-0.132-0.419-0.19-0.633l-0.95-3.291
		c-0.108-0.412-0.234-0.813-0.379-1.208c-0.434-1.186-1.585-1.956-2.85-1.907c-0.763,0.033-1.506,0.253-2.165,0.647
		c-0.492,0.305-0.881,0.753-1.105,1.291C239.203,68.929,239.089,68.592,238.983,68.251"/>
	<path d="M231.015,81.496c1.318-0.327,2.47-1.122,3.252-2.23c1.066-1.743,1.05-3.936-0.044-5.659
		c-0.967-1.586-2.793-2.425-4.63-2.12c-1.396,0.163-2.695,0.814-3.663,1.842c-1.014,1.18-1.421,2.767-1.087,4.289
		c0.197,1.324,0.917,2.521,1.996,3.316c1.155,0.758,2.586,0.988,3.921,0.626C230.842,81.542,230.929,81.522,231.015,81.496
		 M230.769,79.561c-0.384,0.121-0.795,0.086-1.149-0.099c-0.312-0.182-0.573-0.441-0.759-0.752
		c-0.348-0.567-0.601-1.183-0.758-1.826c-0.138-0.46-0.216-0.929-0.23-1.408c-0.018-0.342,0.05-0.679,0.181-0.996
		c0.164-0.368,0.472-0.653,0.848-0.784c0.35-0.149,0.74-0.162,1.101-0.044c0.309,0.133,0.58,0.341,0.788,0.614
		c0.363,0.488,0.635,1.042,0.799,1.625c0.059,0.202,0.12,0.401,0.175,0.607c0.121,0.462,0.185,0.942,0.185,1.42
		c-0.006,0.318-0.078,0.634-0.221,0.918c-0.164,0.306-0.436,0.541-0.765,0.659C230.899,79.518,230.834,79.542,230.769,79.561"/>
	<path d="M217.596,75.161l0.095,0.105c0.286,0.144,0.519,0.375,0.679,0.646c0.112,0.211,0.194,0.432,0.248,0.659
		c0.444,1.832,0.864,3.666,1.268,5.507c0.074,0.285,0.137,0.572,0.185,0.859c0.055,0.298,0.036,0.605-0.054,0.893
		c-0.067,0.219-0.17,0.425-0.3,0.614l4.706-1.186l-0.088-0.071c-0.289-0.147-0.531-0.376-0.699-0.657
		c-0.11-0.203-0.193-0.423-0.246-0.65c-0.053-0.214-0.103-0.428-0.151-0.642l-1.728-7.381l-0.087,0.071
		c-0.212,0.192-0.458,0.341-0.729,0.433c-0.152,0.052-0.307,0.1-0.463,0.134L217.596,75.161"/>
	<path d="M219.653,74.216c0.773-0.177,1.365-0.811,1.485-1.598c0.083-0.469-0.004-0.953-0.242-1.362
		c-0.419-0.766-1.316-1.133-2.152-0.881c-0.372,0.11-0.691,0.336-0.934,0.637c-0.334,0.438-0.482,0.988-0.409,1.532
		c0.078,0.541,0.364,1.033,0.806,1.362c0.392,0.283,0.882,0.401,1.361,0.329L219.653,74.216"/>
	<path d="M211.263,83.393c0.064,0.391,0.159,0.771,0.27,1.146c0.119,0.395,0.327,0.748,0.61,1.043
		c0.295,0.275,0.656,0.464,1.049,0.547c0.83,0.164,1.688,0.102,2.478-0.189c0.314-0.115,0.626-0.223,0.938-0.325l0.498-1.922
		l0.004-0.021c0.005-0.02,0-0.035-0.009-0.052l-0.012-0.023l-0.013-0.017l-0.015-0.011l-0.021-0.009l-0.01-0.004l-0.01-0.005
		l-0.023-0.005l-0.02,0.005l-0.019,0.005l-0.011,0.009l-0.021,0.015l-0.021,0.017l-0.005,0.012l-0.011,0.021l-0.006,0.01v0.005
		v0.008l-0.003,0.02l-0.004,0.014l-0.013,0.022l-0.017,0.021l-0.009,0.002l-0.021,0.014l-0.016,0.005l-0.006,0.005
		c-0.289,0.056-0.58,0.072-0.877,0.046c-0.289-0.033-0.565-0.139-0.799-0.306c-0.189-0.144-0.333-0.345-0.411-0.573
		c-0.061-0.168-0.111-0.344-0.144-0.522l-0.053-0.267l-0.792-3.802l0.487-0.112c0.225-0.059,0.456-0.104,0.687-0.142
		c0.246-0.04,0.497,0.012,0.718,0.138c0.123,0.064,0.245,0.139,0.361,0.221l-0.486-2.49l-2.158,0.488l-0.601-2.905l-1.342,0.304
		l0.005,0.082c0.159,1.639-0.728,3.198-2.213,3.9c-0.095,0.046-0.19,0.082-0.289,0.121l0.294,1.402l1.17-0.263L211.263,83.393"/>
	<path d="M209.775,85.705c-0.279,0.057-0.568,0.061-0.851,0.012c-0.351-0.066-0.647-0.3-0.805-0.617
		c-0.12-0.238-0.21-0.494-0.265-0.752c-0.024-0.121-0.047-0.236-0.069-0.355c-0.032-0.169-0.063-0.333-0.093-0.501l-0.297-1.637
		c-0.034-0.184-0.07-0.365-0.108-0.547c-0.098-0.501-0.278-0.983-0.527-1.427c-0.349-0.596-0.934-1.027-1.606-1.188
		c-0.748-0.178-1.524-0.18-2.267-0.012c-0.835,0.145-1.646,0.409-2.413,0.775l-0.496,2.514l0.13-0.105
		c0.65-0.51,1.406-0.874,2.217-1.059c0.298-0.062,0.605-0.045,0.896,0.045c0.143,0.048,0.284,0.14,0.382,0.264
		c0.192,0.257,0.192,0.61-0.004,0.865c-0.088,0.111-0.194,0.214-0.311,0.296c-0.263,0.185-0.542,0.344-0.836,0.478
		c-0.515,0.226-1.02,0.473-1.521,0.732c-0.476,0.244-0.898,0.572-1.253,0.963c-0.444,0.562-0.656,1.269-0.609,1.978
		c0.054,0.715,0.373,1.376,0.896,1.866c0.448,0.449,1.044,0.715,1.676,0.749c0.466,0.029,0.933-0.004,1.392-0.096l0.982-0.26
		l0.522-1.942l-0.104,0.035c-0.147,0.061-0.31,0.099-0.477,0.107c-0.562-0.006-1.048-0.385-1.187-0.927
		c-0.067-0.175-0.085-0.368-0.052-0.552c0.039-0.181,0.121-0.352,0.235-0.491c0.138-0.175,0.304-0.331,0.484-0.463l0.173-0.135
		l0.573-0.433l0.118,0.675c0.062,0.421,0.148,0.843,0.252,1.255c0.115,0.481,0.358,0.919,0.704,1.274
		c0.654,0.62,1.537,0.935,2.437,0.871c0.28-0.011,0.56-0.043,0.832-0.102l0.767-0.216L209.775,85.705"/>
	<path d="M194.698,80.396l-0.127,0.065c-0.333,0.251-0.728,0.414-1.143,0.472l-2.748,0.493l0.085,0.08
		c0.304,0.2,0.551,0.488,0.683,0.834c0.081,0.225,0.139,0.463,0.17,0.704l0.842,5.429c0.054,0.294,0.095,0.587,0.129,0.886
		c0.033,0.298-0.011,0.597-0.116,0.88c-0.084,0.209-0.194,0.401-0.334,0.575l4.736-0.805l-0.082-0.08
		c-0.307-0.196-0.551-0.483-0.681-0.831c-0.083-0.225-0.141-0.466-0.174-0.704c-0.03-0.168-0.054-0.331-0.077-0.497l-0.485-3.107
		c-0.032-0.169-0.059-0.34-0.083-0.514c-0.016-0.141-0.011-0.286,0.02-0.425c0.029-0.147,0.096-0.287,0.178-0.411
		c0.376-0.562,0.996-0.912,1.673-0.934c0.261-0.013,0.525-0.004,0.789,0.021l-0.389-2.511l-0.737,0.064L196.73,80.1
		c-0.611,0.104-1.152,0.454-1.495,0.97c-0.146,0.221-0.25,0.472-0.303,0.735C194.854,81.338,194.776,80.873,194.698,80.396"/>
	<path d="M185.432,92.319c1.343-0.147,2.586-0.777,3.499-1.775c1.273-1.593,1.523-3.771,0.65-5.615
		c-0.759-1.702-2.469-2.772-4.329-2.722c-1.404-0.03-2.771,0.444-3.861,1.333c-1.155,1.035-1.754,2.561-1.604,4.105
		c0.034,1.347,0.598,2.623,1.573,3.557c1.048,0.909,2.429,1.326,3.811,1.15C185.256,92.343,185.344,92.331,185.432,92.319
		 M185.425,90.367c-0.396,0.07-0.802-0.021-1.128-0.253c-0.287-0.219-0.512-0.508-0.66-0.844c-0.273-0.608-0.451-1.255-0.522-1.917
		c-0.077-0.468-0.101-0.948-0.059-1.424c0.023-0.341,0.128-0.669,0.302-0.963c0.212-0.341,0.551-0.582,0.941-0.667
		c0.361-0.097,0.754-0.061,1.089,0.108c0.298,0.172,0.546,0.421,0.712,0.72c0.3,0.532,0.499,1.112,0.591,1.712
		c0.038,0.208,0.065,0.413,0.09,0.623c0.071,0.479,0.071,0.96,0.016,1.439c-0.045,0.313-0.152,0.616-0.325,0.876
		c-0.202,0.284-0.503,0.48-0.84,0.552C185.557,90.343,185.491,90.357,185.425,90.367"/>
	<path d="M172.447,90.512c0.027,0.395,0.076,0.785,0.147,1.175c0.072,0.399,0.243,0.78,0.492,1.104
		c0.27,0.304,0.609,0.532,0.994,0.656c0.802,0.263,1.663,0.295,2.48,0.098c0.323-0.079,0.647-0.148,0.973-0.219l0.69-1.853
		c0.014-0.028,0.014-0.061,0-0.092c-0.012-0.028-0.036-0.05-0.064-0.06c-0.029-0.006-0.061-0.006-0.088,0.01l-0.017,0.015
		l-0.013,0.012l-0.012,0.021l-0.005,0.012l-0.01,0.016l-0.003,0.018l-0.011,0.012l-0.017,0.025l-0.015,0.013l-0.012,0.008
		l-0.021,0.008l-0.007,0.005h-0.016c-0.293,0.024-0.583,0.006-0.873-0.049c-0.284-0.066-0.543-0.199-0.76-0.391
		c-0.172-0.171-0.297-0.382-0.351-0.62c-0.044-0.175-0.073-0.359-0.09-0.541l-0.03-0.273l-0.384-3.862l0.496-0.055
		c0.228-0.032,0.461-0.055,0.69-0.061c0.25-0.012,0.5,0.065,0.704,0.216c0.12,0.081,0.229,0.166,0.337,0.26l-0.222-2.528
		l-2.202,0.245l-0.293-2.964l-1.366,0.154v0.075c-0.008,1.642-1.053,3.096-2.607,3.628c-0.098,0.03-0.192,0.06-0.295,0.083
		l0.141,1.43l1.184-0.131L172.447,90.512"/>
	<path d="M161.452,94.595c1.242,0.226,2.51,0.284,3.771,0.161c1.008-0.092,1.984-0.396,2.869-0.891
		c0.569-0.328,1.026-0.826,1.307-1.422c0.515-1.113,0.227-2.432-0.704-3.229c-0.536-0.467-1.169-0.801-1.856-0.976
		c-0.188-0.054-0.383-0.105-0.574-0.148l-0.852-0.192c-0.163-0.036-0.324-0.09-0.477-0.164c-0.133-0.065-0.242-0.162-0.326-0.285
		c-0.083-0.136-0.119-0.292-0.107-0.452c0.014-0.12,0.07-0.23,0.154-0.314c0.108-0.1,0.235-0.174,0.378-0.22
		c0.322-0.107,0.662-0.151,1.008-0.137c0.766,0.019,1.52,0.229,2.181,0.616l-0.165-2.155l-0.189-0.032
		c-1.42-0.228-2.862-0.198-4.272,0.093c-0.838,0.173-1.604,0.599-2.189,1.225c-0.651,0.724-0.878,1.731-0.591,2.662
		c0.142,0.418,0.406,0.783,0.761,1.051c0.41,0.316,0.868,0.568,1.36,0.745l1.758,0.628c0.228,0.086,0.453,0.195,0.66,0.327
		c0.127,0.074,0.23,0.175,0.317,0.289c0.07,0.11,0.111,0.237,0.107,0.371c0.004,0.242-0.107,0.471-0.301,0.614
		c-0.161,0.125-0.342,0.206-0.539,0.255c-0.431,0.104-0.882,0.134-1.326,0.091c-0.975-0.092-1.921-0.385-2.777-0.854L161.452,94.595
		"/>
	<path d="M158.818,92.352c-0.844,0.553-1.782,0.945-2.767,1.166c-0.721,0.162-1.475,0.061-2.133-0.286
		c-0.813-0.475-1.344-1.317-1.433-2.255c-0.012-0.11-0.021-0.22-0.023-0.327l6.161-0.307l-0.008-0.149
		c-0.049-0.954-0.306-1.887-0.758-2.734c-0.566-1.009-1.556-1.698-2.696-1.884c-1.698-0.384-3.472,0.115-4.729,1.322
		c-1.152,1.219-1.645,2.92-1.325,4.563c0.168,1.4,0.956,2.646,2.146,3.401c0.77,0.42,1.629,0.655,2.505,0.674
		c1.514,0.145,3.032-0.132,4.393-0.797L158.818,92.352 M152.381,88.882c0.016-0.395,0.149-0.772,0.386-1.09
		c0.408-0.491,1.095-0.647,1.677-0.379c0.278,0.141,0.494,0.388,0.597,0.687c0.077,0.208,0.119,0.422,0.122,0.644L152.381,88.882"/>
	<path d="M141.45,89.898l2.392,4.494c0.175,0.334,0.398,0.641,0.672,0.903c0.288,0.26,0.655,0.419,1.043,0.451
		c0.323,0.034,0.652,0.029,0.974-0.007l2.746-0.236l-0.073-0.059c-0.614-0.55-1.146-1.187-1.563-1.89
		c-0.111-0.171-0.215-0.343-0.317-0.516l-2.436-4.095l0.122-0.059c0.851-0.395,1.535-1.078,1.931-1.93
		c0.643-1.553,0.118-3.343-1.258-4.309c-0.433-0.296-0.933-0.483-1.455-0.541c-0.389-0.057-0.777-0.079-1.17-0.062l-0.359,0.014
		l-5.894,0.105l0.025,0.08c0.38,0.25,0.643,0.634,0.74,1.073c0.078,0.325,0.116,0.655,0.116,0.99l0.006,0.617l0.136,7.945
		c0,0.135,0.003,0.268,0.007,0.407c0.008,0.17,0.014,0.341,0.014,0.513c0.008,0.332-0.028,0.657-0.103,0.982
		c-0.1,0.424-0.346,0.803-0.704,1.052l5.354-0.063l-0.02-0.078c-0.381-0.249-0.645-0.633-0.747-1.073
		c-0.074-0.323-0.116-0.658-0.116-0.988l-0.004-0.619v-0.203L141.45,89.898 M141.555,84.09c0.252-0.008,0.502,0.019,0.747,0.078
		c0.469,0.152,0.842,0.505,1.029,0.962c0.474,1.138,0.128,2.452-0.844,3.206c-0.31,0.231-0.667,0.394-1.046,0.463l-0.087-4.706
		L141.555,84.09"/>
	<path d="M119.929,87.461c0.394-0.319,0.747-0.684,1.062-1.077c0.716-0.882,0.844-2.1,0.322-3.11
		c-0.458-0.789-1.231-1.34-2.129-1.514c-1.093-0.248-2.232-0.14-3.258,0.309c-0.625,0.276-1.125,0.778-1.401,1.403
		c-0.313,0.771-0.294,1.633,0.056,2.388c0.185,0.412,0.415,0.805,0.687,1.168c0.169,0.236,0.346,0.47,0.532,0.695l-0.131,0.087
		c-0.734,0.485-1.395,1.077-1.965,1.752c-0.477,0.569-0.782,1.27-0.876,2.01c-0.128,1.256,0.416,2.488,1.429,3.241
		c0.895,0.658,1.969,1.014,3.077,1.021c0.841,0.062,1.696-0.053,2.493-0.333c0.684-0.272,1.284-0.712,1.75-1.277l0.119,0.12
		c0.83,0.858,1.946,1.39,3.137,1.493c0.304,0.034,0.604,0.053,0.906,0.06l3.391-0.213l-0.254-0.175
		c-2.626-1.599-4.989-3.596-7.001-5.924L119.929,87.461 M120.273,92.821c-0.365,0.561-0.983,0.905-1.651,0.927
		c-0.665,0.023-1.303-0.276-1.709-0.809c-0.373-0.525-0.535-1.172-0.463-1.812c0.074-0.637,0.379-1.228,0.859-1.656L120.273,92.821
		 M118.418,85.857c-0.17-0.194-0.329-0.393-0.486-0.591c-0.127-0.162-0.232-0.344-0.312-0.532c-0.052-0.129-0.073-0.272-0.061-0.414
		c0.028-0.267,0.208-0.489,0.465-0.572c0.388-0.119,0.809,0.04,1.013,0.385c0.168,0.272,0.196,0.605,0.069,0.897
		c-0.069,0.169-0.168,0.324-0.294,0.454C118.69,85.62,118.558,85.747,118.418,85.857"/>
	<path d="M100.365,91.092l-1.286-4.052l-0.148-0.485c-0.045-0.146-0.091-0.299-0.141-0.447c-0.067-0.209-0.126-0.418-0.158-0.633
		l-0.01-0.102l-4.365-0.32l0.02,0.077c0.317,0.27,0.569,0.608,0.745,0.986c0.153,0.313,0.282,0.64,0.385,0.973l1.758,5.288
		c0.148,0.488,0.358,0.959,0.634,1.393c0.243,0.367,0.547,0.689,0.902,0.958l-0.043,0.125c-0.148,0.463-0.367,0.903-0.646,1.3
		c-0.398,0.583-1.068,0.92-1.773,0.89c-0.103,0.005-0.206-0.008-0.307-0.029c-0.086-0.022-0.178-0.052-0.259-0.085l-1.696,1.977
		l0.89,0.118l0.19,0.014c0.802,0.07,1.605-0.006,2.379-0.226c0.971-0.293,1.778-0.976,2.227-1.889
		c0.189-0.359,0.358-0.73,0.511-1.105l4.359-10.051l-2.918-0.222l0.016,0.088c0.151,0.163,0.272,0.354,0.342,0.567
		c0.055,0.197,0.068,0.401,0.037,0.609c-0.034,0.208-0.086,0.412-0.156,0.613c-0.047,0.139-0.102,0.28-0.161,0.42L100.365,91.092"/>
	<path d="M87.914,93.944l4.302,0.4l-0.062-0.119c-0.376-0.458-0.584-1.026-0.594-1.619c-0.015-0.374,0-0.748,0.042-1.121
		l0.025-0.227l1.008-10.935l-0.087,0.009c-0.315,0.145-0.658,0.218-1.008,0.201c-0.147-0.001-0.297-0.012-0.442-0.025l-0.235-0.027
		l-2.405-0.208l0.059,0.097c0.252,0.27,0.413,0.612,0.459,0.98c0.023,0.19,0.03,0.379,0.019,0.571
		c-0.001,0.106-0.004,0.214-0.01,0.319l-0.012,0.168l-0.01,0.18l-0.204,2.239l-0.127-0.1c-0.904-0.7-2.057-0.989-3.183-0.798
		c-1.125,0.193-2.118,0.849-2.736,1.809c-0.085,0.131-0.165,0.261-0.235,0.396c-1.199,2.021-0.996,4.573,0.507,6.375
		c0.711,0.789,1.704,1.275,2.764,1.355c0.173,0.026,0.346,0.026,0.519,0l0.049-0.007l0.042-0.012l0.056-0.017l0.028-0.008
		l0.026-0.01l1.093-1.666l-0.276-0.028c-0.871-0.128-1.572-0.771-1.77-1.627c-0.129-0.511-0.169-1.039-0.114-1.563
		c0.029-0.562,0.142-1.112,0.335-1.642c0.107-0.3,0.28-0.575,0.504-0.804c0.251-0.239,0.584-0.374,0.929-0.37
		c0.347,0.005,0.68,0.138,0.928,0.38c0.267,0.288,0.405,0.67,0.395,1.062c-0.004,0.189-0.017,0.38-0.041,0.567L87.914,93.944"/>
	<path d="M74.238,92.41c1.325,0.222,2.684-0.047,3.819-0.763c1.632-1.21,2.419-3.257,2.023-5.25
		c-0.311-1.846-1.683-3.336-3.499-3.802c-1.338-0.41-2.777-0.324-4.063,0.236c-1.379,0.691-2.338,2.005-2.573,3.535
		c-0.303,1.316-0.075,2.699,0.634,3.856c0.779,1.161,2.013,1.938,3.393,2.146C74.064,92.384,74.151,92.397,74.238,92.41
		 M74.713,90.525c-0.397-0.047-0.77-0.24-1.025-0.552c-0.22-0.295-0.369-0.633-0.429-0.996c-0.111-0.66-0.122-1.334-0.029-1.996
		c0.04-0.476,0.137-0.941,0.299-1.393c0.109-0.318,0.292-0.609,0.533-0.848c0.288-0.273,0.677-0.416,1.076-0.388
		c0.378,0,0.746,0.145,1.025,0.4c0.241,0.246,0.415,0.552,0.502,0.886c0.158,0.592,0.209,1.207,0.146,1.816
		c-0.016,0.211-0.037,0.416-0.064,0.625c-0.053,0.475-0.169,0.943-0.348,1.391c-0.115,0.291-0.3,0.554-0.536,0.76
		c-0.266,0.22-0.604,0.325-0.945,0.305l-0.05-0.001C74.815,90.535,74.766,90.53,74.713,90.525"/>
	<path d="M63.173,75.961l-0.079,0.003c-0.243,0.121-0.508,0.176-0.776,0.157c-0.158-0.007-0.314-0.023-0.471-0.055l-0.199-0.031
		l-2.595-0.419l0.047,0.1c0.207,0.259,0.334,0.566,0.378,0.888c0.019,0.185,0.017,0.375-0.003,0.561
		c-0.025,0.207-0.051,0.415-0.084,0.623c-0.454,3.186-0.955,6.365-1.513,9.535c-0.032,0.229-0.072,0.453-0.127,0.676
		c-0.073,0.287-0.243,0.542-0.489,0.713l-0.049,0.052c-0.016,0.019-0.036,0.035-0.053,0.05l0.244,0.132
		c1.749,0.791,3.629,1.249,5.544,1.359c1.13,0.053,2.249-0.248,3.196-0.864c2.091-1.52,2.828-4.298,1.758-6.651
		c-0.69-1.354-2.033-2.251-3.544-2.376c-0.154-0.008-0.307,0-0.46,0.023l-1.2,1.587l0.084,0.018c0.548,0.121,1.033,0.42,1.383,0.86
		c0.324,0.452,0.51,0.988,0.535,1.545c0.062,0.873-0.094,1.749-0.451,2.552c-0.214,0.487-0.591,0.892-1.064,1.136
		c-0.621,0.273-1.33,0.253-1.932-0.057L63.173,75.961"/>
	<path d="M49.33,87.718c1.303,0.314,2.678,0.139,3.861-0.495c1.708-1.097,2.625-3.085,2.353-5.096
		c-0.196-1.871-1.466-3.45-3.248-4.041c-1.307-0.499-2.749-0.517-4.066-0.043c-1.423,0.593-2.463,1.84-2.791,3.341
		c-0.389,1.298-0.25,2.698,0.383,3.896c0.704,1.209,1.882,2.07,3.248,2.379C49.156,87.681,49.243,87.7,49.33,87.718 M49.927,85.87
		c-0.397-0.071-0.753-0.294-0.991-0.62c-0.203-0.309-0.327-0.657-0.366-1.023c-0.062-0.666-0.033-1.337,0.106-1.991
		c0.065-0.471,0.198-0.928,0.383-1.365c0.13-0.312,0.329-0.591,0.584-0.812c0.307-0.253,0.704-0.367,1.097-0.311
		c0.379,0.032,0.737,0.2,1.001,0.475c0.226,0.26,0.38,0.575,0.451,0.916c0.117,0.601,0.126,1.219,0.024,1.822
		c-0.026,0.213-0.062,0.416-0.102,0.617c-0.085,0.475-0.23,0.934-0.436,1.364c-0.132,0.286-0.334,0.534-0.583,0.723
		c-0.278,0.202-0.624,0.288-0.96,0.24C50.062,85.894,49.996,85.882,49.927,85.87"/>
	<path d="M37.661,81.239c-0.096,0.381-0.17,0.771-0.217,1.165c-0.058,0.405-0.012,0.822,0.125,1.207
		c0.155,0.379,0.41,0.71,0.737,0.96c0.668,0.518,1.471,0.837,2.316,0.929c0.328,0.04,0.655,0.077,0.982,0.126l1.233-1.525
		l0.012-0.018c0.006-0.012,0.01-0.025,0.012-0.04l0.004-0.017L42.859,84l-0.005-0.02l-0.018-0.025l-0.007-0.012l-0.007-0.005
		l-0.006-0.004l-0.018-0.012l-0.02-0.01H42.76h-0.017l-0.025,0.005l-0.017,0.008l-0.012,0.009L42.67,83.95
		c-0.004,0-0.009,0.003-0.011,0.006c-0.002,0.004-0.004,0.008-0.002,0.016l-0.012,0.016l-0.009,0.006l-0.023,0.018l-0.022,0.009
		c-0.017,0.012-0.039,0.012-0.056,0c-0.284-0.076-0.558-0.193-0.81-0.345c-0.247-0.156-0.455-0.375-0.597-0.63
		c-0.115-0.214-0.163-0.457-0.142-0.699c0.012-0.181,0.04-0.363,0.078-0.543l0.063-0.263l0.83-3.794l0.485,0.121
		c0.229,0.043,0.457,0.104,0.677,0.174c0.243,0.077,0.455,0.233,0.593,0.444c0.092,0.115,0.169,0.235,0.241,0.363l0.573-2.47
		l-2.155-0.515l0.638-2.9l-1.338-0.327l-0.027,0.077c-0.509,1.544-1.965,2.576-3.589,2.553c-0.103-0.006-0.208-0.013-0.308-0.023
		L37.44,76.64l1.167,0.279L37.661,81.239"/>
	<path d="M30.133,72.121l-0.136,0.013c-0.302,0.072-0.617,0.079-0.923,0.013c-0.124-0.024-0.241-0.051-0.362-0.086l-2.667-0.691
		l0.042,0.104c0.182,0.271,0.292,0.581,0.313,0.911c0.009,0.236-0.016,0.474-0.069,0.704c-0.35,1.526-0.725,3.048-1.128,4.557
		l-0.047,0.185c-0.118,0.415-0.188,0.845-0.212,1.276c-0.036,0.68,0.227,1.343,0.718,1.815c0.832,0.804,1.986,1.187,3.137,1.032
		c0.55-0.098,1.061-0.343,1.476-0.714l-0.267,1.067l3.998,1.054l-0.043-0.107c-0.183-0.266-0.287-0.577-0.302-0.903
		c-0.004-0.235,0.025-0.473,0.082-0.704c0.032-0.156,0.068-0.314,0.107-0.473l0.044-0.178l1.8-7.36l-0.11,0.015
		c-0.34,0.073-0.69,0.073-1.027-0.01c-0.093-0.02-0.185-0.045-0.276-0.065l-2.647-0.688l0.043,0.104
		c0.185,0.271,0.294,0.584,0.316,0.909c0.009,0.235-0.019,0.475-0.07,0.708c-0.049,0.215-0.101,0.431-0.156,0.649l-0.815,3.264
		c-0.049,0.23-0.113,0.457-0.181,0.685c-0.037,0.111-0.08,0.217-0.131,0.32c-0.094,0.193-0.225,0.361-0.387,0.494
		c-0.204,0.151-0.449,0.222-0.7,0.197c-0.237-0.013-0.469-0.091-0.663-0.229c-0.185-0.146-0.307-0.355-0.35-0.59
		c-0.04-0.219-0.043-0.45-0.014-0.671c0.047-0.358,0.123-0.713,0.224-1.058l0.048-0.191l0.049-0.176L30.133,72.121"/>
	<path d="M18.861,74.402l0.083,2.131l0.008,0.124c0.008,0.081,0.01,0.165,0.01,0.246c-0.002,0.106-0.019,0.215-0.045,0.317
		c-0.042,0.198-0.125,0.389-0.239,0.557c-0.121,0.161-0.28,0.285-0.463,0.367c-0.15,0.079-0.309,0.147-0.469,0.203l5.766,1.798
		l-0.062-0.168c-0.28-0.473-0.484-0.979-0.612-1.512c-0.077-0.388-0.122-0.779-0.132-1.173l-0.035-0.491l-0.686-11.394l-4.691-1.42
		l0.054,0.104c0.164,0.203,0.282,0.44,0.348,0.69c0.063,0.262,0.037,0.54-0.071,0.786c-0.137,0.271-0.291,0.534-0.47,0.779
		c-0.101,0.148-0.199,0.298-0.298,0.447c-1.574,2.452-3.22,4.86-4.94,7.217c-0.218,0.322-0.459,0.634-0.714,0.93
		c-0.354,0.404-0.783,0.739-1.266,0.98l3.914,1.216l-0.086-0.178l-0.048-0.078c-0.096-0.141-0.17-0.298-0.226-0.462
		c-0.072-0.238-0.064-0.488,0.024-0.723c0.08-0.216,0.182-0.418,0.307-0.611c0.132-0.217,0.274-0.43,0.422-0.642l0.84-1.211
		L18.861,74.402 M18.761,72.354l-2.593-0.81l2.389-3.532L18.761,72.354"/>
</g>
</svg>
